<svg xmlns="http://www.w3.org/2000/svg" xmlns:xlink="http://www.w3.org/1999/xlink" width="2000" zoomAndPan="magnify" viewBox="0 0 1500 1499.999933" height="2000" preserveAspectRatio="xMidYMid meet" version="1.0"><defs><clipPath id="155f5f800a"><path d="M 272.636719 326 L 928 326 L 928 1274 L 272.636719 1274 Z M 272.636719 326 " clip-rule="nonzero"/></clipPath></defs><path fill="#a3a3a4" d="M 1000.371094 354.273438 L 898.921875 354.273438 L 898.921875 252.800781 Z M 1000.371094 354.273438 " fill-opacity="1" fill-rule="nonzero"/><g clip-path="url(#155f5f800a)"><path fill="#a3a3a4" d="M 927.097656 1211.660156 L 927.097656 1227.515625 C 927.09375 1229.035156 927.019531 1230.550781 926.867188 1232.0625 C 926.714844 1233.574219 926.492188 1235.074219 926.195312 1236.566406 C 925.894531 1238.054688 925.523438 1239.523438 925.082031 1240.976562 C 924.640625 1242.429688 924.128906 1243.859375 923.542969 1245.261719 C 922.960938 1246.664062 922.3125 1248.035156 921.59375 1249.375 C 920.875 1250.714844 920.097656 1252.015625 919.25 1253.277344 C 918.40625 1254.539062 917.5 1255.757812 916.535156 1256.929688 C 915.574219 1258.105469 914.554688 1259.230469 913.476562 1260.300781 C 912.402344 1261.375 911.277344 1262.394531 910.105469 1263.359375 C 908.929688 1264.320312 907.710938 1265.222656 906.449219 1266.066406 C 905.183594 1266.910156 903.882812 1267.691406 902.542969 1268.40625 C 901.203125 1269.125 899.832031 1269.773438 898.429688 1270.351562 C 897.023438 1270.933594 895.597656 1271.445312 894.140625 1271.886719 C 892.6875 1272.328125 891.21875 1272.695312 889.726562 1272.992188 C 888.238281 1273.289062 886.738281 1273.511719 885.226562 1273.664062 C 883.714844 1273.8125 882.199219 1273.886719 880.679688 1273.886719 L 403.492188 1273.886719 C 401.351562 1273.882812 399.210938 1273.828125 397.070312 1273.71875 C 394.933594 1273.609375 392.800781 1273.449219 390.667969 1273.234375 C 388.539062 1273.019531 386.414062 1272.753906 384.296875 1272.4375 C 382.179688 1272.121094 380.070312 1271.75 377.972656 1271.328125 C 375.871094 1270.90625 373.785156 1270.4375 371.707031 1269.914062 C 369.632812 1269.390625 367.570312 1268.816406 365.523438 1268.191406 C 363.472656 1267.566406 361.441406 1266.894531 359.429688 1266.167969 C 357.414062 1265.445312 355.417969 1264.671875 353.441406 1263.851562 C 351.460938 1263.03125 349.507812 1262.160156 347.570312 1261.242188 C 345.636719 1260.324219 343.726562 1259.359375 341.839844 1258.351562 C 339.953125 1257.339844 338.089844 1256.28125 336.253906 1255.179688 C 334.417969 1254.078125 332.609375 1252.929688 330.832031 1251.742188 C 329.050781 1250.550781 327.304688 1249.316406 325.585938 1248.039062 C 323.863281 1246.761719 322.179688 1245.445312 320.523438 1244.085938 C 318.871094 1242.726562 317.25 1241.328125 315.664062 1239.890625 C 314.078125 1238.453125 312.527344 1236.976562 311.015625 1235.460938 C 309.5 1233.945312 308.023438 1232.394531 306.585938 1230.808594 C 305.148438 1229.222656 303.75 1227.601562 302.394531 1225.945312 C 301.035156 1224.292969 299.71875 1222.605469 298.441406 1220.882812 C 297.167969 1219.164062 295.933594 1217.414062 294.746094 1215.632812 C 293.554688 1213.855469 292.410156 1212.046875 291.308594 1210.210938 C 290.207031 1208.375 289.152344 1206.511719 288.140625 1204.625 C 287.132812 1202.734375 286.167969 1200.824219 285.253906 1198.890625 C 284.335938 1196.953125 283.46875 1194.996094 282.648438 1193.019531 C 281.824219 1191.042969 281.054688 1189.046875 280.332031 1187.03125 C 279.609375 1185.015625 278.9375 1182.984375 278.3125 1180.933594 C 277.691406 1178.886719 277.117188 1176.824219 276.59375 1174.746094 C 276.074219 1172.671875 275.601562 1170.582031 275.183594 1168.484375 C 274.761719 1166.382812 274.394531 1164.273438 274.078125 1162.15625 C 273.761719 1160.039062 273.496094 1157.917969 273.285156 1155.785156 C 273.070312 1153.65625 272.910156 1151.519531 272.804688 1149.382812 C 272.695312 1147.242188 272.640625 1145.105469 272.636719 1142.964844 L 272.636719 372.421875 C 272.640625 370.90625 272.71875 369.394531 272.871094 367.886719 C 273.023438 366.378906 273.246094 364.882812 273.546875 363.398438 C 273.84375 361.914062 274.214844 360.445312 274.65625 358.996094 C 275.097656 357.546875 275.609375 356.121094 276.191406 354.722656 C 276.769531 353.324219 277.417969 351.957031 278.132812 350.621094 C 278.851562 349.285156 279.628906 347.988281 280.46875 346.726562 C 281.3125 345.46875 282.214844 344.253906 283.175781 343.082031 C 284.136719 341.910156 285.152344 340.789062 286.222656 339.714844 C 287.292969 338.644531 288.414062 337.628906 289.585938 336.664062 C 290.753906 335.703125 291.96875 334.800781 293.226562 333.957031 C 294.488281 333.113281 295.785156 332.332031 297.117188 331.617188 C 298.453125 330.898438 299.820312 330.25 301.21875 329.667969 C 302.617188 329.085938 304.042969 328.574219 305.492188 328.128906 C 306.9375 327.6875 308.40625 327.3125 309.890625 327.015625 C 311.375 326.714844 312.871094 326.488281 314.378906 326.335938 C 315.886719 326.183594 317.398438 326.101562 318.914062 326.097656 L 334.773438 326.097656 L 334.773438 1127.578125 C 334.773438 1128.953125 334.8125 1130.328125 334.878906 1131.703125 C 334.949219 1133.078125 335.054688 1134.449219 335.191406 1135.820312 C 335.328125 1137.1875 335.496094 1138.554688 335.703125 1139.917969 C 335.90625 1141.277344 336.144531 1142.632812 336.414062 1143.980469 C 336.683594 1145.332031 336.988281 1146.675781 337.324219 1148.007812 C 337.660156 1149.34375 338.027344 1150.667969 338.429688 1151.984375 C 338.832031 1153.300781 339.265625 1154.609375 339.730469 1155.902344 C 340.195312 1157.199219 340.691406 1158.480469 341.21875 1159.753906 C 341.746094 1161.023438 342.304688 1162.28125 342.894531 1163.523438 C 343.484375 1164.769531 344.105469 1165.996094 344.757812 1167.210938 C 345.40625 1168.425781 346.085938 1169.621094 346.792969 1170.800781 C 347.503906 1171.980469 348.238281 1173.140625 349.003906 1174.285156 C 349.769531 1175.429688 350.566406 1176.554688 351.386719 1177.660156 C 352.207031 1178.765625 353.054688 1179.847656 353.925781 1180.910156 C 354.800781 1181.976562 355.699219 1183.015625 356.625 1184.035156 C 357.550781 1185.054688 358.5 1186.050781 359.472656 1187.023438 C 360.449219 1187.996094 361.445312 1188.945312 362.464844 1189.867188 C 363.484375 1190.792969 364.527344 1191.691406 365.59375 1192.5625 C 366.65625 1193.4375 367.742188 1194.28125 368.847656 1195.101562 C 369.953125 1195.921875 371.078125 1196.714844 372.222656 1197.476562 C 373.367188 1198.242188 374.53125 1198.976562 375.710938 1199.683594 C 376.890625 1200.394531 378.089844 1201.070312 379.304688 1201.71875 C 380.515625 1202.367188 381.746094 1202.988281 382.992188 1203.574219 C 384.234375 1204.164062 385.492188 1204.722656 386.765625 1205.246094 C 388.035156 1205.773438 389.320312 1206.269531 390.617188 1206.734375 C 391.910156 1207.199219 393.21875 1207.628906 394.535156 1208.027344 C 395.851562 1208.429688 397.179688 1208.796875 398.515625 1209.128906 C 399.847656 1209.464844 401.191406 1209.765625 402.542969 1210.035156 C 403.890625 1210.304688 405.246094 1210.539062 406.609375 1210.742188 C 407.96875 1210.945312 409.335938 1211.113281 410.703125 1211.25 C 412.074219 1211.386719 413.445312 1211.488281 414.820312 1211.554688 C 416.195312 1211.625 417.570312 1211.65625 418.949219 1211.660156 Z M 927.097656 1211.660156 " fill-opacity="1" fill-rule="nonzero"/></g><path fill="#a3a3a4" d="M 747.464844 982.066406 C 748.335938 978.785156 749.972656 975.945312 752.375 973.546875 L 1027.085938 698.835938 L 1027.085938 392.054688 L 880.042969 392.054688 C 879.421875 392.054688 878.808594 392.023438 878.191406 391.964844 C 877.574219 391.902344 876.964844 391.8125 876.359375 391.691406 C 875.753906 391.570312 875.152344 391.421875 874.5625 391.242188 C 873.96875 391.0625 873.386719 390.855469 872.816406 390.617188 C 872.246094 390.382812 871.6875 390.117188 871.140625 389.824219 C 870.597656 389.535156 870.066406 389.21875 869.554688 388.875 C 869.039062 388.53125 868.542969 388.164062 868.066406 387.769531 C 867.585938 387.378906 867.128906 386.964844 866.691406 386.527344 C 866.253906 386.089844 865.839844 385.632812 865.449219 385.152344 C 865.054688 384.675781 864.6875 384.179688 864.34375 383.664062 C 864 383.152344 863.683594 382.621094 863.390625 382.074219 C 863.101562 381.53125 862.835938 380.972656 862.601562 380.402344 C 862.363281 379.828125 862.15625 379.25 861.976562 378.65625 C 861.796875 378.066406 861.644531 377.464844 861.527344 376.859375 C 861.40625 376.253906 861.3125 375.640625 861.253906 375.027344 C 861.191406 374.410156 861.164062 373.792969 861.164062 373.175781 L 861.164062 226.109375 L 418.949219 226.109375 C 417.429688 226.109375 415.914062 226.1875 414.402344 226.335938 C 412.890625 226.484375 411.386719 226.707031 409.898438 227.003906 C 408.40625 227.300781 406.933594 227.671875 405.480469 228.113281 C 404.027344 228.554688 402.597656 229.066406 401.195312 229.648438 C 399.789062 230.230469 398.417969 230.878906 397.078125 231.59375 C 395.738281 232.3125 394.4375 233.089844 393.171875 233.933594 C 391.910156 234.777344 390.691406 235.683594 389.515625 236.648438 C 388.339844 237.609375 387.214844 238.628906 386.140625 239.703125 C 385.066406 240.777344 384.046875 241.902344 383.082031 243.078125 C 382.117188 244.25 381.214844 245.46875 380.367188 246.734375 C 379.523438 247.996094 378.742188 249.296875 378.027344 250.636719 C 377.308594 251.976562 376.660156 253.347656 376.078125 254.75 C 375.492188 256.15625 374.980469 257.585938 374.539062 259.039062 C 374.097656 260.492188 373.726562 261.964844 373.429688 263.453125 C 373.132812 264.945312 372.90625 266.445312 372.757812 267.957031 C 372.609375 269.46875 372.53125 270.984375 372.53125 272.503906 L 372.53125 1127.578125 C 372.53125 1129.09375 372.609375 1130.609375 372.761719 1132.121094 C 372.914062 1133.632812 373.140625 1135.128906 373.4375 1136.621094 C 373.738281 1138.109375 374.109375 1139.578125 374.550781 1141.03125 C 374.996094 1142.484375 375.507812 1143.910156 376.089844 1145.3125 C 376.671875 1146.714844 377.324219 1148.082031 378.042969 1149.421875 C 378.757812 1150.757812 379.539062 1152.058594 380.386719 1153.320312 C 381.230469 1154.582031 382.136719 1155.796875 383.101562 1156.972656 C 384.066406 1158.144531 385.085938 1159.265625 386.160156 1160.339844 C 387.234375 1161.410156 388.359375 1162.429688 389.53125 1163.390625 C 390.707031 1164.351562 391.925781 1165.253906 393.1875 1166.097656 C 394.453125 1166.941406 395.753906 1167.71875 397.09375 1168.433594 C 398.433594 1169.148438 399.804688 1169.796875 401.207031 1170.375 C 402.609375 1170.957031 404.039062 1171.46875 405.492188 1171.90625 C 406.945312 1172.347656 408.414062 1172.714844 409.902344 1173.011719 C 411.394531 1173.308594 412.894531 1173.527344 414.40625 1173.679688 C 415.914062 1173.828125 417.429688 1173.902344 418.949219 1173.902344 L 980.59375 1173.902344 C 982.113281 1173.902344 983.632812 1173.832031 985.144531 1173.683594 C 986.65625 1173.539062 988.160156 1173.316406 989.648438 1173.023438 C 991.140625 1172.730469 992.613281 1172.363281 994.070312 1171.925781 C 995.523438 1171.484375 996.953125 1170.976562 998.359375 1170.398438 C 999.765625 1169.816406 1001.136719 1169.171875 1002.480469 1168.457031 C 1003.820312 1167.742188 1005.125 1166.964844 1006.390625 1166.121094 C 1007.652344 1165.28125 1008.875 1164.378906 1010.050781 1163.414062 C 1011.226562 1162.453125 1012.355469 1161.4375 1013.429688 1160.363281 C 1014.507812 1159.289062 1015.527344 1158.167969 1016.496094 1156.996094 C 1017.460938 1155.820312 1018.367188 1154.605469 1019.214844 1153.34375 C 1020.0625 1152.082031 1020.84375 1150.78125 1021.5625 1149.441406 C 1022.28125 1148.101562 1022.933594 1146.730469 1023.515625 1145.328125 C 1024.101562 1143.925781 1024.617188 1142.496094 1025.058594 1141.042969 C 1025.503906 1139.589844 1025.875 1138.117188 1026.175781 1136.628906 C 1026.472656 1135.136719 1026.699219 1133.636719 1026.851562 1132.125 C 1027.003906 1130.613281 1027.082031 1129.097656 1027.085938 1127.578125 L 1027.085938 945.65625 L 875.769531 1096.898438 C 873.382812 1099.304688 870.550781 1100.941406 867.273438 1101.808594 L 735.710938 1136.636719 C 735.316406 1136.742188 734.914062 1136.835938 734.511719 1136.914062 C 734.109375 1136.992188 733.703125 1137.058594 733.296875 1137.113281 C 732.890625 1137.164062 732.480469 1137.203125 732.070312 1137.230469 C 731.660156 1137.253906 731.25 1137.265625 730.839844 1137.265625 C 730.429688 1137.265625 730.019531 1137.25 729.609375 1137.222656 C 729.199219 1137.195312 728.789062 1137.15625 728.382812 1137.101562 C 727.976562 1137.046875 727.570312 1136.976562 727.167969 1136.898438 C 726.765625 1136.816406 726.367188 1136.722656 725.96875 1136.617188 C 725.574219 1136.507812 725.179688 1136.390625 724.789062 1136.257812 C 724.402344 1136.125 724.019531 1135.976562 723.640625 1135.820312 C 723.257812 1135.664062 722.886719 1135.492188 722.515625 1135.3125 C 722.148438 1135.128906 721.789062 1134.933594 721.433594 1134.730469 C 721.078125 1134.523438 720.726562 1134.308594 720.386719 1134.078125 C 720.042969 1133.851562 719.710938 1133.609375 719.386719 1133.359375 C 719.058594 1133.109375 718.742188 1132.851562 718.433594 1132.578125 C 718.125 1132.308594 717.824219 1132.027344 717.535156 1131.738281 C 717.246094 1131.445312 716.964844 1131.148438 716.691406 1130.839844 C 716.421875 1130.53125 716.160156 1130.210938 715.910156 1129.886719 C 715.660156 1129.558594 715.421875 1129.226562 715.191406 1128.886719 C 714.964844 1128.542969 714.746094 1128.195312 714.542969 1127.839844 C 714.335938 1127.484375 714.140625 1127.121094 713.960938 1126.753906 C 713.777344 1126.386719 713.609375 1126.011719 713.449219 1125.632812 C 713.292969 1125.253906 713.148438 1124.871094 713.015625 1124.480469 C 712.882812 1124.09375 712.761719 1123.699219 712.65625 1123.300781 C 712.550781 1122.90625 712.457031 1122.507812 712.375 1122.105469 C 712.292969 1121.699219 712.226562 1121.296875 712.171875 1120.890625 C 712.117188 1120.480469 712.074219 1120.074219 712.046875 1119.664062 C 712.019531 1119.253906 712.007812 1118.84375 712.003906 1118.433594 C 712.003906 1118.023438 712.015625 1117.613281 712.042969 1117.203125 C 712.070312 1116.792969 712.109375 1116.382812 712.160156 1115.976562 C 712.210938 1115.566406 712.277344 1115.164062 712.355469 1114.757812 C 712.4375 1114.355469 712.527344 1113.957031 712.632812 1113.558594 Z M 473.722656 487.085938 L 945.976562 487.085938 C 946.59375 487.085938 947.210938 487.117188 947.828125 487.175781 C 948.441406 487.238281 949.054688 487.328125 949.660156 487.449219 C 950.265625 487.570312 950.863281 487.71875 951.457031 487.898438 C 952.046875 488.078125 952.628906 488.289062 953.199219 488.523438 C 953.773438 488.761719 954.332031 489.023438 954.875 489.316406 C 955.421875 489.609375 955.949219 489.925781 956.464844 490.269531 C 956.980469 490.613281 957.476562 490.980469 957.953125 491.371094 C 958.429688 491.765625 958.886719 492.179688 959.324219 492.617188 C 959.761719 493.054688 960.175781 493.511719 960.570312 493.988281 C 960.960938 494.46875 961.328125 494.964844 961.671875 495.476562 C 962.015625 495.992188 962.335938 496.519531 962.625 497.066406 C 962.917969 497.613281 963.179688 498.167969 963.417969 498.742188 C 963.65625 499.3125 963.863281 499.894531 964.042969 500.484375 C 964.222656 501.078125 964.371094 501.675781 964.492188 502.28125 C 964.613281 502.890625 964.703125 503.5 964.765625 504.117188 C 964.824219 504.730469 964.855469 505.347656 964.855469 505.964844 C 964.855469 506.585938 964.824219 507.199219 964.765625 507.816406 C 964.703125 508.429688 964.613281 509.042969 964.492188 509.648438 C 964.371094 510.253906 964.222656 510.855469 964.042969 511.445312 C 963.863281 512.039062 963.65625 512.617188 963.417969 513.191406 C 963.179688 513.761719 962.917969 514.320312 962.625 514.863281 C 962.335938 515.410156 962.015625 515.941406 961.671875 516.453125 C 961.328125 516.96875 960.960938 517.464844 960.570312 517.941406 C 960.175781 518.421875 959.761719 518.878906 959.324219 519.316406 C 958.886719 519.753906 958.429688 520.167969 957.953125 520.558594 C 957.476562 520.953125 956.980469 521.320312 956.464844 521.664062 C 955.949219 522.007812 955.421875 522.324219 954.875 522.617188 C 954.332031 522.90625 953.773438 523.171875 953.199219 523.40625 C 952.628906 523.644531 952.046875 523.851562 951.457031 524.03125 C 950.863281 524.210938 950.265625 524.359375 949.660156 524.480469 C 949.054688 524.601562 948.441406 524.691406 947.828125 524.753906 C 947.210938 524.8125 946.59375 524.84375 945.976562 524.84375 L 473.671875 524.84375 C 473.054688 524.84375 472.4375 524.8125 471.824219 524.753906 C 471.207031 524.691406 470.597656 524.601562 469.992188 524.480469 C 469.382812 524.359375 468.785156 524.210938 468.195312 524.03125 C 467.601562 523.851562 467.019531 523.644531 466.449219 523.40625 C 465.878906 523.171875 465.320312 522.90625 464.773438 522.617188 C 464.230469 522.324219 463.699219 522.007812 463.183594 521.664062 C 462.671875 521.320312 462.175781 520.953125 461.695312 520.558594 C 461.21875 520.167969 460.761719 519.753906 460.324219 519.316406 C 459.886719 518.878906 459.472656 518.421875 459.078125 517.941406 C 458.6875 517.464844 458.320312 516.96875 457.976562 516.453125 C 457.632812 515.941406 457.316406 515.410156 457.023438 514.863281 C 456.734375 514.320312 456.46875 513.761719 456.230469 513.191406 C 455.996094 512.617188 455.789062 512.039062 455.609375 511.445312 C 455.429688 510.855469 455.277344 510.253906 455.15625 509.648438 C 455.035156 509.042969 454.945312 508.429688 454.886719 507.816406 C 454.824219 507.199219 454.792969 506.585938 454.792969 505.964844 C 454.792969 505.347656 454.824219 504.730469 454.886719 504.117188 C 454.945312 503.5 455.035156 502.890625 455.15625 502.28125 C 455.277344 501.675781 455.429688 501.078125 455.609375 500.484375 C 455.789062 499.894531 455.996094 499.3125 456.230469 498.742188 C 456.46875 498.167969 456.734375 497.613281 457.023438 497.066406 C 457.316406 496.519531 457.632812 495.992188 457.976562 495.476562 C 458.320312 494.964844 458.6875 494.46875 459.078125 493.988281 C 459.472656 493.511719 459.886719 493.054688 460.324219 492.617188 C 460.761719 492.179688 461.21875 491.765625 461.695312 491.371094 C 462.175781 490.980469 462.671875 490.613281 463.183594 490.269531 C 463.699219 489.925781 464.230469 489.605469 464.773438 489.316406 C 465.320312 489.023438 465.878906 488.761719 466.449219 488.523438 C 467.019531 488.289062 467.601562 488.078125 468.195312 487.898438 C 468.785156 487.71875 469.382812 487.570312 469.992188 487.449219 C 470.597656 487.328125 471.207031 487.238281 471.824219 487.175781 C 472.4375 487.117188 473.054688 487.085938 473.671875 487.085938 Z M 473.722656 625.585938 L 945.976562 625.585938 C 946.59375 625.585938 947.210938 625.617188 947.828125 625.679688 C 948.441406 625.738281 949.054688 625.828125 949.660156 625.949219 C 950.265625 626.070312 950.863281 626.21875 951.457031 626.398438 C 952.046875 626.578125 952.628906 626.789062 953.199219 627.023438 C 953.773438 627.261719 954.332031 627.523438 954.875 627.816406 C 955.421875 628.109375 955.949219 628.425781 956.464844 628.769531 C 956.980469 629.113281 957.476562 629.480469 957.953125 629.871094 C 958.429688 630.265625 958.886719 630.679688 959.324219 631.117188 C 959.761719 631.554688 960.175781 632.011719 960.570312 632.488281 C 960.960938 632.96875 961.328125 633.464844 961.671875 633.976562 C 962.015625 634.492188 962.335938 635.019531 962.625 635.566406 C 962.917969 636.113281 963.179688 636.671875 963.417969 637.242188 C 963.65625 637.8125 963.863281 638.394531 964.042969 638.984375 C 964.222656 639.578125 964.371094 640.175781 964.492188 640.78125 C 964.613281 641.390625 964.703125 642 964.765625 642.617188 C 964.824219 643.230469 964.855469 643.847656 964.855469 644.464844 C 964.855469 645.085938 964.824219 645.699219 964.765625 646.316406 C 964.703125 646.933594 964.613281 647.542969 964.492188 648.148438 C 964.371094 648.753906 964.222656 649.355469 964.042969 649.945312 C 963.863281 650.539062 963.65625 651.121094 963.417969 651.691406 C 963.179688 652.261719 962.917969 652.820312 962.625 653.367188 C 962.335938 653.910156 962.015625 654.441406 961.671875 654.953125 C 961.328125 655.46875 960.960938 655.964844 960.570312 656.441406 C 960.175781 656.921875 959.761719 657.378906 959.324219 657.816406 C 958.886719 658.253906 958.429688 658.667969 957.953125 659.058594 C 957.476562 659.453125 956.980469 659.820312 956.464844 660.164062 C 955.949219 660.507812 955.421875 660.824219 954.875 661.117188 C 954.332031 661.40625 953.773438 661.671875 953.199219 661.90625 C 952.628906 662.144531 952.046875 662.351562 951.457031 662.53125 C 950.863281 662.710938 950.265625 662.863281 949.660156 662.980469 C 949.054688 663.101562 948.441406 663.191406 947.828125 663.253906 C 947.210938 663.316406 946.59375 663.34375 945.976562 663.34375 L 473.671875 663.34375 C 473.054688 663.34375 472.4375 663.316406 471.824219 663.253906 C 471.207031 663.191406 470.597656 663.101562 469.992188 662.980469 C 469.382812 662.863281 468.785156 662.710938 468.195312 662.53125 C 467.601562 662.351562 467.019531 662.144531 466.449219 661.90625 C 465.878906 661.671875 465.320312 661.40625 464.773438 661.117188 C 464.230469 660.824219 463.699219 660.507812 463.183594 660.164062 C 462.671875 659.820312 462.175781 659.453125 461.695312 659.058594 C 461.21875 658.667969 460.761719 658.253906 460.324219 657.816406 C 459.886719 657.378906 459.472656 656.921875 459.078125 656.441406 C 458.6875 655.964844 458.320312 655.46875 457.976562 654.953125 C 457.632812 654.441406 457.316406 653.910156 457.023438 653.367188 C 456.734375 652.820312 456.46875 652.261719 456.230469 651.691406 C 455.996094 651.121094 455.789062 650.539062 455.609375 649.945312 C 455.429688 649.355469 455.277344 648.753906 455.15625 648.148438 C 455.035156 647.542969 454.945312 646.933594 454.886719 646.316406 C 454.824219 645.699219 454.792969 645.085938 454.792969 644.464844 C 454.792969 643.847656 454.824219 643.230469 454.886719 642.617188 C 454.945312 642 455.035156 641.390625 455.15625 640.78125 C 455.277344 640.175781 455.429688 639.578125 455.609375 638.984375 C 455.789062 638.394531 455.996094 637.8125 456.230469 637.242188 C 456.46875 636.671875 456.734375 636.113281 457.023438 635.566406 C 457.316406 635.019531 457.632812 634.492188 457.976562 633.976562 C 458.320312 633.464844 458.6875 632.96875 459.078125 632.488281 C 459.472656 632.011719 459.886719 631.554688 460.324219 631.117188 C 460.761719 630.679688 461.21875 630.265625 461.695312 629.871094 C 462.175781 629.480469 462.671875 629.113281 463.183594 628.769531 C 463.699219 628.425781 464.230469 628.109375 464.773438 627.816406 C 465.320312 627.523438 465.878906 627.261719 466.449219 627.023438 C 467.019531 626.789062 467.601562 626.578125 468.195312 626.398438 C 468.785156 626.21875 469.382812 626.070312 469.992188 625.949219 C 470.597656 625.828125 471.207031 625.738281 471.824219 625.679688 C 472.4375 625.617188 473.054688 625.585938 473.671875 625.585938 Z M 473.722656 764.085938 L 851.582031 764.085938 C 852.199219 764.085938 852.816406 764.117188 853.433594 764.179688 C 854.046875 764.238281 854.660156 764.328125 855.265625 764.449219 C 855.871094 764.570312 856.46875 764.722656 857.0625 764.898438 C 857.652344 765.078125 858.234375 765.289062 858.804688 765.523438 C 859.378906 765.761719 859.9375 766.023438 860.480469 766.316406 C 861.027344 766.609375 861.554688 766.925781 862.070312 767.269531 C 862.585938 767.613281 863.082031 767.980469 863.558594 768.371094 C 864.035156 768.765625 864.492188 769.179688 864.929688 769.617188 C 865.367188 770.054688 865.78125 770.511719 866.175781 770.988281 C 866.566406 771.46875 866.933594 771.964844 867.277344 772.476562 C 867.621094 772.992188 867.941406 773.519531 868.230469 774.066406 C 868.523438 774.613281 868.785156 775.171875 869.023438 775.742188 C 869.261719 776.3125 869.46875 776.894531 869.648438 777.484375 C 869.828125 778.078125 869.976562 778.675781 870.097656 779.28125 C 870.21875 779.890625 870.308594 780.5 870.371094 781.117188 C 870.429688 781.730469 870.460938 782.347656 870.460938 782.964844 C 870.460938 783.585938 870.429688 784.203125 870.371094 784.816406 C 870.308594 785.433594 870.21875 786.042969 870.097656 786.648438 C 869.976562 787.253906 869.828125 787.855469 869.648438 788.445312 C 869.46875 789.039062 869.261719 789.621094 869.023438 790.191406 C 868.785156 790.761719 868.523438 791.320312 868.230469 791.867188 C 867.941406 792.410156 867.621094 792.941406 867.277344 793.453125 C 866.933594 793.96875 866.566406 794.464844 866.175781 794.941406 C 865.78125 795.421875 865.367188 795.878906 864.929688 796.316406 C 864.492188 796.753906 864.035156 797.167969 863.558594 797.558594 C 863.082031 797.953125 862.585938 798.320312 862.070312 798.664062 C 861.554688 799.007812 861.027344 799.324219 860.480469 799.617188 C 859.9375 799.90625 859.378906 800.171875 858.804688 800.40625 C 858.234375 800.644531 857.652344 800.851562 857.0625 801.03125 C 856.46875 801.210938 855.871094 801.363281 855.265625 801.480469 C 854.660156 801.601562 854.046875 801.695312 853.433594 801.753906 C 852.816406 801.816406 852.199219 801.84375 851.582031 801.84375 L 473.671875 801.84375 C 473.054688 801.84375 472.4375 801.816406 471.824219 801.753906 C 471.207031 801.695312 470.597656 801.601562 469.992188 801.480469 C 469.382812 801.363281 468.785156 801.210938 468.195312 801.03125 C 467.601562 800.851562 467.019531 800.644531 466.449219 800.40625 C 465.878906 800.171875 465.320312 799.90625 464.773438 799.617188 C 464.230469 799.324219 463.699219 799.007812 463.183594 798.664062 C 462.671875 798.320312 462.175781 797.953125 461.695312 797.558594 C 461.21875 797.167969 460.761719 796.753906 460.324219 796.316406 C 459.886719 795.878906 459.472656 795.421875 459.078125 794.941406 C 458.6875 794.464844 458.320312 793.96875 457.976562 793.453125 C 457.632812 792.941406 457.316406 792.410156 457.023438 791.867188 C 456.734375 791.320312 456.46875 790.761719 456.230469 790.191406 C 455.996094 789.621094 455.789062 789.039062 455.609375 788.445312 C 455.429688 787.855469 455.277344 787.253906 455.15625 786.648438 C 455.035156 786.042969 454.945312 785.433594 454.886719 784.816406 C 454.824219 784.203125 454.792969 783.585938 454.792969 782.964844 C 454.792969 782.347656 454.824219 781.730469 454.886719 781.117188 C 454.945312 780.5 455.035156 779.890625 455.15625 779.28125 C 455.277344 778.675781 455.429688 778.078125 455.609375 777.484375 C 455.789062 776.894531 455.996094 776.3125 456.230469 775.742188 C 456.46875 775.171875 456.734375 774.613281 457.023438 774.066406 C 457.316406 773.519531 457.632812 772.992188 457.976562 772.476562 C 458.320312 771.964844 458.6875 771.46875 459.078125 770.988281 C 459.472656 770.511719 459.886719 770.054688 460.324219 769.617188 C 460.761719 769.179688 461.21875 768.765625 461.695312 768.371094 C 462.175781 767.980469 462.671875 767.613281 463.183594 767.269531 C 463.699219 766.925781 464.230469 766.609375 464.773438 766.316406 C 465.320312 766.023438 465.878906 765.761719 466.449219 765.523438 C 467.019531 765.289062 467.601562 765.078125 468.195312 764.898438 C 468.785156 764.722656 469.382812 764.570312 469.992188 764.449219 C 470.597656 764.328125 471.207031 764.238281 471.824219 764.179688 C 472.4375 764.117188 473.054688 764.085938 473.671875 764.085938 Z M 652.007812 1078.871094 L 473.671875 1078.871094 C 473.054688 1078.871094 472.4375 1078.839844 471.824219 1078.777344 C 471.207031 1078.71875 470.597656 1078.628906 469.992188 1078.507812 C 469.382812 1078.386719 468.785156 1078.234375 468.195312 1078.054688 C 467.601562 1077.875 467.019531 1077.667969 466.449219 1077.433594 C 465.878906 1077.195312 465.320312 1076.929688 464.773438 1076.640625 C 464.230469 1076.347656 463.699219 1076.03125 463.183594 1075.6875 C 462.671875 1075.34375 462.175781 1074.976562 461.695312 1074.582031 C 461.21875 1074.191406 460.761719 1073.777344 460.324219 1073.339844 C 459.886719 1072.902344 459.472656 1072.445312 459.078125 1071.96875 C 458.6875 1071.488281 458.320312 1070.992188 457.976562 1070.480469 C 457.632812 1069.964844 457.316406 1069.433594 457.023438 1068.890625 C 456.734375 1068.34375 456.46875 1067.785156 456.230469 1067.214844 C 455.996094 1066.644531 455.789062 1066.0625 455.609375 1065.46875 C 455.429688 1064.878906 455.277344 1064.28125 455.15625 1063.671875 C 455.035156 1063.066406 454.945312 1062.457031 454.886719 1061.839844 C 454.824219 1061.226562 454.792969 1060.609375 454.792969 1059.992188 C 454.792969 1059.371094 454.824219 1058.753906 454.886719 1058.140625 C 454.945312 1057.523438 455.035156 1056.914062 455.15625 1056.308594 C 455.277344 1055.699219 455.429688 1055.101562 455.609375 1054.511719 C 455.789062 1053.917969 455.996094 1053.335938 456.230469 1052.765625 C 456.46875 1052.195312 456.734375 1051.636719 457.023438 1051.089844 C 457.316406 1050.546875 457.632812 1050.015625 457.976562 1049.5 C 458.320312 1048.988281 458.6875 1048.492188 459.078125 1048.015625 C 459.472656 1047.535156 459.886719 1047.078125 460.324219 1046.640625 C 460.761719 1046.203125 461.21875 1045.789062 461.695312 1045.398438 C 462.175781 1045.003906 462.671875 1044.636719 463.183594 1044.292969 C 463.699219 1043.949219 464.230469 1043.632812 464.773438 1043.339844 C 465.320312 1043.050781 465.878906 1042.785156 466.449219 1042.546875 C 467.019531 1042.3125 467.601562 1042.105469 468.195312 1041.925781 C 468.785156 1041.746094 469.382812 1041.59375 469.992188 1041.472656 C 470.597656 1041.355469 471.207031 1041.261719 471.824219 1041.203125 C 472.4375 1041.140625 473.054688 1041.113281 473.671875 1041.113281 L 651.960938 1041.113281 C 652.578125 1041.113281 653.195312 1041.140625 653.8125 1041.203125 C 654.425781 1041.261719 655.039062 1041.355469 655.644531 1041.472656 C 656.25 1041.59375 656.851562 1041.746094 657.441406 1041.925781 C 658.03125 1042.105469 658.613281 1042.3125 659.1875 1042.546875 C 659.757812 1042.785156 660.316406 1043.050781 660.859375 1043.339844 C 661.40625 1043.632812 661.9375 1043.949219 662.449219 1044.292969 C 662.964844 1044.636719 663.460938 1045.003906 663.9375 1045.398438 C 664.414062 1045.789062 664.875 1046.203125 665.3125 1046.640625 C 665.746094 1047.078125 666.164062 1047.535156 666.554688 1048.011719 C 666.945312 1048.492188 667.316406 1048.988281 667.660156 1049.5 C 668 1050.015625 668.320312 1050.546875 668.609375 1051.089844 C 668.902344 1051.636719 669.167969 1052.195312 669.402344 1052.765625 C 669.640625 1053.335938 669.847656 1053.917969 670.027344 1054.511719 C 670.207031 1055.101562 670.355469 1055.699219 670.476562 1056.308594 C 670.597656 1056.914062 670.6875 1057.523438 670.75 1058.140625 C 670.808594 1058.753906 670.839844 1059.371094 670.839844 1059.992188 C 670.839844 1060.609375 670.808594 1061.226562 670.75 1061.839844 C 670.6875 1062.457031 670.597656 1063.066406 670.476562 1063.671875 C 670.355469 1064.28125 670.207031 1064.878906 670.027344 1065.46875 C 669.847656 1066.0625 669.640625 1066.644531 669.402344 1067.214844 C 669.167969 1067.785156 668.902344 1068.34375 668.609375 1068.890625 C 668.320312 1069.433594 668 1069.964844 667.660156 1070.480469 C 667.316406 1070.992188 666.945312 1071.488281 666.554688 1071.96875 C 666.164062 1072.445312 665.746094 1072.902344 665.3125 1073.339844 C 664.875 1073.777344 664.414062 1074.191406 663.9375 1074.582031 C 663.460938 1074.976562 662.964844 1075.34375 662.449219 1075.6875 C 661.9375 1076.03125 661.40625 1076.347656 660.859375 1076.640625 C 660.316406 1076.929688 659.757812 1077.195312 659.1875 1077.433594 C 658.613281 1077.667969 658.03125 1077.875 657.441406 1078.054688 C 656.851562 1078.234375 656.25 1078.386719 655.644531 1078.507812 C 655.039062 1078.628906 654.425781 1078.71875 653.8125 1078.777344 C 653.195312 1078.839844 652.578125 1078.871094 651.960938 1078.871094 Z M 473.722656 940.367188 C 473.101562 940.367188 472.484375 940.339844 471.871094 940.277344 C 471.253906 940.21875 470.644531 940.125 470.039062 940.007812 C 469.429688 939.886719 468.832031 939.734375 468.242188 939.554688 C 467.648438 939.375 467.066406 939.167969 466.496094 938.933594 C 465.925781 938.695312 465.367188 938.429688 464.820312 938.140625 C 464.277344 937.847656 463.746094 937.53125 463.230469 937.1875 C 462.71875 936.84375 462.222656 936.476562 461.746094 936.082031 C 461.265625 935.691406 460.808594 935.277344 460.371094 934.839844 C 459.933594 934.402344 459.519531 933.945312 459.128906 933.464844 C 458.734375 932.988281 458.367188 932.492188 458.023438 931.976562 C 457.679688 931.464844 457.363281 930.933594 457.070312 930.390625 C 456.78125 929.84375 456.515625 929.285156 456.277344 928.714844 C 456.042969 928.144531 455.835938 927.5625 455.65625 926.96875 C 455.476562 926.378906 455.324219 925.78125 455.203125 925.171875 C 455.085938 924.566406 454.992188 923.957031 454.933594 923.339844 C 454.871094 922.726562 454.84375 922.109375 454.84375 921.488281 C 454.84375 920.871094 454.871094 920.253906 454.933594 919.640625 C 454.992188 919.023438 455.085938 918.414062 455.203125 917.808594 C 455.324219 917.199219 455.476562 916.601562 455.65625 916.007812 C 455.835938 915.417969 456.042969 914.835938 456.277344 914.265625 C 456.515625 913.695312 456.78125 913.136719 457.070312 912.589844 C 457.363281 912.046875 457.679688 911.515625 458.023438 911 C 458.367188 910.488281 458.734375 909.992188 459.128906 909.511719 C 459.519531 909.035156 459.933594 908.578125 460.371094 908.140625 C 460.808594 907.703125 461.265625 907.289062 461.746094 906.894531 C 462.222656 906.503906 462.71875 906.136719 463.230469 905.792969 C 463.746094 905.449219 464.277344 905.132812 464.820312 904.839844 C 465.367188 904.550781 465.925781 904.285156 466.496094 904.046875 C 467.066406 903.8125 467.648438 903.605469 468.242188 903.425781 C 468.832031 903.246094 469.429688 903.09375 470.039062 902.972656 C 470.644531 902.851562 471.253906 902.761719 471.871094 902.703125 C 472.484375 902.640625 473.101562 902.609375 473.722656 902.609375 L 736.726562 902.609375 C 737.34375 902.609375 737.960938 902.640625 738.578125 902.703125 C 739.191406 902.761719 739.804688 902.851562 740.410156 902.972656 C 741.015625 903.09375 741.617188 903.246094 742.207031 903.425781 C 742.800781 903.605469 743.378906 903.8125 743.953125 904.046875 C 744.523438 904.285156 745.082031 904.550781 745.625 904.839844 C 746.171875 905.132812 746.703125 905.449219 747.214844 905.792969 C 747.730469 906.136719 748.226562 906.503906 748.703125 906.894531 C 749.183594 907.289062 749.640625 907.703125 750.078125 908.140625 C 750.515625 908.578125 750.929688 909.035156 751.320312 909.511719 C 751.714844 909.992188 752.082031 910.488281 752.425781 911 C 752.769531 911.515625 753.085938 912.046875 753.378906 912.589844 C 753.667969 913.136719 753.933594 913.695312 754.167969 914.265625 C 754.40625 914.835938 754.613281 915.417969 754.792969 916.007812 C 754.972656 916.601562 755.121094 917.199219 755.242188 917.808594 C 755.363281 918.414062 755.453125 919.023438 755.515625 919.640625 C 755.574219 920.253906 755.605469 920.871094 755.605469 921.488281 C 755.605469 922.109375 755.574219 922.726562 755.515625 923.339844 C 755.453125 923.957031 755.363281 924.566406 755.242188 925.171875 C 755.121094 925.78125 754.972656 926.378906 754.792969 926.96875 C 754.613281 927.5625 754.40625 928.144531 754.167969 928.714844 C 753.933594 929.285156 753.667969 929.84375 753.378906 930.390625 C 753.085938 930.933594 752.769531 931.464844 752.425781 931.976562 C 752.082031 932.492188 751.714844 932.988281 751.320312 933.464844 C 750.929688 933.945312 750.515625 934.402344 750.078125 934.839844 C 749.640625 935.277344 749.183594 935.691406 748.703125 936.082031 C 748.226562 936.476562 747.730469 936.84375 747.214844 937.1875 C 746.703125 937.53125 746.171875 937.847656 745.625 938.140625 C 745.082031 938.429688 744.523438 938.695312 743.953125 938.933594 C 743.378906 939.167969 742.800781 939.375 742.207031 939.554688 C 741.617188 939.734375 741.015625 939.886719 740.410156 940.007812 C 739.804688 940.125 739.191406 940.21875 738.578125 940.277344 C 737.960938 940.339844 737.34375 940.367188 736.726562 940.367188 Z M 473.722656 940.367188 " fill-opacity="1" fill-rule="nonzero"/><path fill="#a3a3a4" d="M 1244.664062 674.695312 L 1032.628906 886.730469 L 1031.992188 887.390625 L 852.644531 1066.738281 L 757.398438 1091.964844 L 782.601562 996.722656 L 1058.707031 720.617188 L 1059.675781 719.652344 L 1174.695312 604.632812 C 1175.855469 603.558594 1177.066406 602.542969 1178.328125 601.585938 C 1179.585938 600.628906 1180.890625 599.734375 1182.234375 598.902344 C 1183.578125 598.070312 1184.960938 597.304688 1186.378906 596.605469 C 1187.796875 595.902344 1189.246094 595.273438 1190.726562 594.710938 C 1192.207031 594.152344 1193.707031 593.660156 1195.234375 593.242188 C 1196.757812 592.828125 1198.300781 592.484375 1199.859375 592.214844 C 1201.417969 591.945312 1202.988281 591.75 1204.566406 591.628906 C 1206.140625 591.511719 1207.722656 591.464844 1209.304688 591.496094 C 1210.882812 591.53125 1212.460938 591.636719 1214.03125 591.820312 C 1215.605469 592 1217.164062 592.257812 1218.710938 592.589844 C 1220.257812 592.921875 1221.785156 593.328125 1223.292969 593.804688 C 1224.800781 594.285156 1226.28125 594.832031 1227.734375 595.453125 C 1229.191406 596.074219 1230.613281 596.761719 1232.003906 597.519531 C 1233.390625 598.273438 1234.742188 599.097656 1236.054688 599.980469 C 1237.363281 600.867188 1238.628906 601.8125 1239.847656 602.820312 C 1241.070312 603.828125 1242.238281 604.890625 1243.355469 606.007812 C 1244.476562 607.128906 1245.539062 608.296875 1246.542969 609.515625 C 1247.550781 610.738281 1248.496094 612.003906 1249.382812 613.316406 C 1250.265625 614.625 1251.085938 615.976562 1251.84375 617.367188 C 1252.597656 618.753906 1253.285156 620.179688 1253.90625 621.632812 C 1254.527344 623.089844 1255.074219 624.570312 1255.550781 626.078125 C 1256.03125 627.585938 1256.433594 629.113281 1256.765625 630.660156 C 1257.097656 632.207031 1257.355469 633.765625 1257.535156 635.339844 C 1257.71875 636.910156 1257.824219 638.484375 1257.855469 640.066406 C 1257.886719 641.648438 1257.84375 643.230469 1257.722656 644.804688 C 1257.601562 646.382812 1257.40625 647.953125 1257.136719 649.511719 C 1256.867188 651.070312 1256.523438 652.609375 1256.105469 654.136719 C 1255.6875 655.664062 1255.199219 657.164062 1254.636719 658.644531 C 1254.074219 660.121094 1253.441406 661.570312 1252.742188 662.988281 C 1252.042969 664.40625 1251.277344 665.789062 1250.441406 667.132812 C 1249.609375 668.480469 1248.714844 669.78125 1247.757812 671.039062 C 1246.800781 672.300781 1245.785156 673.511719 1244.710938 674.671875 Z M 1244.664062 674.695312 " fill-opacity="1" fill-rule="nonzero"/></svg>