<svg xmlns="http://www.w3.org/2000/svg" xmlns:xlink="http://www.w3.org/1999/xlink" width="2000" zoomAndPan="magnify" viewBox="0 0 1500 1499.999933" height="2000" preserveAspectRatio="xMidYMid meet" version="1.0"><path fill="#a3a3a4" d="M 1305 619.125 L 1255.125 619.125 C 1249.5 619.125 1244.25 615 1242.375 609 C 1231.5 571.125 1216.5 534.75 1197.75 501 C 1194.75 495.75 1195.875 489 1199.625 485.25 L 1235.25 449.625 C 1252.5 432 1252.5 403.875 1235.25 386.625 L 1113.375 264.75 C 1101.75 253.5 1089.75 250.875 1081.5 250.875 C 1073.25 250.875 1061.25 253.5 1049.625 264.75 L 1014.375 300.375 C 1010.625 304.125 1003.875 304.875 998.625 301.875 C 965.25 283.125 928.875 268.125 890.25 256.875 C 884.625 255.375 880.875 250.5 880.875 244.5 L 880.875 194.625 C 880.875 169.875 860.625 150 835.875 150 L 663.375 150 C 639 150 619.125 169.875 619.125 194.625 L 619.125 244.5 C 619.125 250.125 614.625 255.375 609 256.875 C 571.125 267.75 534.75 282.75 500.625 301.875 C 495.375 304.875 488.625 304.125 484.875 300.375 L 451.875 267.375 C 435.375 247.875 398.25 250.5 386.625 264.75 L 267 384.75 C 256.875 393 251.25 405 251.25 418.125 C 251.25 430.875 256.875 443.25 264.75 449.625 L 299.625 484.875 C 303.75 489 304.5 495.75 301.5 501 C 282.75 534.75 267.75 571.125 256.5 609.375 C 255 615 250.125 619.125 244.5 619.125 L 194.25 619.125 C 169.875 619.125 150 639.375 150 663.75 L 150 836.25 C 150 861 169.875 880.875 194.25 880.875 L 244.5 880.875 C 249.75 880.875 255 885 256.875 890.625 C 267.75 928.875 282.75 965.625 301.5 999 C 304.5 1004.625 304.125 1010.625 300 1014.75 L 264.375 1050.375 C 246.75 1068 246.75 1095.75 264.75 1113.375 L 384.75 1233.375 C 393 1243.125 405.375 1248.75 418.125 1248.75 C 430.875 1248.75 442.875 1243.125 449.625 1235.25 L 484.875 1200 C 489 1195.875 495.75 1195.125 500.625 1198.125 C 536.25 1217.625 573 1233 608.625 1242.75 C 614.625 1244.625 619.125 1249.875 619.125 1255.5 L 619.125 1305.75 C 619.125 1330.125 639 1350 663.375 1350 L 835.875 1350 C 860.625 1350 880.875 1330.125 880.875 1305.75 L 880.875 1255.5 C 880.875 1249.875 885 1244.625 890.25 1242.75 C 927 1232.625 963.375 1217.625 998.25 1198.125 C 1003.5 1195.125 1010.25 1195.875 1014.375 1200 L 1051.875 1237.5 C 1069.125 1252.125 1093.875 1252.125 1113 1235.25 L 1237.125 1111.125 C 1251.75 1094.25 1251.75 1069.5 1235.25 1050 L 1199.625 1014.75 C 1195.5 1010.625 1194.75 1004.25 1197.75 999 C 1216.5 965.25 1231.5 928.875 1242.375 891 C 1244.25 885.375 1249.5 880.875 1255.125 880.875 L 1305 880.875 C 1329.75 880.875 1350 861 1350 836.25 L 1350 663.75 C 1350 639.375 1329.75 619.125 1305 619.125 Z M 912 974.625 C 865.5 1008 811.5 1026 755.25 1027.125 L 749.625 1027.125 C 636.75 1027.125 532.875 956.625 491.625 851.625 C 449.25 743.25 479.625 618.375 567.375 541.125 C 654 464.625 784.875 451.5 885.75 508.5 C 1001.25 573.375 1055.25 717 1011.375 842.625 C 992.625 895.5 958.5 940.875 912 974.625 Z M 912 974.625 " fill-opacity="1" fill-rule="nonzero"/></svg>