<svg xmlns="http://www.w3.org/2000/svg" xmlns:xlink="http://www.w3.org/1999/xlink" width="2000" zoomAndPan="magnify" viewBox="0 0 1500 1499.999933" height="2000" preserveAspectRatio="xMidYMid meet" version="1.0"><defs><g/><clipPath id="d5d7a5a91a"><rect x="0" width="1303" y="0" height="1341"/></clipPath></defs><g transform="matrix(1, 0, 0, 1, 98, 159)"><g clip-path="url(#d5d7a5a91a)"><g fill="#a3a3a4" fill-opacity="1"><g transform="translate(3.746096, 1139.937852)"><g><path d="M 572.90625 16.75 C 491.75 16.75 418.410156 2.234375 352.890625 -26.796875 C 287.378906 -55.835938 231.171875 -95.859375 184.265625 -146.859375 C 137.359375 -197.859375 101.4375 -256.859375 76.5 -323.859375 C 51.5625 -390.867188 39.09375 -462.710938 39.09375 -539.390625 C 39.09375 -616.078125 51.5625 -687.921875 76.5 -754.921875 C 101.4375 -821.929688 137.359375 -880.9375 184.265625 -931.9375 C 231.171875 -982.9375 287.378906 -1022.769531 352.890625 -1051.4375 C 418.410156 -1080.101562 491.75 -1094.4375 572.90625 -1094.4375 C 652.5625 -1094.4375 725.890625 -1083.265625 792.890625 -1060.921875 C 859.898438 -1038.585938 915 -1003.597656 958.1875 -955.953125 C 948.507812 -932.867188 939.390625 -909.039062 930.828125 -884.46875 C 922.265625 -859.90625 914.628906 -837.203125 907.921875 -816.359375 C 901.222656 -795.515625 895.828125 -778.578125 891.734375 -765.546875 C 887.640625 -752.515625 885.59375 -746 885.59375 -746 C 885.59375 -746 880.566406 -752.882812 870.515625 -766.65625 C 860.460938 -780.425781 844.453125 -796.0625 822.484375 -813.5625 C 800.523438 -831.0625 772.421875 -846.695312 738.171875 -860.46875 C 703.929688 -874.238281 662.613281 -881.125 614.21875 -881.125 C 556.894531 -881.125 503.660156 -868.46875 454.515625 -843.15625 C 405.378906 -817.84375 365.734375 -779.875 335.578125 -729.25 C 305.429688 -678.625 290.359375 -614.96875 290.359375 -538.28125 C 290.359375 -505.519531 293.335938 -475.179688 299.296875 -447.265625 C 305.253906 -419.347656 313.816406 -393.847656 324.984375 -370.765625 C 321.253906 -433.304688 331.300781 -489.703125 355.125 -539.953125 C 378.957031 -590.210938 413.394531 -630.226562 458.4375 -660 C 503.476562 -689.78125 555.40625 -704.671875 614.21875 -704.671875 C 637.300781 -704.671875 660.195312 -701.878906 682.90625 -696.296875 C 705.613281 -690.710938 725.710938 -683.082031 743.203125 -673.40625 C 760.703125 -663.726562 772.429688 -653.304688 778.390625 -642.140625 L 778.390625 -395.328125 C 756.046875 -414.691406 724.769531 -432.191406 684.5625 -447.828125 C 644.363281 -463.460938 602.304688 -471.28125 558.390625 -471.28125 C 513.710938 -471.28125 473.503906 -465.507812 437.765625 -453.96875 C 402.035156 -442.425781 376.535156 -424.925781 361.265625 -401.46875 C 346.003906 -378.019531 346.191406 -348.054688 361.828125 -311.578125 C 392.359375 -273.609375 429.582031 -245.128906 473.5 -226.140625 C 517.425781 -207.160156 564.332031 -197.671875 614.21875 -197.671875 C 662.613281 -197.671875 703.929688 -204.554688 738.171875 -218.328125 C 772.421875 -232.097656 800.523438 -247.726562 822.484375 -265.21875 C 844.453125 -282.71875 860.460938 -298.351562 870.515625 -312.125 C 880.566406 -325.90625 885.59375 -332.796875 885.59375 -332.796875 C 885.59375 -332.796875 887.640625 -326.28125 891.734375 -313.25 C 895.828125 -300.21875 901.222656 -283.28125 907.921875 -262.4375 C 914.628906 -241.59375 922.265625 -218.882812 930.828125 -194.3125 C 939.390625 -169.75 948.507812 -145.925781 958.1875 -122.84375 C 915 -75.195312 859.898438 -40.019531 792.890625 -17.3125 C 725.890625 5.394531 652.5625 16.75 572.90625 16.75 Z M 572.90625 16.75 "/></g></g></g><g fill="#a3a3a4" fill-opacity="1"><g transform="translate(961.901478, 1139.937852)"><g><path d="M 55.84375 -97.15625 C 55.84375 -128.425781 67.007812 -155.226562 89.34375 -177.5625 C 111.675781 -199.894531 138.476562 -211.0625 169.75 -211.0625 C 201.019531 -211.0625 227.820312 -199.894531 250.15625 -177.5625 C 272.488281 -155.226562 283.65625 -128.425781 283.65625 -97.15625 C 283.65625 -65.882812 272.488281 -39.082031 250.15625 -16.75 C 227.820312 5.582031 201.019531 16.75 169.75 16.75 C 138.476562 16.75 111.675781 5.582031 89.34375 -16.75 C 67.007812 -39.082031 55.84375 -65.882812 55.84375 -97.15625 Z M 55.84375 -97.15625 "/></g></g></g></g></g></svg>