<svg xmlns="http://www.w3.org/2000/svg" xmlns:xlink="http://www.w3.org/1999/xlink" width="1500" zoomAndPan="magnify" viewBox="0 0 1125 286.499991" height="382" preserveAspectRatio="xMidYMid meet" version="1.0"><path fill="#000000" d="M 369.464844 78.90625 L 369.464844 84.59375 L 354.847656 84.59375 L 354.847656 132.511719 L 347.847656 132.511719 L 347.847656 84.59375 L 333.160156 84.59375 L 333.160156 78.90625 Z M 369.464844 78.90625 " fill-opacity="1" fill-rule="nonzero"/><path fill="#000000" d="M 398.992188 89.59375 C 402.175781 89.59375 405.042969 90.273438 407.605469 91.632812 C 410.171875 92.996094 412.183594 95.035156 413.648438 97.75 C 415.113281 100.46875 415.847656 103.773438 415.847656 107.664062 L 415.847656 132.511719 L 408.917969 132.511719 L 408.917969 108.671875 C 408.917969 104.464844 407.867188 101.246094 405.769531 99.015625 C 403.667969 96.785156 400.796875 95.667969 397.15625 95.667969 C 393.460938 95.667969 390.523438 96.824219 388.339844 99.136719 C 386.164062 101.445312 385.078125 104.800781 385.078125 109.207031 L 385.078125 132.511719 L 378.078125 132.511719 L 378.078125 75.59375 L 385.078125 75.59375 L 385.078125 96.367188 C 386.457031 94.210938 388.367188 92.546875 390.804688 91.367188 C 393.238281 90.183594 395.96875 89.59375 398.992188 89.59375 Z M 398.992188 89.59375 " fill-opacity="1" fill-rule="nonzero"/><path fill="#000000" d="M 465.761719 109.820312 C 465.761719 111.15625 465.683594 112.566406 465.535156 114.050781 L 431.839844 114.050781 C 432.097656 118.203125 433.523438 121.445312 436.109375 123.777344 C 438.699219 126.113281 441.839844 127.277344 445.53125 127.277344 C 448.554688 127.277344 451.078125 126.574219 453.105469 125.164062 C 455.128906 123.757812 456.554688 121.875 457.375 119.519531 L 464.917969 119.519531 C 463.789062 123.570312 461.53125 126.867188 458.144531 129.402344 C 454.761719 131.9375 450.558594 133.199219 445.53125 133.199219 C 441.535156 133.199219 437.960938 132.304688 434.804688 130.511719 C 431.648438 128.722656 429.171875 126.171875 427.375 122.867188 C 425.582031 119.554688 424.6875 115.71875 424.6875 111.359375 C 424.6875 107.003906 425.558594 103.1875 427.304688 99.90625 C 429.046875 96.621094 431.496094 94.097656 434.652344 92.332031 C 437.804688 90.5625 441.429688 89.675781 445.53125 89.675781 C 449.535156 89.675781 453.070312 90.546875 456.144531 92.292969 C 459.222656 94.03125 461.59375 96.425781 463.253906 99.476562 C 464.921875 102.527344 465.761719 105.976562 465.761719 109.820312 Z M 458.535156 108.363281 C 458.535156 105.695312 457.941406 103.402344 456.757812 101.476562 C 455.582031 99.554688 453.980469 98.09375 451.957031 97.09375 C 449.929688 96.097656 447.6875 95.597656 445.222656 95.597656 C 441.683594 95.597656 438.667969 96.726562 436.179688 98.984375 C 433.695312 101.234375 432.277344 104.359375 431.921875 108.363281 Z M 458.535156 108.363281 " fill-opacity="1" fill-rule="nonzero"/><path fill="#000000" d="M 495.527344 78.90625 L 502.527344 78.90625 L 502.527344 132.511719 L 495.527344 132.511719 Z M 495.527344 78.90625 " fill-opacity="1" fill-rule="nonzero"/><path fill="#000000" d="M 534.984375 89.59375 C 540.109375 89.59375 544.261719 91.148438 547.445312 94.25 C 550.625 97.351562 552.21875 101.824219 552.21875 107.664062 L 552.21875 132.511719 L 545.289062 132.511719 L 545.289062 108.671875 C 545.289062 104.464844 544.238281 101.246094 542.136719 99.015625 C 540.035156 96.785156 537.164062 95.667969 533.527344 95.667969 C 529.832031 95.667969 526.890625 96.824219 524.710938 99.136719 C 522.535156 101.445312 521.449219 104.800781 521.449219 109.207031 L 521.449219 132.511719 L 514.449219 132.511719 L 514.449219 90.363281 L 521.449219 90.363281 L 521.449219 96.367188 C 522.828125 94.210938 524.710938 92.546875 527.09375 91.367188 C 529.480469 90.183594 532.109375 89.59375 534.984375 89.59375 Z M 534.984375 89.59375 " fill-opacity="1" fill-rule="nonzero"/><path fill="#000000" d="M 578.597656 133.199219 C 575.367188 133.199219 572.46875 132.648438 569.902344 131.546875 C 567.335938 130.449219 565.3125 128.910156 563.828125 126.941406 C 562.34375 124.964844 561.519531 122.691406 561.363281 120.125 L 568.601562 120.125 C 568.804688 122.234375 569.789062 123.953125 571.554688 125.289062 C 573.328125 126.617188 575.644531 127.277344 578.515625 127.277344 C 581.183594 127.277344 583.285156 126.691406 584.828125 125.511719 C 586.367188 124.339844 587.136719 122.851562 587.136719 121.050781 C 587.136719 119.210938 586.316406 117.839844 584.671875 116.945312 C 583.03125 116.039062 580.488281 115.15625 577.058594 114.285156 C 573.929688 113.464844 571.375 112.632812 569.402344 111.792969 C 567.429688 110.945312 565.738281 109.6875 564.332031 108.023438 C 562.917969 106.355469 562.214844 104.160156 562.214844 101.4375 C 562.214844 99.289062 562.855469 97.316406 564.136719 95.523438 C 565.414062 93.726562 567.234375 92.300781 569.59375 91.253906 C 571.957031 90.203125 574.648438 89.675781 577.671875 89.675781 C 582.335938 89.675781 586.105469 90.855469 588.972656 93.214844 C 591.847656 95.570312 593.386719 98.796875 593.589844 102.902344 L 586.589844 102.902344 C 586.441406 100.703125 585.558594 98.929688 583.945312 97.597656 C 582.328125 96.261719 580.160156 95.597656 577.4375 95.597656 C 574.925781 95.597656 572.925781 96.136719 571.441406 97.21875 C 569.957031 98.292969 569.214844 99.699219 569.214844 101.4375 C 569.214844 102.828125 569.664062 103.96875 570.558594 104.863281 C 571.457031 105.761719 572.582031 106.480469 573.9375 107.019531 C 575.296875 107.554688 577.183594 108.15625 579.59375 108.824219 C 582.613281 109.648438 585.074219 110.453125 586.972656 111.246094 C 588.871094 112.042969 590.503906 113.234375 591.855469 114.828125 C 593.214844 116.417969 593.925781 118.492188 593.980469 121.050781 C 593.980469 123.363281 593.335938 125.441406 592.050781 127.289062 C 590.769531 129.132812 588.964844 130.578125 586.632812 131.628906 C 584.296875 132.675781 581.621094 133.199219 578.597656 133.199219 Z M 578.597656 133.199219 " fill-opacity="1" fill-rule="nonzero"/><path fill="#000000" d="M 612.363281 96.128906 L 612.363281 120.976562 C 612.363281 123.03125 612.796875 124.480469 613.664062 125.328125 C 614.539062 126.171875 616.050781 126.589844 618.203125 126.589844 L 623.363281 126.589844 L 623.363281 132.511719 L 617.054688 132.511719 C 613.152344 132.511719 610.226562 131.617188 608.277344 129.824219 C 606.332031 128.027344 605.363281 125.078125 605.363281 120.976562 L 605.363281 96.128906 L 599.902344 96.128906 L 599.902344 90.363281 L 605.363281 90.363281 L 605.363281 79.75 L 612.363281 79.75 L 612.363281 90.363281 L 623.363281 90.363281 L 623.363281 96.128906 Z M 612.363281 96.128906 " fill-opacity="1" fill-rule="nonzero"/><path fill="#000000" d="M 635.433594 83.515625 C 634.097656 83.515625 632.96875 83.058594 632.046875 82.140625 C 631.128906 81.21875 630.671875 80.089844 630.671875 78.753906 C 630.671875 77.417969 631.128906 76.289062 632.046875 75.367188 C 632.96875 74.441406 634.097656 73.980469 635.433594 73.980469 C 636.71875 73.980469 637.808594 74.441406 638.707031 75.367188 C 639.601562 76.289062 640.050781 77.417969 640.050781 78.753906 C 640.050781 80.089844 639.601562 81.21875 638.707031 82.140625 C 637.808594 83.058594 636.71875 83.515625 635.433594 83.515625 Z M 638.820312 90.363281 L 638.820312 132.511719 L 631.820312 132.511719 L 631.820312 90.363281 Z M 638.820312 90.363281 " fill-opacity="1" fill-rule="nonzero"/><path fill="#000000" d="M 659.28125 96.128906 L 659.28125 120.976562 C 659.28125 123.03125 659.714844 124.480469 660.585938 125.328125 C 661.460938 126.171875 662.96875 126.589844 665.121094 126.589844 L 670.28125 126.589844 L 670.28125 132.511719 L 663.972656 132.511719 C 660.070312 132.511719 657.144531 131.617188 655.195312 129.824219 C 653.25 128.027344 652.28125 125.078125 652.28125 120.976562 L 652.28125 96.128906 L 646.820312 96.128906 L 646.820312 90.363281 L 652.28125 90.363281 L 652.28125 79.75 L 659.28125 79.75 L 659.28125 90.363281 L 670.28125 90.363281 L 670.28125 96.128906 Z M 659.28125 96.128906 " fill-opacity="1" fill-rule="nonzero"/><path fill="#000000" d="M 716.117188 90.363281 L 716.117188 132.511719 L 709.117188 132.511719 L 709.117188 126.285156 C 707.785156 128.4375 705.921875 130.121094 703.535156 131.324219 C 701.152344 132.527344 698.527344 133.128906 695.664062 133.128906 C 692.378906 133.128906 689.429688 132.453125 686.816406 131.097656 C 684.203125 129.738281 682.136719 127.695312 680.628906 124.980469 C 679.113281 122.257812 678.359375 118.949219 678.359375 115.054688 L 678.359375 90.363281 L 685.277344 90.363281 L 685.277344 114.132812 C 685.277344 118.285156 686.324219 121.476562 688.425781 123.707031 C 690.535156 125.941406 693.40625 127.054688 697.046875 127.054688 C 700.789062 127.054688 703.734375 125.902344 705.886719 123.59375 C 708.039062 121.28125 709.117188 117.925781 709.117188 113.515625 L 709.117188 90.363281 Z M 716.117188 90.363281 " fill-opacity="1" fill-rule="nonzero"/><path fill="#000000" d="M 736.503906 96.128906 L 736.503906 120.976562 C 736.503906 123.03125 736.9375 124.480469 737.808594 125.328125 C 738.683594 126.171875 740.191406 126.589844 742.34375 126.589844 L 747.507812 126.589844 L 747.507812 132.511719 L 741.195312 132.511719 C 737.292969 132.511719 734.367188 131.617188 732.417969 129.824219 C 730.472656 128.027344 729.503906 125.078125 729.503906 120.976562 L 729.503906 96.128906 L 724.042969 96.128906 L 724.042969 90.363281 L 729.503906 90.363281 L 729.503906 79.75 L 736.503906 79.75 L 736.503906 90.363281 L 747.507812 90.363281 L 747.507812 96.128906 Z M 736.503906 96.128906 " fill-opacity="1" fill-rule="nonzero"/><path fill="#000000" d="M 794.417969 109.820312 C 794.417969 111.15625 794.339844 112.566406 794.191406 114.050781 L 760.496094 114.050781 C 760.757812 118.203125 762.179688 121.445312 764.769531 123.777344 C 767.359375 126.113281 770.5 127.277344 774.1875 127.277344 C 777.210938 127.277344 779.738281 126.574219 781.765625 125.164062 C 783.789062 123.757812 785.210938 121.875 786.035156 119.519531 L 793.578125 119.519531 C 792.449219 123.570312 790.191406 126.867188 786.804688 129.402344 C 783.421875 131.9375 779.21875 133.199219 774.1875 133.199219 C 770.191406 133.199219 766.617188 132.304688 763.464844 130.511719 C 760.308594 128.722656 757.832031 126.171875 756.035156 122.867188 C 754.238281 119.554688 753.34375 115.71875 753.34375 111.359375 C 753.34375 107.003906 754.21875 103.1875 755.960938 99.90625 C 757.707031 96.621094 760.152344 94.097656 763.308594 92.332031 C 766.464844 90.5625 770.089844 89.675781 774.1875 89.675781 C 778.191406 89.675781 781.726562 90.546875 784.800781 92.292969 C 787.878906 94.03125 790.25 96.425781 791.914062 99.476562 C 793.582031 102.527344 794.417969 105.976562 794.417969 109.820312 Z M 787.191406 108.363281 C 787.191406 105.695312 786.601562 103.402344 785.417969 101.476562 C 784.238281 99.554688 782.636719 98.09375 780.613281 97.09375 C 778.585938 96.097656 776.34375 95.597656 773.882812 95.597656 C 770.34375 95.597656 767.328125 96.726562 764.839844 98.984375 C 762.355469 101.234375 760.933594 104.359375 760.582031 108.363281 Z M 787.191406 108.363281 " fill-opacity="1" fill-rule="nonzero"/><path fill="#000000" d="M 831.183594 98.214844 C 832.621094 95.695312 834.71875 93.644531 837.488281 92.054688 C 840.257812 90.46875 843.410156 89.675781 846.949219 89.675781 C 850.746094 89.675781 854.15625 90.570312 857.183594 92.363281 C 860.203125 94.15625 862.589844 96.679688 864.335938 99.9375 C 866.082031 103.195312 866.953125 106.976562 866.953125 111.289062 C 866.953125 115.546875 866.082031 119.339844 864.335938 122.671875 C 862.589844 126.003906 860.191406 128.59375 857.140625 130.441406 C 854.085938 132.28125 850.691406 133.199219 846.949219 133.199219 C 843.308594 133.199219 840.117188 132.40625 837.375 130.820312 C 834.628906 129.234375 832.566406 127.207031 831.183594 124.742188 L 831.183594 132.511719 L 824.183594 132.511719 L 824.183594 75.59375 L 831.183594 75.59375 Z M 859.800781 111.289062 C 859.800781 108.105469 859.15625 105.339844 857.871094 102.984375 C 856.589844 100.625 854.855469 98.828125 852.675781 97.597656 C 850.5 96.367188 848.105469 95.75 845.492188 95.75 C 842.925781 95.75 840.550781 96.382812 838.371094 97.636719 C 836.195312 98.890625 834.453125 100.710938 833.144531 103.097656 C 831.835938 105.480469 831.183594 108.234375 831.183594 111.359375 C 831.183594 114.542969 831.835938 117.328125 833.144531 119.714844 C 834.453125 122.097656 836.195312 123.917969 838.371094 125.175781 C 840.550781 126.425781 842.925781 127.054688 845.492188 127.054688 C 848.105469 127.054688 850.5 126.425781 852.675781 125.175781 C 854.855469 123.917969 856.589844 122.097656 857.871094 119.714844 C 859.15625 117.328125 859.800781 114.519531 859.800781 111.289062 Z M 859.800781 111.289062 " fill-opacity="1" fill-rule="nonzero"/><path fill="#000000" d="M 912.480469 90.363281 L 887.101562 152.351562 L 879.875 152.351562 L 888.179688 132.050781 L 871.183594 90.363281 L 878.949219 90.363281 L 892.179688 124.519531 L 905.257812 90.363281 Z M 912.480469 90.363281 " fill-opacity="1" fill-rule="nonzero"/><path fill="#000000" d="M 333.847656 187.464844 C 333.847656 182.230469 335.03125 177.527344 337.390625 173.351562 C 339.75 169.171875 342.964844 165.902344 347.039062 163.539062 C 351.113281 161.179688 355.640625 160 360.617188 160 C 366.457031 160 371.558594 161.414062 375.917969 164.238281 C 380.273438 167.058594 383.457031 171.054688 385.464844 176.226562 L 377.078125 176.226562 C 375.59375 173 373.449219 170.515625 370.652344 168.773438 C 367.863281 167.03125 364.515625 166.15625 360.617188 166.15625 C 356.871094 166.15625 353.515625 167.03125 350.539062 168.773438 C 347.566406 170.515625 345.234375 172.988281 343.539062 176.195312 C 341.847656 179.398438 341.003906 183.152344 341.003906 187.464844 C 341.003906 191.722656 341.847656 195.449219 343.539062 198.652344 C 345.234375 201.855469 347.566406 204.328125 350.539062 206.070312 C 353.515625 207.816406 356.871094 208.6875 360.617188 208.6875 C 364.515625 208.6875 367.863281 207.832031 370.652344 206.113281 C 373.449219 204.394531 375.59375 201.921875 377.078125 198.691406 L 385.464844 198.691406 C 383.457031 203.820312 380.273438 207.78125 375.917969 210.578125 C 371.558594 213.367188 366.457031 214.765625 360.617188 214.765625 C 355.640625 214.765625 351.113281 213.601562 347.039062 211.265625 C 342.964844 208.933594 339.75 205.691406 337.390625 201.535156 C 335.03125 197.382812 333.847656 192.695312 333.847656 187.464844 Z M 333.847656 187.464844 " fill-opacity="1" fill-rule="nonzero"/><path fill="#000000" d="M 414.226562 214.992188 C 410.277344 214.992188 406.699219 214.09375 403.492188 212.300781 C 400.289062 210.511719 397.777344 207.960938 395.957031 204.65625 C 394.136719 201.34375 393.226562 197.507812 393.226562 193.148438 C 393.226562 188.847656 394.160156 185.042969 396.03125 181.738281 C 397.902344 178.425781 400.457031 175.886719 403.6875 174.121094 C 406.921875 172.351562 410.535156 171.464844 414.535156 171.464844 C 418.535156 171.464844 422.152344 172.351562 425.382812 174.121094 C 428.609375 175.886719 431.160156 178.410156 433.027344 181.695312 C 434.902344 184.976562 435.839844 188.792969 435.839844 193.148438 C 435.839844 197.507812 434.878906 201.34375 432.957031 204.65625 C 431.03125 207.960938 428.429688 210.511719 425.148438 212.300781 C 421.867188 214.09375 418.230469 214.992188 414.226562 214.992188 Z M 414.226562 208.84375 C 416.734375 208.84375 419.09375 208.253906 421.296875 207.078125 C 423.507812 205.894531 425.289062 204.125 426.644531 201.769531 C 428.003906 199.410156 428.6875 196.539062 428.6875 193.148438 C 428.6875 189.769531 428.019531 186.898438 426.6875 184.539062 C 425.351562 182.179688 423.605469 180.421875 421.453125 179.273438 C 419.300781 178.121094 416.972656 177.539062 414.460938 177.539062 C 411.898438 177.539062 409.550781 178.121094 407.421875 179.273438 C 405.292969 180.421875 403.585938 182.179688 402.300781 184.539062 C 401.019531 186.898438 400.382812 189.769531 400.382812 193.148438 C 400.382812 196.585938 401.007812 199.484375 402.257812 201.84375 C 403.515625 204.203125 405.199219 205.964844 407.296875 207.117188 C 409.40625 208.269531 411.714844 208.84375 414.226562 208.84375 Z M 414.226562 208.84375 " fill-opacity="1" fill-rule="nonzero"/><path fill="#000000" d="M 442.453125 193.078125 C 442.453125 188.769531 443.324219 184.984375 445.070312 181.726562 C 446.816406 178.472656 449.210938 175.945312 452.265625 174.152344 C 455.316406 172.363281 458.734375 171.464844 462.527344 171.464844 C 465.8125 171.464844 468.863281 172.222656 471.683594 173.730469 C 474.5 175.246094 476.652344 177.230469 478.140625 179.695312 L 478.140625 157.382812 L 485.21875 157.382812 L 485.21875 214.304688 L 478.140625 214.304688 L 478.140625 206.378906 C 476.757812 208.890625 474.707031 210.953125 471.992188 212.570312 C 469.273438 214.183594 466.09375 214.992188 462.457031 214.992188 C 458.714844 214.992188 455.316406 214.070312 452.265625 212.230469 C 449.210938 210.382812 446.816406 207.792969 445.070312 204.460938 C 443.324219 201.128906 442.453125 197.335938 442.453125 193.078125 Z M 478.140625 193.148438 C 478.140625 189.976562 477.496094 187.207031 476.21875 184.847656 C 474.9375 182.488281 473.207031 180.679688 471.027344 179.429688 C 468.851562 178.171875 466.453125 177.539062 463.84375 177.539062 C 461.21875 177.539062 458.832031 178.15625 456.679688 179.386719 C 454.527344 180.617188 452.8125 182.414062 451.527344 184.773438 C 450.246094 187.128906 449.605469 189.898438 449.605469 193.078125 C 449.605469 196.308594 450.246094 199.117188 451.527344 201.503906 C 452.8125 203.886719 454.527344 205.707031 456.679688 206.964844 C 458.832031 208.21875 461.21875 208.84375 463.84375 208.84375 C 466.453125 208.84375 468.851562 208.21875 471.027344 206.964844 C 473.207031 205.707031 474.9375 203.886719 476.21875 201.503906 C 477.496094 199.117188 478.140625 196.332031 478.140625 193.148438 Z M 478.140625 193.148438 " fill-opacity="1" fill-rule="nonzero"/><path fill="#000000" d="M 535.523438 191.609375 C 535.523438 192.945312 535.445312 194.355469 535.296875 195.839844 L 501.601562 195.839844 C 501.859375 199.992188 503.285156 203.238281 505.871094 205.570312 C 508.460938 207.902344 511.601562 209.070312 515.292969 209.070312 C 518.316406 209.070312 520.839844 208.367188 522.867188 206.953125 C 524.890625 205.546875 526.316406 203.664062 527.136719 201.308594 L 534.679688 201.308594 C 533.550781 205.359375 531.292969 208.65625 527.90625 211.191406 C 524.523438 213.726562 520.320312 214.992188 515.292969 214.992188 C 511.296875 214.992188 507.722656 214.09375 504.566406 212.300781 C 501.410156 210.511719 498.9375 207.960938 497.136719 204.65625 C 495.34375 201.34375 494.449219 197.507812 494.449219 193.148438 C 494.449219 188.792969 495.320312 184.976562 497.066406 181.695312 C 498.808594 178.410156 501.257812 175.886719 504.414062 174.121094 C 507.566406 172.351562 511.191406 171.464844 515.292969 171.464844 C 519.296875 171.464844 522.832031 172.335938 525.90625 174.082031 C 528.984375 175.820312 531.355469 178.214844 533.019531 181.265625 C 534.683594 184.320312 535.523438 187.765625 535.523438 191.609375 Z M 528.296875 190.152344 C 528.296875 187.484375 527.703125 185.191406 526.519531 183.265625 C 525.34375 181.34375 523.742188 179.886719 521.71875 178.882812 C 519.691406 177.886719 517.449219 177.386719 514.984375 177.386719 C 511.445312 177.386719 508.433594 178.515625 505.941406 180.773438 C 503.460938 183.027344 502.039062 186.152344 501.683594 190.152344 Z M 528.296875 190.152344 " fill-opacity="1" fill-rule="nonzero"/><path fill="#000000" d="M 595.441406 171.382812 C 598.71875 171.382812 601.640625 172.0625 604.207031 173.425781 C 606.773438 174.785156 608.796875 176.828125 610.285156 179.542969 C 611.765625 182.257812 612.511719 185.5625 612.511719 189.457031 L 612.511719 214.304688 L 605.59375 214.304688 L 605.59375 190.460938 C 605.59375 186.253906 604.550781 183.035156 602.472656 180.804688 C 600.402344 178.574219 597.59375 177.457031 594.058594 177.457031 C 590.417969 177.457031 587.519531 178.625 585.363281 180.957031 C 583.210938 183.292969 582.132812 186.664062 582.132812 191.078125 L 582.132812 214.304688 L 575.214844 214.304688 L 575.214844 190.460938 C 575.214844 186.253906 574.171875 183.035156 572.09375 180.804688 C 570.019531 178.574219 567.214844 177.457031 563.679688 177.457031 C 560.03125 177.457031 557.128906 178.625 554.976562 180.957031 C 552.824219 183.292969 551.753906 186.664062 551.753906 191.078125 L 551.753906 214.304688 L 544.753906 214.304688 L 544.753906 172.152344 L 551.753906 172.152344 L 551.753906 178.226562 C 553.132812 176.027344 554.992188 174.335938 557.324219 173.15625 C 559.65625 171.972656 562.234375 171.382812 565.054688 171.382812 C 568.597656 171.382812 571.726562 172.179688 574.445312 173.773438 C 577.160156 175.359375 579.1875 177.695312 580.519531 180.773438 C 581.695312 177.796875 583.644531 175.488281 586.359375 173.84375 C 589.074219 172.203125 592.101562 171.382812 595.441406 171.382812 Z M 595.441406 171.382812 " fill-opacity="1" fill-rule="nonzero"/><path fill="#000000" d="M 642.355469 214.992188 C 638.40625 214.992188 634.828125 214.09375 631.621094 212.300781 C 628.417969 210.511719 625.90625 207.960938 624.089844 204.65625 C 622.265625 201.34375 621.359375 197.507812 621.359375 193.148438 C 621.359375 188.847656 622.292969 185.042969 624.160156 181.738281 C 626.03125 178.425781 628.585938 175.886719 631.816406 174.121094 C 635.050781 172.351562 638.667969 171.464844 642.664062 171.464844 C 646.667969 171.464844 650.28125 172.351562 653.511719 174.121094 C 656.742188 175.886719 659.292969 178.410156 661.160156 181.695312 C 663.03125 184.976562 663.972656 188.792969 663.972656 193.148438 C 663.972656 197.507812 663.007812 201.34375 661.085938 204.65625 C 659.164062 207.960938 656.5625 210.511719 653.277344 212.300781 C 649.996094 214.09375 646.359375 214.992188 642.355469 214.992188 Z M 642.355469 208.84375 C 644.867188 208.84375 647.222656 208.253906 649.429688 207.078125 C 651.636719 205.894531 653.421875 204.125 654.777344 201.769531 C 656.136719 199.410156 656.816406 196.539062 656.816406 193.148438 C 656.816406 189.769531 656.152344 186.898438 654.816406 184.539062 C 653.480469 182.179688 651.738281 180.421875 649.582031 179.273438 C 647.433594 178.121094 645.101562 177.539062 642.59375 177.539062 C 640.027344 177.539062 637.679688 178.121094 635.550781 179.273438 C 633.421875 180.421875 631.714844 182.179688 630.429688 184.539062 C 629.152344 186.898438 628.511719 189.769531 628.511719 193.148438 C 628.511719 196.585938 629.136719 199.484375 630.390625 201.84375 C 631.648438 204.203125 633.328125 205.964844 635.429688 207.117188 C 637.535156 208.269531 639.84375 208.84375 642.355469 208.84375 Z M 642.355469 208.84375 " fill-opacity="1" fill-rule="nonzero"/><path fill="#000000" d="M 726.734375 160.699219 L 726.734375 166.382812 L 712.117188 166.382812 L 712.117188 214.304688 L 705.121094 214.304688 L 705.121094 166.382812 L 690.433594 166.382812 L 690.433594 160.699219 Z M 726.734375 160.699219 " fill-opacity="1" fill-rule="nonzero"/><path fill="#000000" d="M 773.804688 191.609375 C 773.804688 192.945312 773.726562 194.355469 773.578125 195.839844 L 739.882812 195.839844 C 740.144531 199.992188 741.566406 203.238281 744.15625 205.570312 C 746.746094 207.902344 749.886719 209.070312 753.574219 209.070312 C 756.597656 209.070312 759.125 208.367188 761.152344 206.953125 C 763.175781 205.546875 764.597656 203.664062 765.421875 201.308594 L 772.964844 201.308594 C 771.835938 205.359375 769.578125 208.65625 766.191406 211.191406 C 762.808594 213.726562 758.605469 214.992188 753.574219 214.992188 C 749.578125 214.992188 746.003906 214.09375 742.851562 212.300781 C 739.695312 210.511719 737.21875 207.960938 735.421875 204.65625 C 733.625 201.34375 732.730469 197.507812 732.730469 193.148438 C 732.730469 188.792969 733.605469 184.976562 735.347656 181.695312 C 737.09375 178.410156 739.539062 175.886719 742.695312 174.121094 C 745.851562 172.351562 749.476562 171.464844 753.574219 171.464844 C 757.578125 171.464844 761.113281 172.335938 764.1875 174.082031 C 767.265625 175.820312 769.636719 178.214844 771.300781 181.265625 C 772.96875 184.320312 773.804688 187.765625 773.804688 191.609375 Z M 766.578125 190.152344 C 766.578125 187.484375 765.988281 185.191406 764.804688 183.265625 C 763.625 181.34375 762.023438 179.886719 760 178.882812 C 757.972656 177.886719 755.730469 177.386719 753.269531 177.386719 C 749.730469 177.386719 746.714844 178.515625 744.226562 180.773438 C 741.742188 183.027344 740.320312 186.152344 739.96875 190.152344 Z M 766.578125 190.152344 " fill-opacity="1" fill-rule="nonzero"/><path fill="#000000" d="M 780.417969 193.078125 C 780.417969 188.769531 781.292969 184.984375 783.035156 181.726562 C 784.78125 178.472656 787.175781 175.945312 790.230469 174.152344 C 793.28125 172.363281 796.679688 171.464844 800.421875 171.464844 C 804.109375 171.464844 807.3125 172.257812 810.027344 173.84375 C 812.75 175.433594 814.773438 177.433594 816.105469 179.847656 L 816.105469 172.152344 L 823.1875 172.152344 L 823.1875 214.304688 L 816.105469 214.304688 L 816.105469 206.460938 C 814.722656 208.917969 812.660156 210.953125 809.914062 212.570312 C 807.171875 214.183594 803.976562 214.992188 800.339844 214.992188 C 796.597656 214.992188 793.210938 214.070312 790.1875 212.230469 C 787.164062 210.382812 784.78125 207.792969 783.035156 204.460938 C 781.292969 201.128906 780.417969 197.335938 780.417969 193.078125 Z M 816.105469 193.148438 C 816.105469 189.976562 815.460938 187.207031 814.183594 184.847656 C 812.90625 182.488281 811.171875 180.679688 808.992188 179.429688 C 806.816406 178.171875 804.417969 177.539062 801.808594 177.539062 C 799.183594 177.539062 796.800781 178.15625 794.644531 179.386719 C 792.492188 180.617188 790.777344 182.414062 789.492188 184.773438 C 788.210938 187.128906 787.570312 189.898438 787.570312 193.078125 C 787.570312 196.308594 788.210938 199.117188 789.492188 201.503906 C 790.777344 203.886719 792.492188 205.707031 794.644531 206.964844 C 796.800781 208.21875 799.183594 208.84375 801.808594 208.84375 C 804.417969 208.84375 806.816406 208.21875 808.992188 206.964844 C 811.171875 205.707031 812.90625 203.886719 814.183594 201.503906 C 815.460938 199.117188 816.105469 196.332031 816.105469 193.148438 Z M 816.105469 193.148438 " fill-opacity="1" fill-rule="nonzero"/><path fill="#000000" d="M 885.722656 171.382812 C 888.996094 171.382812 891.921875 172.0625 894.484375 173.425781 C 897.050781 174.785156 899.078125 176.828125 900.5625 179.542969 C 902.042969 182.257812 902.789062 185.5625 902.789062 189.457031 L 902.789062 214.304688 L 895.871094 214.304688 L 895.871094 190.460938 C 895.871094 186.253906 894.828125 183.035156 892.75 180.804688 C 890.679688 178.574219 887.871094 177.457031 884.335938 177.457031 C 880.695312 177.457031 877.796875 178.625 875.640625 180.957031 C 873.488281 183.292969 872.410156 186.664062 872.410156 191.078125 L 872.410156 214.304688 L 865.492188 214.304688 L 865.492188 190.460938 C 865.492188 186.253906 864.449219 183.035156 862.371094 180.804688 C 860.296875 178.574219 857.492188 177.457031 853.957031 177.457031 C 850.308594 177.457031 847.40625 178.625 845.253906 180.957031 C 843.101562 183.292969 842.03125 186.664062 842.03125 191.078125 L 842.03125 214.304688 L 835.03125 214.304688 L 835.03125 172.152344 L 842.03125 172.152344 L 842.03125 178.226562 C 843.410156 176.027344 845.269531 174.335938 847.601562 173.15625 C 849.933594 171.972656 852.511719 171.382812 855.332031 171.382812 C 858.875 171.382812 862.003906 172.179688 864.722656 173.773438 C 867.4375 175.359375 869.464844 177.695312 870.796875 180.773438 C 871.972656 177.796875 873.921875 175.488281 876.636719 173.84375 C 879.351562 172.203125 882.378906 171.382812 885.722656 171.382812 Z M 885.722656 171.382812 " fill-opacity="1" fill-rule="nonzero"/><path fill="#000000" d="M 929.175781 214.992188 C 925.945312 214.992188 923.046875 214.4375 920.484375 213.339844 C 917.917969 212.238281 915.890625 210.699219 914.40625 208.730469 C 912.921875 206.753906 912.101562 204.480469 911.945312 201.914062 L 919.179688 201.914062 C 919.382812 204.023438 920.371094 205.742188 922.136719 207.078125 C 923.90625 208.40625 926.226562 209.070312 929.09375 209.070312 C 931.761719 209.070312 933.867188 208.480469 935.40625 207.304688 C 936.945312 206.128906 937.714844 204.640625 937.714844 202.839844 C 937.714844 201 936.894531 199.632812 935.25 198.734375 C 933.609375 197.832031 931.070312 196.945312 927.636719 196.074219 C 924.507812 195.253906 921.957031 194.421875 919.980469 193.582031 C 918.007812 192.734375 916.320312 191.476562 914.910156 189.816406 C 913.5 188.148438 912.796875 185.949219 912.796875 183.226562 C 912.796875 181.078125 913.433594 179.109375 914.714844 177.3125 C 915.992188 175.515625 917.8125 174.089844 920.175781 173.042969 C 922.535156 171.992188 925.226562 171.464844 928.253906 171.464844 C 932.917969 171.464844 936.683594 172.644531 939.550781 175.003906 C 942.425781 177.359375 943.964844 180.589844 944.171875 184.691406 L 937.171875 184.691406 C 937.019531 182.492188 936.136719 180.722656 934.523438 179.386719 C 932.90625 178.054688 930.738281 177.386719 928.015625 177.386719 C 925.503906 177.386719 923.503906 177.925781 922.023438 179.007812 C 920.535156 180.082031 919.796875 181.488281 919.796875 183.226562 C 919.796875 184.617188 920.242188 185.757812 921.140625 186.652344 C 922.035156 187.550781 923.160156 188.269531 924.515625 188.808594 C 925.875 189.34375 927.761719 189.945312 930.171875 190.613281 C 933.195312 191.4375 935.65625 192.246094 937.550781 193.039062 C 939.453125 193.832031 941.082031 195.027344 942.4375 196.621094 C 943.796875 198.207031 944.503906 200.28125 944.5625 202.839844 C 944.5625 205.152344 943.917969 207.230469 942.632812 209.078125 C 941.351562 210.921875 939.542969 212.367188 937.210938 213.421875 C 934.878906 214.46875 932.199219 214.992188 929.175781 214.992188 Z M 929.175781 214.992188 " fill-opacity="1" fill-rule="nonzero"/><path fill="#1a47fe" d="M 195.476562 228.445312 C 182.960938 228.445312 171.648438 226.210938 161.546875 221.734375 C 151.4375 217.253906 142.769531 211.082031 135.539062 203.21875 C 128.304688 195.351562 122.761719 186.25 118.910156 175.917969 C 115.066406 165.582031 113.144531 154.5 113.144531 142.675781 C 113.144531 130.847656 115.066406 119.765625 118.910156 109.433594 C 122.761719 99.101562 128.304688 90.003906 135.539062 82.144531 C 142.769531 74.277344 151.4375 68.128906 161.546875 63.710938 C 171.648438 59.292969 182.960938 57.078125 195.476562 57.078125 C 207.757812 57.078125 219.0625 58.800781 229.398438 62.242188 C 239.734375 65.683594 248.230469 71.078125 254.890625 78.425781 C 253.398438 81.992188 251.992188 85.671875 250.671875 89.460938 C 249.351562 93.246094 248.171875 96.746094 247.140625 99.960938 C 246.109375 103.175781 245.273438 105.789062 244.636719 107.800781 C 244.007812 109.808594 243.695312 110.808594 243.695312 110.808594 C 243.695312 110.808594 242.914062 109.75 241.363281 107.625 C 239.816406 105.5 237.351562 103.085938 233.964844 100.390625 C 230.578125 97.695312 226.242188 95.289062 220.960938 93.164062 C 215.675781 91.039062 209.304688 89.972656 201.851562 89.972656 C 193.003906 89.972656 184.785156 91.929688 177.207031 95.832031 C 169.632812 99.734375 163.519531 105.589844 158.867188 113.394531 C 154.21875 121.203125 151.898438 131.023438 151.898438 142.851562 C 151.898438 147.898438 152.355469 152.578125 153.273438 156.878906 C 154.195312 161.1875 155.515625 165.121094 157.234375 168.683594 C 156.660156 159.035156 158.210938 150.339844 161.882812 142.59375 C 165.558594 134.84375 170.867188 128.671875 177.8125 124.078125 C 184.765625 119.480469 192.777344 117.183594 201.851562 117.183594 C 205.40625 117.183594 208.933594 117.613281 212.429688 118.476562 C 215.933594 119.335938 219.03125 120.515625 221.730469 122.003906 C 224.433594 123.5 226.242188 125.105469 227.160156 126.828125 L 227.160156 164.894531 C 223.714844 161.90625 218.898438 159.207031 212.699219 156.796875 C 206.5 154.382812 200.011719 153.175781 193.238281 153.175781 C 186.347656 153.175781 180.144531 154.066406 174.632812 155.855469 C 169.121094 157.632812 165.191406 160.332031 162.839844 163.953125 C 160.484375 167.5625 160.511719 172.183594 162.921875 177.808594 C 167.625 183.664062 173.367188 188.058594 180.144531 190.984375 C 186.917969 193.914062 194.152344 195.378906 201.851562 195.378906 C 209.304688 195.378906 215.675781 194.320312 220.960938 192.195312 C 226.242188 190.070312 230.578125 187.65625 233.964844 184.960938 C 237.351562 182.257812 239.816406 179.847656 241.363281 177.726562 C 242.914062 175.597656 243.695312 174.535156 243.695312 174.535156 C 243.695312 174.535156 244.007812 175.539062 244.636719 177.550781 C 245.273438 179.5625 246.109375 182.175781 247.140625 185.390625 C 248.171875 188.601562 249.351562 192.101562 250.671875 195.890625 C 251.992188 199.683594 253.398438 203.359375 254.890625 206.914062 C 248.230469 214.261719 239.734375 219.6875 229.398438 223.191406 C 219.0625 226.695312 207.757812 228.445312 195.476562 228.445312 Z M 195.476562 228.445312 " fill-opacity="1" fill-rule="nonzero"/><path fill="#1a47fe" d="M 263.503906 210.875 C 263.503906 206.050781 265.222656 201.921875 268.667969 198.476562 C 272.117188 195.027344 276.253906 193.304688 281.074219 193.304688 C 285.898438 193.304688 290.03125 195.027344 293.472656 198.476562 C 296.914062 201.921875 298.636719 206.050781 298.636719 210.875 C 298.636719 215.699219 296.914062 219.835938 293.472656 223.285156 C 290.03125 226.726562 285.898438 228.445312 281.074219 228.445312 C 276.253906 228.445312 272.117188 226.726562 268.667969 223.285156 C 265.222656 219.835938 263.503906 215.699219 263.503906 210.875 Z M 263.503906 210.875 " fill-opacity="1" fill-rule="nonzero"/></svg>