<svg xmlns="http://www.w3.org/2000/svg" xmlns:xlink="http://www.w3.org/1999/xlink" width="2000" zoomAndPan="magnify" viewBox="0 0 1500 1499.999933" height="2000" preserveAspectRatio="xMidYMid meet" version="1.0"><defs><g/><clipPath id="118b3fc6b6"><path d="M 341 6 L 1282.199219 6 L 1282.199219 295 L 341 295 Z M 341 6 " clip-rule="nonzero"/></clipPath><clipPath id="a2307ebdb6"><rect x="0" width="942" y="0" height="289"/></clipPath><clipPath id="76c845a9ad"><path d="M 0.839844 0.078125 L 306 0.078125 L 306 350.238281 L 0.839844 350.238281 Z M 0.839844 0.078125 " clip-rule="nonzero"/></clipPath><clipPath id="1856ee5082"><rect x="0" width="306" y="0" height="351"/></clipPath><clipPath id="652dfc300b"><rect x="0" width="1283" y="0" height="351"/></clipPath></defs><g transform="matrix(1, 0, 0, 1, 117, 592)"><g clip-path="url(#652dfc300b)"><g clip-path="url(#118b3fc6b6)"><g transform="matrix(1, 0, 0, 1, 341, 6)"><g clip-path="url(#a2307ebdb6)"><g fill="#000000" fill-opacity="1"><g transform="translate(0.190814, 121.94678)"><g><path d="M 59.25 -81.609375 L 59.25 -72.953125 L 37 -72.953125 L 37 0 L 26.34375 0 L 26.34375 -72.953125 L 3.984375 -72.953125 L 3.984375 -81.609375 Z M 59.25 -81.609375 "/></g></g></g><g fill="#000000" fill-opacity="1"><g transform="translate(63.539938, 121.94678)"><g><path d="M 40.859375 -65.34375 C 45.703125 -65.34375 50.070312 -64.304688 53.96875 -62.234375 C 57.875 -60.160156 60.941406 -57.054688 63.171875 -52.921875 C 65.398438 -48.785156 66.515625 -43.753906 66.515625 -37.828125 L 66.515625 0 L 55.96875 0 L 55.96875 -36.296875 C 55.96875 -42.703125 54.367188 -47.601562 51.171875 -51 C 47.972656 -54.394531 43.601562 -56.09375 38.0625 -56.09375 C 32.4375 -56.09375 27.960938 -54.332031 24.640625 -50.8125 C 21.328125 -47.300781 19.671875 -42.191406 19.671875 -35.484375 L 19.671875 0 L 9.015625 0 L 9.015625 -86.65625 L 19.671875 -86.65625 L 19.671875 -55.03125 C 21.773438 -58.3125 24.679688 -60.847656 28.390625 -62.640625 C 32.097656 -64.441406 36.253906 -65.34375 40.859375 -65.34375 Z M 40.859375 -65.34375 "/></g></g></g><g fill="#000000" fill-opacity="1"><g transform="translate(138.481605, 121.94678)"><g><path d="M 67.5625 -34.546875 C 67.5625 -32.515625 67.445312 -30.367188 67.21875 -28.109375 L 15.921875 -28.109375 C 16.316406 -21.785156 18.484375 -16.847656 22.421875 -13.296875 C 26.367188 -9.742188 31.148438 -7.96875 36.765625 -7.96875 C 41.367188 -7.96875 45.210938 -9.039062 48.296875 -11.1875 C 51.378906 -13.332031 53.546875 -16.195312 54.796875 -19.78125 L 66.28125 -19.78125 C 64.5625 -13.613281 61.125 -8.597656 55.96875 -4.734375 C 50.820312 -0.878906 44.421875 1.046875 36.765625 1.046875 C 30.679688 1.046875 25.238281 -0.316406 20.4375 -3.046875 C 15.632812 -5.773438 11.863281 -9.65625 9.125 -14.6875 C 6.394531 -19.726562 5.03125 -25.566406 5.03125 -32.203125 C 5.03125 -38.835938 6.359375 -44.648438 9.015625 -49.640625 C 11.671875 -54.640625 15.398438 -58.484375 20.203125 -61.171875 C 25.003906 -63.867188 30.523438 -65.21875 36.765625 -65.21875 C 42.859375 -65.21875 48.242188 -63.890625 52.921875 -61.234375 C 57.609375 -58.585938 61.21875 -54.941406 63.75 -50.296875 C 66.289062 -45.648438 67.5625 -40.398438 67.5625 -34.546875 Z M 56.5625 -36.765625 C 56.5625 -40.828125 55.660156 -44.320312 53.859375 -47.25 C 52.066406 -50.175781 49.628906 -52.398438 46.546875 -53.921875 C 43.460938 -55.441406 40.046875 -56.203125 36.296875 -56.203125 C 30.910156 -56.203125 26.320312 -54.484375 22.53125 -51.046875 C 18.75 -47.617188 16.585938 -42.859375 16.046875 -36.765625 Z M 56.5625 -36.765625 "/></g></g></g><g fill="#000000" fill-opacity="1"><g transform="translate(211.08135, 121.94678)"><g/></g></g><g fill="#000000" fill-opacity="1"><g transform="translate(242.346071, 121.94678)"><g><path d="M 19.671875 -81.609375 L 19.671875 0 L 9.015625 0 L 9.015625 -81.609375 Z M 19.671875 -81.609375 "/></g></g></g><g fill="#000000" fill-opacity="1"><g transform="translate(271.151777, 121.94678)"><g><path d="M 40.28125 -65.34375 C 48.082031 -65.34375 54.40625 -62.976562 59.25 -58.25 C 64.09375 -53.53125 66.515625 -46.722656 66.515625 -37.828125 L 66.515625 0 L 55.96875 0 L 55.96875 -36.296875 C 55.96875 -42.703125 54.367188 -47.601562 51.171875 -51 C 47.972656 -54.394531 43.601562 -56.09375 38.0625 -56.09375 C 32.4375 -56.09375 27.960938 -54.332031 24.640625 -50.8125 C 21.328125 -47.300781 19.671875 -42.191406 19.671875 -35.484375 L 19.671875 0 L 9.015625 0 L 9.015625 -64.171875 L 19.671875 -64.171875 L 19.671875 -55.03125 C 21.773438 -58.3125 24.640625 -60.847656 28.265625 -62.640625 C 31.898438 -64.441406 35.90625 -65.34375 40.28125 -65.34375 Z M 40.28125 -65.34375 "/></g></g></g><g fill="#000000" fill-opacity="1"><g transform="translate(346.093444, 121.94678)"><g><path d="M 31.734375 1.046875 C 26.816406 1.046875 22.40625 0.207031 18.5 -1.46875 C 14.59375 -3.144531 11.507812 -5.484375 9.25 -8.484375 C 6.988281 -11.492188 5.738281 -14.953125 5.5 -18.859375 L 16.515625 -18.859375 C 16.828125 -15.648438 18.328125 -13.03125 21.015625 -11 C 23.710938 -8.976562 27.242188 -7.96875 31.609375 -7.96875 C 35.671875 -7.96875 38.875 -8.863281 41.21875 -10.65625 C 43.5625 -12.445312 44.734375 -14.710938 44.734375 -17.453125 C 44.734375 -20.253906 43.484375 -22.335938 40.984375 -23.703125 C 38.484375 -25.078125 34.617188 -26.425781 29.390625 -27.75 C 24.628906 -29 20.742188 -30.265625 17.734375 -31.546875 C 14.734375 -32.835938 12.160156 -34.75 10.015625 -37.28125 C 7.867188 -39.820312 6.796875 -43.164062 6.796875 -47.3125 C 6.796875 -50.582031 7.769531 -53.582031 9.71875 -56.3125 C 11.664062 -59.050781 14.4375 -61.21875 18.03125 -62.8125 C 21.625 -64.414062 25.722656 -65.21875 30.328125 -65.21875 C 37.429688 -65.21875 43.164062 -63.421875 47.53125 -59.828125 C 51.90625 -56.242188 54.25 -51.328125 54.5625 -45.078125 L 43.90625 -45.078125 C 43.675781 -48.429688 42.332031 -51.125 39.875 -53.15625 C 37.414062 -55.1875 34.113281 -56.203125 29.96875 -56.203125 C 26.144531 -56.203125 23.101562 -55.378906 20.84375 -53.734375 C 18.582031 -52.097656 17.453125 -49.957031 17.453125 -47.3125 C 17.453125 -45.195312 18.132812 -43.457031 19.5 -42.09375 C 20.863281 -40.726562 22.578125 -39.632812 24.640625 -38.8125 C 26.710938 -38 29.582031 -37.082031 33.25 -36.0625 C 37.851562 -34.8125 41.597656 -33.582031 44.484375 -32.375 C 47.378906 -31.164062 49.859375 -29.347656 51.921875 -26.921875 C 53.992188 -24.503906 55.070312 -21.347656 55.15625 -17.453125 C 55.15625 -13.929688 54.175781 -10.765625 52.21875 -7.953125 C 50.269531 -5.148438 47.519531 -2.945312 43.96875 -1.34375 C 40.414062 0.25 36.335938 1.046875 31.734375 1.046875 Z M 31.734375 1.046875 "/></g></g></g><g fill="#000000" fill-opacity="1"><g transform="translate(407.217739, 121.94678)"><g><path d="M 22.015625 -55.390625 L 22.015625 -17.5625 C 22.015625 -14.4375 22.675781 -12.226562 24 -10.9375 C 25.332031 -9.65625 27.632812 -9.015625 30.90625 -9.015625 L 38.765625 -9.015625 L 38.765625 0 L 29.15625 0 C 23.21875 0 18.765625 -1.363281 15.796875 -4.09375 C 12.835938 -6.832031 11.359375 -11.320312 11.359375 -17.5625 L 11.359375 -55.390625 L 3.046875 -55.390625 L 3.046875 -64.171875 L 11.359375 -64.171875 L 11.359375 -80.328125 L 22.015625 -80.328125 L 22.015625 -64.171875 L 38.765625 -64.171875 L 38.765625 -55.390625 Z M 22.015625 -55.390625 "/></g></g></g><g fill="#000000" fill-opacity="1"><g transform="translate(449.840817, 121.94678)"><g><path d="M 14.515625 -74.59375 C 12.484375 -74.59375 10.765625 -75.289062 9.359375 -76.6875 C 7.960938 -78.09375 7.265625 -79.8125 7.265625 -81.84375 C 7.265625 -83.875 7.960938 -85.59375 9.359375 -87 C 10.765625 -88.40625 12.484375 -89.109375 14.515625 -89.109375 C 16.472656 -89.109375 18.132812 -88.40625 19.5 -87 C 20.863281 -85.59375 21.546875 -83.875 21.546875 -81.84375 C 21.546875 -79.8125 20.863281 -78.09375 19.5 -76.6875 C 18.132812 -75.289062 16.472656 -74.59375 14.515625 -74.59375 Z M 19.671875 -64.171875 L 19.671875 0 L 9.015625 0 L 9.015625 -64.171875 Z M 19.671875 -64.171875 "/></g></g></g><g fill="#000000" fill-opacity="1"><g transform="translate(478.64655, 121.94678)"><g><path d="M 22.015625 -55.390625 L 22.015625 -17.5625 C 22.015625 -14.4375 22.675781 -12.226562 24 -10.9375 C 25.332031 -9.65625 27.632812 -9.015625 30.90625 -9.015625 L 38.765625 -9.015625 L 38.765625 0 L 29.15625 0 C 23.21875 0 18.765625 -1.363281 15.796875 -4.09375 C 12.835938 -6.832031 11.359375 -11.320312 11.359375 -17.5625 L 11.359375 -55.390625 L 3.046875 -55.390625 L 3.046875 -64.171875 L 11.359375 -64.171875 L 11.359375 -80.328125 L 22.015625 -80.328125 L 22.015625 -64.171875 L 38.765625 -64.171875 L 38.765625 -55.390625 Z M 22.015625 -55.390625 "/></g></g></g><g fill="#000000" fill-opacity="1"><g transform="translate(521.269628, 121.94678)"><g><path d="M 65.921875 -64.171875 L 65.921875 0 L 55.265625 0 L 55.265625 -9.484375 C 53.234375 -6.203125 50.398438 -3.644531 46.765625 -1.8125 C 43.140625 0.0195312 39.144531 0.9375 34.78125 0.9375 C 29.78125 0.9375 25.289062 -0.09375 21.3125 -2.15625 C 17.332031 -4.226562 14.191406 -7.332031 11.890625 -11.46875 C 9.585938 -15.613281 8.4375 -20.648438 8.4375 -26.578125 L 8.4375 -64.171875 L 18.96875 -64.171875 L 18.96875 -27.984375 C 18.96875 -21.660156 20.566406 -16.800781 23.765625 -13.40625 C 26.972656 -10.007812 31.347656 -8.3125 36.890625 -8.3125 C 42.585938 -8.3125 47.070312 -10.066406 50.34375 -13.578125 C 53.625 -17.097656 55.265625 -22.210938 55.265625 -28.921875 L 55.265625 -64.171875 Z M 65.921875 -64.171875 "/></g></g></g><g fill="#000000" fill-opacity="1"><g transform="translate(596.211241, 121.94678)"><g><path d="M 22.015625 -55.390625 L 22.015625 -17.5625 C 22.015625 -14.4375 22.675781 -12.226562 24 -10.9375 C 25.332031 -9.65625 27.632812 -9.015625 30.90625 -9.015625 L 38.765625 -9.015625 L 38.765625 0 L 29.15625 0 C 23.21875 0 18.765625 -1.363281 15.796875 -4.09375 C 12.835938 -6.832031 11.359375 -11.320312 11.359375 -17.5625 L 11.359375 -55.390625 L 3.046875 -55.390625 L 3.046875 -64.171875 L 11.359375 -64.171875 L 11.359375 -80.328125 L 22.015625 -80.328125 L 22.015625 -64.171875 L 38.765625 -64.171875 L 38.765625 -55.390625 Z M 22.015625 -55.390625 "/></g></g></g><g fill="#000000" fill-opacity="1"><g transform="translate(638.83432, 121.94678)"><g><path d="M 67.5625 -34.546875 C 67.5625 -32.515625 67.445312 -30.367188 67.21875 -28.109375 L 15.921875 -28.109375 C 16.316406 -21.785156 18.484375 -16.847656 22.421875 -13.296875 C 26.367188 -9.742188 31.148438 -7.96875 36.765625 -7.96875 C 41.367188 -7.96875 45.210938 -9.039062 48.296875 -11.1875 C 51.378906 -13.332031 53.546875 -16.195312 54.796875 -19.78125 L 66.28125 -19.78125 C 64.5625 -13.613281 61.125 -8.597656 55.96875 -4.734375 C 50.820312 -0.878906 44.421875 1.046875 36.765625 1.046875 C 30.679688 1.046875 25.238281 -0.316406 20.4375 -3.046875 C 15.632812 -5.773438 11.863281 -9.65625 9.125 -14.6875 C 6.394531 -19.726562 5.03125 -25.566406 5.03125 -32.203125 C 5.03125 -38.835938 6.359375 -44.648438 9.015625 -49.640625 C 11.671875 -54.640625 15.398438 -58.484375 20.203125 -61.171875 C 25.003906 -63.867188 30.523438 -65.21875 36.765625 -65.21875 C 42.859375 -65.21875 48.242188 -63.890625 52.921875 -61.234375 C 57.609375 -58.585938 61.21875 -54.941406 63.75 -50.296875 C 66.289062 -45.648438 67.5625 -40.398438 67.5625 -34.546875 Z M 56.5625 -36.765625 C 56.5625 -40.828125 55.660156 -44.320312 53.859375 -47.25 C 52.066406 -50.175781 49.628906 -52.398438 46.546875 -53.921875 C 43.460938 -55.441406 40.046875 -56.203125 36.296875 -56.203125 C 30.910156 -56.203125 26.320312 -54.484375 22.53125 -51.046875 C 18.75 -47.617188 16.585938 -42.859375 16.046875 -36.765625 Z M 56.5625 -36.765625 "/></g></g></g><g fill="#000000" fill-opacity="1"><g transform="translate(711.434065, 121.94678)"><g/></g></g><g fill="#000000" fill-opacity="1"><g transform="translate(742.698813, 121.94678)"><g><path d="M 19.671875 -52.21875 C 21.859375 -56.050781 25.054688 -59.175781 29.265625 -61.59375 C 33.484375 -64.007812 38.285156 -65.21875 43.671875 -65.21875 C 49.453125 -65.21875 54.644531 -63.851562 59.25 -61.125 C 63.851562 -58.394531 67.484375 -54.550781 70.140625 -49.59375 C 72.796875 -44.632812 74.125 -38.875 74.125 -32.3125 C 74.125 -25.832031 72.796875 -20.054688 70.140625 -14.984375 C 67.484375 -9.910156 63.832031 -5.96875 59.1875 -3.15625 C 54.539062 -0.351562 49.367188 1.046875 43.671875 1.046875 C 38.128906 1.046875 33.269531 -0.160156 29.09375 -2.578125 C 24.914062 -4.992188 21.773438 -8.078125 19.671875 -11.828125 L 19.671875 0 L 9.015625 0 L 9.015625 -86.65625 L 19.671875 -86.65625 Z M 63.234375 -32.3125 C 63.234375 -37.15625 62.253906 -41.367188 60.296875 -44.953125 C 58.347656 -48.546875 55.710938 -51.28125 52.390625 -53.15625 C 49.078125 -55.03125 45.429688 -55.96875 41.453125 -55.96875 C 37.546875 -55.96875 33.929688 -55.007812 30.609375 -53.09375 C 27.296875 -51.1875 24.644531 -48.414062 22.65625 -44.78125 C 20.664062 -41.15625 19.671875 -36.960938 19.671875 -32.203125 C 19.671875 -27.359375 20.664062 -23.117188 22.65625 -19.484375 C 24.644531 -15.859375 27.296875 -13.085938 30.609375 -11.171875 C 33.929688 -9.265625 37.546875 -8.3125 41.453125 -8.3125 C 45.429688 -8.3125 49.078125 -9.265625 52.390625 -11.171875 C 55.710938 -13.085938 58.347656 -15.859375 60.296875 -19.484375 C 62.253906 -23.117188 63.234375 -27.394531 63.234375 -32.3125 Z M 63.234375 -32.3125 "/></g></g></g><g fill="#000000" fill-opacity="1"><g transform="translate(821.855951, 121.94678)"><g><path d="M 64.28125 -64.171875 L 25.640625 30.203125 L 14.640625 30.203125 L 27.28125 -0.703125 L 1.40625 -64.171875 L 13.234375 -64.171875 L 33.375 -12.171875 L 53.28125 -64.171875 Z M 64.28125 -64.171875 "/></g></g></g><g fill="#000000" fill-opacity="1"><g transform="translate(0.190814, 246.464223)"><g><path d="M 5.03125 -40.859375 C 5.03125 -48.828125 6.828125 -55.988281 10.421875 -62.34375 C 14.015625 -68.707031 18.910156 -73.6875 25.109375 -77.28125 C 31.316406 -80.875 38.207031 -82.671875 45.78125 -82.671875 C 54.675781 -82.671875 62.441406 -80.519531 69.078125 -76.21875 C 75.710938 -71.925781 80.554688 -65.84375 83.609375 -57.96875 L 70.84375 -57.96875 C 68.582031 -62.882812 65.320312 -66.664062 61.0625 -69.3125 C 56.8125 -71.96875 51.71875 -73.296875 45.78125 -73.296875 C 40.082031 -73.296875 34.96875 -71.96875 30.4375 -69.3125 C 25.914062 -66.664062 22.363281 -62.898438 19.78125 -58.015625 C 17.207031 -53.140625 15.921875 -47.421875 15.921875 -40.859375 C 15.921875 -34.378906 17.207031 -28.703125 19.78125 -23.828125 C 22.363281 -18.953125 25.914062 -15.1875 30.4375 -12.53125 C 34.96875 -9.875 40.082031 -8.546875 45.78125 -8.546875 C 51.71875 -8.546875 56.8125 -9.851562 61.0625 -12.46875 C 65.320312 -15.082031 68.582031 -18.847656 70.84375 -23.765625 L 83.609375 -23.765625 C 80.554688 -15.960938 75.710938 -9.929688 69.078125 -5.671875 C 62.441406 -1.421875 54.675781 0.703125 45.78125 0.703125 C 38.207031 0.703125 31.316406 -1.070312 25.109375 -4.625 C 18.910156 -8.175781 14.015625 -13.113281 10.421875 -19.4375 C 6.828125 -25.757812 5.03125 -32.898438 5.03125 -40.859375 Z M 5.03125 -40.859375 "/></g></g></g><g fill="#000000" fill-opacity="1"><g transform="translate(90.589202, 246.464223)"><g><path d="M 37 1.046875 C 30.988281 1.046875 25.539062 -0.316406 20.65625 -3.046875 C 15.78125 -5.773438 11.957031 -9.65625 9.1875 -14.6875 C 6.414062 -19.726562 5.03125 -25.566406 5.03125 -32.203125 C 5.03125 -38.753906 6.453125 -44.546875 9.296875 -49.578125 C 12.148438 -54.617188 16.035156 -58.484375 20.953125 -61.171875 C 25.878906 -63.867188 31.382812 -65.21875 37.46875 -65.21875 C 43.5625 -65.21875 49.066406 -63.867188 53.984375 -61.171875 C 58.898438 -58.484375 62.78125 -54.640625 65.625 -49.640625 C 68.476562 -44.648438 69.90625 -38.835938 69.90625 -32.203125 C 69.90625 -25.566406 68.441406 -19.726562 65.515625 -14.6875 C 62.585938 -9.65625 58.625 -5.773438 53.625 -3.046875 C 48.632812 -0.316406 43.09375 1.046875 37 1.046875 Z M 37 -8.3125 C 40.820312 -8.3125 44.410156 -9.207031 47.765625 -11 C 51.128906 -12.800781 53.84375 -15.492188 55.90625 -19.078125 C 57.976562 -22.671875 59.015625 -27.046875 59.015625 -32.203125 C 59.015625 -37.347656 58 -41.71875 55.96875 -45.3125 C 53.9375 -48.90625 51.28125 -51.578125 48 -53.328125 C 44.726562 -55.085938 41.179688 -55.96875 37.359375 -55.96875 C 33.453125 -55.96875 29.878906 -55.085938 26.640625 -53.328125 C 23.398438 -51.578125 20.800781 -48.90625 18.84375 -45.3125 C 16.894531 -41.71875 15.921875 -37.347656 15.921875 -32.203125 C 15.921875 -26.972656 16.875 -22.5625 18.78125 -18.96875 C 20.695312 -15.375 23.253906 -12.695312 26.453125 -10.9375 C 29.660156 -9.1875 33.175781 -8.3125 37 -8.3125 Z M 37 -8.3125 "/></g></g></g><g fill="#000000" fill-opacity="1"><g transform="translate(165.530869, 246.464223)"><g><path d="M 5.03125 -32.3125 C 5.03125 -38.875 6.359375 -44.632812 9.015625 -49.59375 C 11.671875 -54.550781 15.320312 -58.394531 19.96875 -61.125 C 24.613281 -63.851562 29.820312 -65.21875 35.59375 -65.21875 C 40.59375 -65.21875 45.238281 -64.066406 49.53125 -61.765625 C 53.820312 -59.460938 57.097656 -56.4375 59.359375 -52.6875 L 59.359375 -86.65625 L 70.140625 -86.65625 L 70.140625 0 L 59.359375 0 L 59.359375 -12.0625 C 57.253906 -8.238281 54.132812 -5.097656 50 -2.640625 C 45.863281 -0.179688 41.023438 1.046875 35.484375 1.046875 C 29.785156 1.046875 24.613281 -0.351562 19.96875 -3.15625 C 15.320312 -5.96875 11.671875 -9.910156 9.015625 -14.984375 C 6.359375 -20.054688 5.03125 -25.832031 5.03125 -32.3125 Z M 59.359375 -32.203125 C 59.359375 -37.035156 58.382812 -41.25 56.4375 -44.84375 C 54.488281 -48.4375 51.851562 -51.1875 48.53125 -53.09375 C 45.21875 -55.007812 41.570312 -55.96875 37.59375 -55.96875 C 33.601562 -55.96875 29.96875 -55.03125 26.6875 -53.15625 C 23.414062 -51.28125 20.800781 -48.546875 18.84375 -44.953125 C 16.894531 -41.367188 15.921875 -37.15625 15.921875 -32.3125 C 15.921875 -27.394531 16.894531 -23.117188 18.84375 -19.484375 C 20.800781 -15.859375 23.414062 -13.085938 26.6875 -11.171875 C 29.96875 -9.265625 33.601562 -8.3125 37.59375 -8.3125 C 41.570312 -8.3125 45.21875 -9.265625 48.53125 -11.171875 C 51.851562 -13.085938 54.488281 -15.859375 56.4375 -19.484375 C 58.382812 -23.117188 59.359375 -27.359375 59.359375 -32.203125 Z M 59.359375 -32.203125 "/></g></g></g><g fill="#000000" fill-opacity="1"><g transform="translate(244.687992, 246.464223)"><g><path d="M 67.5625 -34.546875 C 67.5625 -32.515625 67.445312 -30.367188 67.21875 -28.109375 L 15.921875 -28.109375 C 16.316406 -21.785156 18.484375 -16.847656 22.421875 -13.296875 C 26.367188 -9.742188 31.148438 -7.96875 36.765625 -7.96875 C 41.367188 -7.96875 45.210938 -9.039062 48.296875 -11.1875 C 51.378906 -13.332031 53.546875 -16.195312 54.796875 -19.78125 L 66.28125 -19.78125 C 64.5625 -13.613281 61.125 -8.597656 55.96875 -4.734375 C 50.820312 -0.878906 44.421875 1.046875 36.765625 1.046875 C 30.679688 1.046875 25.238281 -0.316406 20.4375 -3.046875 C 15.632812 -5.773438 11.863281 -9.65625 9.125 -14.6875 C 6.394531 -19.726562 5.03125 -25.566406 5.03125 -32.203125 C 5.03125 -38.835938 6.359375 -44.648438 9.015625 -49.640625 C 11.671875 -54.640625 15.398438 -58.484375 20.203125 -61.171875 C 25.003906 -63.867188 30.523438 -65.21875 36.765625 -65.21875 C 42.859375 -65.21875 48.242188 -63.890625 52.921875 -61.234375 C 57.609375 -58.585938 61.21875 -54.941406 63.75 -50.296875 C 66.289062 -45.648438 67.5625 -40.398438 67.5625 -34.546875 Z M 56.5625 -36.765625 C 56.5625 -40.828125 55.660156 -44.320312 53.859375 -47.25 C 52.066406 -50.175781 49.628906 -52.398438 46.546875 -53.921875 C 43.460938 -55.441406 40.046875 -56.203125 36.296875 -56.203125 C 30.910156 -56.203125 26.320312 -54.484375 22.53125 -51.046875 C 18.75 -47.617188 16.585938 -42.859375 16.046875 -36.765625 Z M 56.5625 -36.765625 "/></g></g></g><g fill="#000000" fill-opacity="1"><g transform="translate(317.287737, 246.464223)"><g><path d="M 86.1875 -65.34375 C 91.175781 -65.34375 95.625 -64.304688 99.53125 -62.234375 C 103.4375 -60.160156 106.519531 -57.054688 108.78125 -52.921875 C 111.039062 -48.785156 112.171875 -43.753906 112.171875 -37.828125 L 112.171875 0 L 101.640625 0 L 101.640625 -36.296875 C 101.640625 -42.703125 100.054688 -47.601562 96.890625 -51 C 93.734375 -54.394531 89.460938 -56.09375 84.078125 -56.09375 C 78.535156 -56.09375 74.125 -54.316406 70.84375 -50.765625 C 67.5625 -47.210938 65.921875 -42.078125 65.921875 -35.359375 L 65.921875 0 L 55.390625 0 L 55.390625 -36.296875 C 55.390625 -42.703125 53.804688 -47.601562 50.640625 -51 C 47.484375 -54.394531 43.210938 -56.09375 37.828125 -56.09375 C 32.273438 -56.09375 27.859375 -54.316406 24.578125 -50.765625 C 21.304688 -47.210938 19.671875 -42.078125 19.671875 -35.359375 L 19.671875 0 L 9.015625 0 L 9.015625 -64.171875 L 19.671875 -64.171875 L 19.671875 -54.921875 C 21.773438 -58.273438 24.601562 -60.847656 28.15625 -62.640625 C 31.707031 -64.441406 35.628906 -65.34375 39.921875 -65.34375 C 45.316406 -65.34375 50.082031 -64.128906 54.21875 -61.703125 C 58.351562 -59.285156 61.4375 -55.734375 63.46875 -51.046875 C 65.257812 -55.578125 68.222656 -59.09375 72.359375 -61.59375 C 76.492188 -64.09375 81.101562 -65.34375 86.1875 -65.34375 Z M 86.1875 -65.34375 "/></g></g></g><g fill="#000000" fill-opacity="1"><g transform="translate(437.896991, 246.464223)"><g><path d="M 37 1.046875 C 30.988281 1.046875 25.539062 -0.316406 20.65625 -3.046875 C 15.78125 -5.773438 11.957031 -9.65625 9.1875 -14.6875 C 6.414062 -19.726562 5.03125 -25.566406 5.03125 -32.203125 C 5.03125 -38.753906 6.453125 -44.546875 9.296875 -49.578125 C 12.148438 -54.617188 16.035156 -58.484375 20.953125 -61.171875 C 25.878906 -63.867188 31.382812 -65.21875 37.46875 -65.21875 C 43.5625 -65.21875 49.066406 -63.867188 53.984375 -61.171875 C 58.898438 -58.484375 62.78125 -54.640625 65.625 -49.640625 C 68.476562 -44.648438 69.90625 -38.835938 69.90625 -32.203125 C 69.90625 -25.566406 68.441406 -19.726562 65.515625 -14.6875 C 62.585938 -9.65625 58.625 -5.773438 53.625 -3.046875 C 48.632812 -0.316406 43.09375 1.046875 37 1.046875 Z M 37 -8.3125 C 40.820312 -8.3125 44.410156 -9.207031 47.765625 -11 C 51.128906 -12.800781 53.84375 -15.492188 55.90625 -19.078125 C 57.976562 -22.671875 59.015625 -27.046875 59.015625 -32.203125 C 59.015625 -37.347656 58 -41.71875 55.96875 -45.3125 C 53.9375 -48.90625 51.28125 -51.578125 48 -53.328125 C 44.726562 -55.085938 41.179688 -55.96875 37.359375 -55.96875 C 33.453125 -55.96875 29.878906 -55.085938 26.640625 -53.328125 C 23.398438 -51.578125 20.800781 -48.90625 18.84375 -45.3125 C 16.894531 -41.71875 15.921875 -37.347656 15.921875 -32.203125 C 15.921875 -26.972656 16.875 -22.5625 18.78125 -18.96875 C 20.695312 -15.375 23.253906 -12.695312 26.453125 -10.9375 C 29.660156 -9.1875 33.175781 -8.3125 37 -8.3125 Z M 37 -8.3125 "/></g></g></g><g fill="#000000" fill-opacity="1"><g transform="translate(512.838685, 246.464223)"><g/></g></g><g fill="#000000" fill-opacity="1"><g transform="translate(544.103379, 246.464223)"><g><path d="M 59.25 -81.609375 L 59.25 -72.953125 L 37 -72.953125 L 37 0 L 26.34375 0 L 26.34375 -72.953125 L 3.984375 -72.953125 L 3.984375 -81.609375 Z M 59.25 -81.609375 "/></g></g></g><g fill="#000000" fill-opacity="1"><g transform="translate(607.452529, 246.464223)"><g><path d="M 67.5625 -34.546875 C 67.5625 -32.515625 67.445312 -30.367188 67.21875 -28.109375 L 15.921875 -28.109375 C 16.316406 -21.785156 18.484375 -16.847656 22.421875 -13.296875 C 26.367188 -9.742188 31.148438 -7.96875 36.765625 -7.96875 C 41.367188 -7.96875 45.210938 -9.039062 48.296875 -11.1875 C 51.378906 -13.332031 53.546875 -16.195312 54.796875 -19.78125 L 66.28125 -19.78125 C 64.5625 -13.613281 61.125 -8.597656 55.96875 -4.734375 C 50.820312 -0.878906 44.421875 1.046875 36.765625 1.046875 C 30.679688 1.046875 25.238281 -0.316406 20.4375 -3.046875 C 15.632812 -5.773438 11.863281 -9.65625 9.125 -14.6875 C 6.394531 -19.726562 5.03125 -25.566406 5.03125 -32.203125 C 5.03125 -38.835938 6.359375 -44.648438 9.015625 -49.640625 C 11.671875 -54.640625 15.398438 -58.484375 20.203125 -61.171875 C 25.003906 -63.867188 30.523438 -65.21875 36.765625 -65.21875 C 42.859375 -65.21875 48.242188 -63.890625 52.921875 -61.234375 C 57.609375 -58.585938 61.21875 -54.941406 63.75 -50.296875 C 66.289062 -45.648438 67.5625 -40.398438 67.5625 -34.546875 Z M 56.5625 -36.765625 C 56.5625 -40.828125 55.660156 -44.320312 53.859375 -47.25 C 52.066406 -50.175781 49.628906 -52.398438 46.546875 -53.921875 C 43.460938 -55.441406 40.046875 -56.203125 36.296875 -56.203125 C 30.910156 -56.203125 26.320312 -54.484375 22.53125 -51.046875 C 18.75 -47.617188 16.585938 -42.859375 16.046875 -36.765625 Z M 56.5625 -36.765625 "/></g></g></g><g fill="#000000" fill-opacity="1"><g transform="translate(680.052274, 246.464223)"><g><path d="M 5.03125 -32.3125 C 5.03125 -38.875 6.359375 -44.632812 9.015625 -49.59375 C 11.671875 -54.550781 15.320312 -58.394531 19.96875 -61.125 C 24.613281 -63.851562 29.785156 -65.21875 35.484375 -65.21875 C 41.097656 -65.21875 45.972656 -64.007812 50.109375 -61.59375 C 54.253906 -59.175781 57.335938 -56.128906 59.359375 -52.453125 L 59.359375 -64.171875 L 70.140625 -64.171875 L 70.140625 0 L 59.359375 0 L 59.359375 -11.9375 C 57.253906 -8.195312 54.113281 -5.097656 49.9375 -2.640625 C 45.757812 -0.179688 40.898438 1.046875 35.359375 1.046875 C 29.660156 1.046875 24.507812 -0.351562 19.90625 -3.15625 C 15.300781 -5.96875 11.671875 -9.910156 9.015625 -14.984375 C 6.359375 -20.054688 5.03125 -25.832031 5.03125 -32.3125 Z M 59.359375 -32.203125 C 59.359375 -37.035156 58.382812 -41.25 56.4375 -44.84375 C 54.488281 -48.4375 51.851562 -51.1875 48.53125 -53.09375 C 45.21875 -55.007812 41.570312 -55.96875 37.59375 -55.96875 C 33.601562 -55.96875 29.96875 -55.03125 26.6875 -53.15625 C 23.414062 -51.28125 20.800781 -48.546875 18.84375 -44.953125 C 16.894531 -41.367188 15.921875 -37.15625 15.921875 -32.3125 C 15.921875 -27.394531 16.894531 -23.117188 18.84375 -19.484375 C 20.800781 -15.859375 23.414062 -13.085938 26.6875 -11.171875 C 29.96875 -9.265625 33.601562 -8.3125 37.59375 -8.3125 C 41.570312 -8.3125 45.21875 -9.265625 48.53125 -11.171875 C 51.851562 -13.085938 54.488281 -15.859375 56.4375 -19.484375 C 58.382812 -23.117188 59.359375 -27.359375 59.359375 -32.203125 Z M 59.359375 -32.203125 "/></g></g></g><g fill="#000000" fill-opacity="1"><g transform="translate(759.209357, 246.464223)"><g><path d="M 86.1875 -65.34375 C 91.175781 -65.34375 95.625 -64.304688 99.53125 -62.234375 C 103.4375 -60.160156 106.519531 -57.054688 108.78125 -52.921875 C 111.039062 -48.785156 112.171875 -43.753906 112.171875 -37.828125 L 112.171875 0 L 101.640625 0 L 101.640625 -36.296875 C 101.640625 -42.703125 100.054688 -47.601562 96.890625 -51 C 93.734375 -54.394531 89.460938 -56.09375 84.078125 -56.09375 C 78.535156 -56.09375 74.125 -54.316406 70.84375 -50.765625 C 67.5625 -47.210938 65.921875 -42.078125 65.921875 -35.359375 L 65.921875 0 L 55.390625 0 L 55.390625 -36.296875 C 55.390625 -42.703125 53.804688 -47.601562 50.640625 -51 C 47.484375 -54.394531 43.210938 -56.09375 37.828125 -56.09375 C 32.273438 -56.09375 27.859375 -54.316406 24.578125 -50.765625 C 21.304688 -47.210938 19.671875 -42.078125 19.671875 -35.359375 L 19.671875 0 L 9.015625 0 L 9.015625 -64.171875 L 19.671875 -64.171875 L 19.671875 -54.921875 C 21.773438 -58.273438 24.601562 -60.847656 28.15625 -62.640625 C 31.707031 -64.441406 35.628906 -65.34375 39.921875 -65.34375 C 45.316406 -65.34375 50.082031 -64.128906 54.21875 -61.703125 C 58.351562 -59.285156 61.4375 -55.734375 63.46875 -51.046875 C 65.257812 -55.578125 68.222656 -59.09375 72.359375 -61.59375 C 76.492188 -64.09375 81.101562 -65.34375 86.1875 -65.34375 Z M 86.1875 -65.34375 "/></g></g></g><g fill="#000000" fill-opacity="1"><g transform="translate(879.818639, 246.464223)"><g><path d="M 31.734375 1.046875 C 26.816406 1.046875 22.40625 0.207031 18.5 -1.46875 C 14.59375 -3.144531 11.507812 -5.484375 9.25 -8.484375 C 6.988281 -11.492188 5.738281 -14.953125 5.5 -18.859375 L 16.515625 -18.859375 C 16.828125 -15.648438 18.328125 -13.03125 21.015625 -11 C 23.710938 -8.976562 27.242188 -7.96875 31.609375 -7.96875 C 35.671875 -7.96875 38.875 -8.863281 41.21875 -10.65625 C 43.5625 -12.445312 44.734375 -14.710938 44.734375 -17.453125 C 44.734375 -20.253906 43.484375 -22.335938 40.984375 -23.703125 C 38.484375 -25.078125 34.617188 -26.425781 29.390625 -27.75 C 24.628906 -29 20.742188 -30.265625 17.734375 -31.546875 C 14.734375 -32.835938 12.160156 -34.75 10.015625 -37.28125 C 7.867188 -39.820312 6.796875 -43.164062 6.796875 -47.3125 C 6.796875 -50.582031 7.769531 -53.582031 9.71875 -56.3125 C 11.664062 -59.050781 14.4375 -61.21875 18.03125 -62.8125 C 21.625 -64.414062 25.722656 -65.21875 30.328125 -65.21875 C 37.429688 -65.21875 43.164062 -63.421875 47.53125 -59.828125 C 51.90625 -56.242188 54.25 -51.328125 54.5625 -45.078125 L 43.90625 -45.078125 C 43.675781 -48.429688 42.332031 -51.125 39.875 -53.15625 C 37.414062 -55.1875 34.113281 -56.203125 29.96875 -56.203125 C 26.144531 -56.203125 23.101562 -55.378906 20.84375 -53.734375 C 18.582031 -52.097656 17.453125 -49.957031 17.453125 -47.3125 C 17.453125 -45.195312 18.132812 -43.457031 19.5 -42.09375 C 20.863281 -40.726562 22.578125 -39.632812 24.640625 -38.8125 C 26.710938 -38 29.582031 -37.082031 33.25 -36.0625 C 37.851562 -34.8125 41.597656 -33.582031 44.484375 -32.375 C 47.378906 -31.164062 49.859375 -29.347656 51.921875 -26.921875 C 53.992188 -24.503906 55.070312 -21.347656 55.15625 -17.453125 C 55.15625 -13.929688 54.175781 -10.765625 52.21875 -7.953125 C 50.269531 -5.148438 47.519531 -2.945312 43.96875 -1.34375 C 40.414062 0.25 36.335938 1.046875 31.734375 1.046875 Z M 31.734375 1.046875 "/></g></g></g></g></g></g><g clip-path="url(#76c845a9ad)"><g transform="matrix(1, 0, 0, 1, 0, 0.000000000000113687)"><g clip-path="url(#1856ee5082)"><g fill="#1a47fe" fill-opacity="1"><g transform="translate(1.046192, 270.05901)"><g><path d="M 134.515625 3.9375 C 115.460938 3.9375 98.242188 0.53125 82.859375 -6.28125 C 67.472656 -13.101562 54.273438 -22.5 43.265625 -34.46875 C 32.253906 -46.445312 23.816406 -60.300781 17.953125 -76.03125 C 12.097656 -91.769531 9.171875 -108.640625 9.171875 -126.640625 C 9.171875 -144.648438 12.097656 -161.519531 17.953125 -177.25 C 23.816406 -192.976562 32.253906 -206.828125 43.265625 -218.796875 C 54.273438 -230.773438 67.472656 -240.128906 82.859375 -246.859375 C 98.242188 -253.585938 115.460938 -256.953125 134.515625 -256.953125 C 153.210938 -256.953125 170.425781 -254.332031 186.15625 -249.09375 C 201.894531 -243.851562 214.832031 -235.640625 224.96875 -224.453125 C 222.695312 -219.023438 220.554688 -213.425781 218.546875 -207.65625 C 216.535156 -201.894531 214.742188 -196.566406 213.171875 -191.671875 C 211.597656 -186.773438 210.328125 -182.796875 209.359375 -179.734375 C 208.398438 -176.679688 207.921875 -175.15625 207.921875 -175.15625 C 207.921875 -175.15625 206.738281 -176.769531 204.375 -180 C 202.019531 -183.238281 198.265625 -186.910156 193.109375 -191.015625 C 187.953125 -195.117188 181.351562 -198.785156 173.3125 -202.015625 C 165.269531 -205.253906 155.570312 -206.875 144.21875 -206.875 C 130.75 -206.875 118.242188 -203.898438 106.703125 -197.953125 C 95.171875 -192.015625 85.863281 -183.101562 78.78125 -171.21875 C 71.707031 -159.332031 68.171875 -144.382812 68.171875 -126.375 C 68.171875 -118.6875 68.867188 -111.566406 70.265625 -105.015625 C 71.671875 -98.460938 73.679688 -92.472656 76.296875 -87.046875 C 75.421875 -101.734375 77.78125 -114.972656 83.375 -126.765625 C 88.96875 -138.566406 97.050781 -147.960938 107.625 -154.953125 C 118.207031 -161.953125 130.40625 -165.453125 144.21875 -165.453125 C 149.632812 -165.453125 155.003906 -164.796875 160.328125 -163.484375 C 165.660156 -162.171875 170.378906 -160.378906 174.484375 -158.109375 C 178.597656 -155.835938 181.351562 -153.390625 182.75 -150.765625 L 182.75 -92.8125 C 177.507812 -97.363281 170.171875 -101.472656 160.734375 -105.140625 C 151.296875 -108.816406 141.421875 -110.65625 131.109375 -110.65625 C 120.617188 -110.65625 111.175781 -109.296875 102.78125 -106.578125 C 94.394531 -103.867188 88.410156 -99.757812 84.828125 -94.25 C 81.242188 -88.75 81.285156 -81.71875 84.953125 -73.15625 C 92.117188 -64.238281 100.859375 -57.550781 111.171875 -53.09375 C 121.484375 -48.632812 132.5 -46.40625 144.21875 -46.40625 C 155.570312 -46.40625 165.269531 -48.019531 173.3125 -51.25 C 181.351562 -54.488281 187.953125 -58.160156 193.109375 -62.265625 C 198.265625 -66.378906 202.019531 -70.050781 204.375 -73.28125 C 206.738281 -76.519531 207.921875 -78.140625 207.921875 -78.140625 C 207.921875 -78.140625 208.398438 -76.609375 209.359375 -73.546875 C 210.328125 -70.484375 211.597656 -66.503906 213.171875 -61.609375 C 214.742188 -56.722656 216.535156 -51.394531 218.546875 -45.625 C 220.554688 -39.851562 222.695312 -34.257812 224.96875 -28.84375 C 214.832031 -17.65625 201.894531 -9.394531 186.15625 -4.0625 C 170.425781 1.269531 153.210938 3.9375 134.515625 3.9375 Z M 134.515625 3.9375 "/></g></g></g><g fill="#1a47fe" fill-opacity="1"><g transform="translate(226.020574, 270.05901)"><g><path d="M 13.109375 -22.8125 C 13.109375 -30.15625 15.726562 -36.445312 20.96875 -41.6875 C 26.21875 -46.9375 32.515625 -49.5625 39.859375 -49.5625 C 47.203125 -49.5625 53.492188 -46.9375 58.734375 -41.6875 C 63.972656 -36.445312 66.59375 -30.15625 66.59375 -22.8125 C 66.59375 -15.46875 63.972656 -9.171875 58.734375 -3.921875 C 53.492188 1.316406 47.203125 3.9375 39.859375 3.9375 C 32.515625 3.9375 26.21875 1.316406 20.96875 -3.921875 C 15.726562 -9.171875 13.109375 -15.46875 13.109375 -22.8125 Z M 13.109375 -22.8125 "/></g></g></g></g></g></g></g></g></svg>