<svg xmlns="http://www.w3.org/2000/svg" xmlns:xlink="http://www.w3.org/1999/xlink" width="2000" zoomAndPan="magnify" viewBox="0 0 1500 1499.999933" height="2000" preserveAspectRatio="xMidYMid meet" version="1.0"><defs><clipPath id="9615e938ce"><path d="M 150 226.5 L 1350 226.5 L 1350 1273.5 L 150 1273.5 Z M 150 226.5 " clip-rule="nonzero"/></clipPath><clipPath id="4bdea95a09"><path d="M 0 834 L 1200 834 L 1200 1047.5 L 0 1047.5 Z M 0 834 " clip-rule="nonzero"/></clipPath><clipPath id="68f563338c"><path d="M 0 0.5 L 1200 0.5 L 1200 214 L 0 214 Z M 0 0.5 " clip-rule="nonzero"/></clipPath><clipPath id="ef20bea154"><rect x="0" width="1200" y="0" height="1048"/></clipPath></defs><g clip-path="url(#9615e938ce)"><g transform="matrix(1, 0, 0, 1, 150, 226)"><g clip-path="url(#ef20bea154)"><g clip-path="url(#4bdea95a09)"><path fill="#a3a3a4" d="M 1093.5 834.3125 L 106.5 834.3125 C 47.6875 834.3125 0 882 0 940.8125 C 0 999.628906 47.683594 1047.316406 106.5 1047.316406 L 1093.5 1047.316406 C 1152.3125 1047.316406 1200 999.636719 1200 940.8125 C 1200 881.992188 1152.316406 834.3125 1093.5 834.3125 Z M 1093.5 834.3125 " fill-opacity="1" fill-rule="nonzero"/></g><path fill="#a3a3a4" d="M 106.5 630.5 L 1093.5 630.5 C 1152.3125 630.5 1200 582.824219 1200 524 C 1200 465.175781 1152.316406 417.5 1093.5 417.5 L 106.5 417.5 C 47.6875 417.5 0 465.183594 0 524 C 0 582.816406 47.683594 630.5 106.5 630.5 Z M 106.5 630.5 " fill-opacity="1" fill-rule="nonzero"/><g clip-path="url(#68f563338c)"><path fill="#a3a3a4" d="M 106.5 213.6875 L 1093.5 213.6875 C 1152.3125 213.6875 1200 166.007812 1200 107.1875 C 1200 48.363281 1152.316406 0.683594 1093.5 0.683594 L 106.5 0.683594 C 47.6875 0.683594 0 48.371094 0 107.1875 C 0 166 47.683594 213.6875 106.5 213.6875 Z M 106.5 213.6875 " fill-opacity="1" fill-rule="nonzero"/></g></g></g></g></svg>