<svg xmlns="http://www.w3.org/2000/svg" xmlns:xlink="http://www.w3.org/1999/xlink" width="2000" zoomAndPan="magnify" viewBox="0 0 1500 1499.999933" height="2000" preserveAspectRatio="xMidYMid meet" version="1.0"><path fill="#a3a3a4" d="M 1050 750 C 1050 754.910156 1049.878906 759.816406 1049.640625 764.71875 C 1049.398438 769.625 1049.035156 774.519531 1048.554688 779.40625 C 1048.074219 784.292969 1047.472656 789.164062 1046.753906 794.019531 C 1046.03125 798.875 1045.195312 803.710938 1044.234375 808.527344 C 1043.277344 813.34375 1042.203125 818.132812 1041.007812 822.894531 C 1039.816406 827.65625 1038.507812 832.386719 1037.082031 837.085938 C 1035.65625 841.785156 1034.117188 846.445312 1032.464844 851.066406 C 1030.808594 855.6875 1029.042969 860.269531 1027.164062 864.804688 C 1025.285156 869.339844 1023.296875 873.828125 1021.195312 878.265625 C 1019.097656 882.703125 1016.890625 887.089844 1014.578125 891.417969 C 1012.261719 895.75 1009.84375 900.019531 1007.320312 904.230469 C 1004.792969 908.441406 1002.167969 912.589844 999.441406 916.671875 C 996.714844 920.753906 993.886719 924.765625 990.960938 928.710938 C 988.039062 932.652344 985.019531 936.523438 981.902344 940.316406 C 978.789062 944.113281 975.582031 947.828125 972.285156 951.46875 C 968.988281 955.105469 965.605469 958.660156 962.132812 962.132812 C 958.660156 965.605469 955.105469 968.988281 951.46875 972.285156 C 947.828125 975.582031 944.113281 978.789062 940.316406 981.902344 C 936.523438 985.019531 932.652344 988.039062 928.710938 990.960938 C 924.765625 993.886719 920.753906 996.714844 916.671875 999.441406 C 912.589844 1002.167969 908.441406 1004.792969 904.230469 1007.320312 C 900.019531 1009.84375 895.75 1012.261719 891.417969 1014.578125 C 887.089844 1016.890625 882.703125 1019.097656 878.265625 1021.195312 C 873.828125 1023.296875 869.339844 1025.285156 864.804688 1027.164062 C 860.269531 1029.042969 855.691406 1030.808594 851.066406 1032.464844 C 846.445312 1034.117188 841.785156 1035.65625 837.085938 1037.082031 C 832.386719 1038.507812 827.65625 1039.816406 822.894531 1041.007812 C 818.132812 1042.203125 813.34375 1043.277344 808.527344 1044.234375 C 803.710938 1045.195312 798.875 1046.03125 794.019531 1046.753906 C 789.164062 1047.472656 784.292969 1048.074219 779.40625 1048.554688 C 774.519531 1049.035156 769.625 1049.398438 764.71875 1049.640625 C 759.816406 1049.878906 754.910156 1050 750 1050 C 745.089844 1050 740.183594 1049.878906 735.28125 1049.640625 C 730.375 1049.398438 725.480469 1049.035156 720.59375 1048.554688 C 715.707031 1048.074219 710.835938 1047.472656 705.980469 1046.753906 C 701.125 1046.03125 696.289062 1045.195312 691.472656 1044.234375 C 686.65625 1043.277344 681.867188 1042.203125 677.105469 1041.007812 C 672.34375 1039.816406 667.613281 1038.507812 662.914062 1037.082031 C 658.214844 1035.65625 653.554688 1034.117188 648.933594 1032.464844 C 644.308594 1030.808594 639.730469 1029.042969 635.195312 1027.164062 C 630.660156 1025.285156 626.171875 1023.296875 621.734375 1021.195312 C 617.296875 1019.097656 612.910156 1016.890625 608.582031 1014.578125 C 604.25 1012.261719 599.980469 1009.84375 595.769531 1007.320312 C 591.558594 1004.792969 587.410156 1002.167969 583.328125 999.441406 C 579.246094 996.714844 575.234375 993.886719 571.289062 990.960938 C 567.347656 988.039062 563.476562 985.019531 559.683594 981.902344 C 555.886719 978.789062 552.171875 975.582031 548.53125 972.285156 C 544.894531 968.988281 541.339844 965.605469 537.867188 962.132812 C 534.394531 958.660156 531.011719 955.105469 527.714844 951.46875 C 524.417969 947.828125 521.210938 944.113281 518.097656 940.316406 C 514.980469 936.523438 511.960938 932.652344 509.039062 928.710938 C 506.113281 924.765625 503.285156 920.753906 500.558594 916.671875 C 497.832031 912.589844 495.207031 908.441406 492.679688 904.230469 C 490.15625 900.019531 487.738281 895.75 485.421875 891.417969 C 483.109375 887.089844 480.902344 882.703125 478.804688 878.265625 C 476.703125 873.828125 474.714844 869.339844 472.835938 864.804688 C 470.957031 860.269531 469.191406 855.6875 467.535156 851.066406 C 465.882812 846.445312 464.34375 841.785156 462.917969 837.085938 C 461.492188 832.386719 460.183594 827.65625 458.992188 822.894531 C 457.796875 818.132812 456.722656 813.34375 455.765625 808.527344 C 454.804688 803.710938 453.96875 798.875 453.246094 794.019531 C 452.527344 789.164062 451.925781 784.292969 451.445312 779.40625 C 450.964844 774.519531 450.601562 769.625 450.363281 764.71875 C 450.121094 759.816406 450 754.910156 450 750 C 450 745.089844 450.121094 740.183594 450.363281 735.28125 C 450.601562 730.375 450.964844 725.480469 451.445312 720.59375 C 451.925781 715.707031 452.527344 710.835938 453.246094 705.980469 C 453.96875 701.125 454.804688 696.289062 455.765625 691.472656 C 456.722656 686.65625 457.796875 681.867188 458.992188 677.105469 C 460.183594 672.34375 461.492188 667.613281 462.917969 662.914062 C 464.34375 658.214844 465.882812 653.554688 467.535156 648.933594 C 469.191406 644.308594 470.957031 639.730469 472.835938 635.195312 C 474.714844 630.660156 476.703125 626.171875 478.804688 621.734375 C 480.902344 617.296875 483.109375 612.910156 485.421875 608.582031 C 487.738281 604.25 490.15625 599.980469 492.679688 595.769531 C 495.207031 591.558594 497.832031 587.410156 500.558594 583.328125 C 503.285156 579.246094 506.113281 575.234375 509.039062 571.289062 C 511.960938 567.347656 514.980469 563.476562 518.097656 559.683594 C 521.210938 555.886719 524.417969 552.171875 527.714844 548.53125 C 531.011719 544.894531 534.394531 541.339844 537.867188 537.867188 C 541.339844 534.394531 544.894531 531.011719 548.53125 527.714844 C 552.171875 524.417969 555.886719 521.210938 559.683594 518.097656 C 563.476562 514.980469 567.347656 511.960938 571.289062 509.039062 C 575.234375 506.113281 579.246094 503.285156 583.328125 500.558594 C 587.410156 497.832031 591.558594 495.207031 595.769531 492.679688 C 599.980469 490.15625 604.25 487.738281 608.582031 485.421875 C 612.910156 483.109375 617.296875 480.902344 621.734375 478.804688 C 626.171875 476.703125 630.660156 474.714844 635.195312 472.835938 C 639.730469 470.957031 644.308594 469.191406 648.933594 467.535156 C 653.554688 465.882812 658.214844 464.34375 662.914062 462.917969 C 667.613281 461.492188 672.34375 460.183594 677.105469 458.992188 C 681.867188 457.796875 686.65625 456.722656 691.472656 455.765625 C 696.289062 454.804688 701.125 453.96875 705.980469 453.246094 C 710.835938 452.527344 715.707031 451.925781 720.59375 451.445312 C 725.480469 450.964844 730.375 450.601562 735.28125 450.363281 C 740.183594 450.121094 745.089844 450 750 450 C 754.910156 450 759.816406 450.121094 764.71875 450.359375 C 769.625 450.601562 774.519531 450.964844 779.40625 451.445312 C 784.292969 451.925781 789.164062 452.527344 794.019531 453.246094 C 798.875 453.96875 803.710938 454.804688 808.527344 455.765625 C 813.34375 456.722656 818.132812 457.796875 822.894531 458.992188 C 827.65625 460.183594 832.386719 461.492188 837.085938 462.917969 C 841.785156 464.34375 846.445312 465.882812 851.066406 467.535156 C 855.691406 469.191406 860.269531 470.957031 864.804688 472.835938 C 869.339844 474.714844 873.828125 476.703125 878.265625 478.804688 C 882.703125 480.902344 887.089844 483.109375 891.417969 485.421875 C 895.75 487.738281 900.019531 490.15625 904.230469 492.679688 C 908.441406 495.207031 912.589844 497.832031 916.671875 500.558594 C 920.753906 503.285156 924.765625 506.113281 928.710938 509.039062 C 932.652344 511.960938 936.523438 514.980469 940.316406 518.097656 C 944.113281 521.210938 947.828125 524.417969 951.46875 527.714844 C 955.105469 531.011719 958.660156 534.394531 962.132812 537.867188 C 965.605469 541.339844 968.988281 544.894531 972.285156 548.53125 C 975.582031 552.171875 978.789062 555.886719 981.902344 559.683594 C 985.019531 563.476562 988.039062 567.347656 990.960938 571.289062 C 993.886719 575.234375 996.714844 579.246094 999.441406 583.328125 C 1002.167969 587.410156 1004.792969 591.558594 1007.320312 595.769531 C 1009.84375 599.980469 1012.261719 604.25 1014.578125 608.582031 C 1016.890625 612.910156 1019.097656 617.296875 1021.195312 621.734375 C 1023.296875 626.171875 1025.285156 630.660156 1027.164062 635.195312 C 1029.042969 639.730469 1030.808594 644.308594 1032.464844 648.933594 C 1034.117188 653.554688 1035.65625 658.214844 1037.082031 662.914062 C 1038.507812 667.613281 1039.816406 672.34375 1041.007812 677.105469 C 1042.203125 681.867188 1043.277344 686.65625 1044.234375 691.472656 C 1045.195312 696.289062 1046.03125 701.125 1046.753906 705.980469 C 1047.472656 710.835938 1048.074219 715.707031 1048.554688 720.59375 C 1049.035156 725.480469 1049.398438 730.375 1049.640625 735.28125 C 1049.878906 740.183594 1050 745.089844 1050 750 Z M 1050 750 " fill-opacity="1" fill-rule="nonzero"/><path fill="#a3a3a4" d="M 750 329.976562 C 716.863281 329.976562 690 303.113281 690 269.976562 L 690 210 C 690 176.863281 716.863281 150 750 150 C 783.136719 150 810 176.863281 810 210 L 810 269.976562 C 810 303.113281 783.136719 329.976562 750 329.976562 Z M 750 329.976562 " fill-opacity="1" fill-rule="nonzero"/><path fill="#a3a3a4" d="M 1089.433594 470.574219 C 1074.082031 470.574219 1058.730469 464.722656 1047.011719 453.011719 C 1023.574219 429.585938 1023.574219 391.597656 1046.984375 368.160156 L 1089.375 325.746094 C 1112.8125 302.308594 1150.808594 302.300781 1174.246094 325.722656 C 1197.683594 349.144531 1197.683594 387.136719 1174.277344 410.574219 L 1131.886719 452.988281 C 1120.167969 464.714844 1104.785156 470.574219 1089.433594 470.574219 Z M 1089.433594 470.574219 " fill-opacity="1" fill-rule="nonzero"/><path fill="#a3a3a4" d="M 1290 810 L 1230.03125 810 C 1196.894531 810 1170.03125 783.136719 1170.03125 750 C 1170.03125 716.863281 1196.894531 690 1230.03125 690 L 1290 690 C 1323.136719 690 1350 716.863281 1350 750 C 1350 783.136719 1323.136719 810 1290 810 Z M 1290 810 " fill-opacity="1" fill-rule="nonzero"/><path fill="#a3a3a4" d="M 1131.824219 1191.839844 C 1116.476562 1191.839844 1101.09375 1185.980469 1089.375 1174.253906 L 1046.984375 1131.839844 C 1023.574219 1108.402344 1023.574219 1070.410156 1047.011719 1046.988281 C 1070.449219 1023.566406 1108.449219 1023.558594 1131.886719 1047.011719 L 1174.277344 1089.425781 C 1197.683594 1112.863281 1197.683594 1150.855469 1174.246094 1174.277344 C 1162.53125 1185.988281 1147.175781 1191.839844 1131.824219 1191.839844 Z M 1131.824219 1191.839844 " fill-opacity="1" fill-rule="nonzero"/><path fill="#a3a3a4" d="M 750 1350 C 716.863281 1350 690 1323.136719 690 1290 L 690 1230.023438 C 690 1196.886719 716.863281 1170.023438 750 1170.023438 C 783.136719 1170.023438 810 1196.886719 810 1230.023438 L 810 1290 C 810 1323.136719 783.136719 1350 750 1350 Z M 750 1350 " fill-opacity="1" fill-rule="nonzero"/><path fill="#a3a3a4" d="M 368.175781 1191.839844 C 352.824219 1191.839844 337.46875 1185.988281 325.753906 1174.277344 C 302.316406 1150.855469 302.316406 1112.863281 325.722656 1089.425781 L 368.113281 1047.011719 C 391.550781 1023.558594 429.550781 1023.566406 452.988281 1046.988281 C 476.425781 1070.414062 476.425781 1108.402344 453.015625 1131.839844 L 410.625 1174.253906 C 398.90625 1185.972656 383.523438 1191.839844 368.175781 1191.839844 Z M 368.175781 1191.839844 " fill-opacity="1" fill-rule="nonzero"/><path fill="#a3a3a4" d="M 269.96875 810 L 210 810 C 176.863281 810 150 783.136719 150 750 C 150 716.863281 176.863281 690 210 690 L 269.96875 690 C 303.105469 690 329.96875 716.863281 329.96875 750 C 329.96875 783.136719 303.105469 810 269.96875 810 Z M 269.96875 810 " fill-opacity="1" fill-rule="nonzero"/><path fill="#a3a3a4" d="M 410.566406 470.574219 C 395.214844 470.574219 379.832031 464.714844 368.113281 452.988281 L 325.722656 410.574219 C 302.316406 387.136719 302.316406 349.144531 325.753906 325.722656 C 349.191406 302.300781 387.1875 302.292969 410.625 325.746094 L 453.015625 368.160156 C 476.425781 391.597656 476.425781 429.585938 452.988281 453.011719 C 441.269531 464.722656 425.917969 470.574219 410.566406 470.574219 Z M 410.566406 470.574219 " fill-opacity="1" fill-rule="nonzero"/></svg>