<svg xmlns="http://www.w3.org/2000/svg" xmlns:xlink="http://www.w3.org/1999/xlink" width="2000" zoomAndPan="magnify" viewBox="0 0 1500 1499.999933" height="2000" preserveAspectRatio="xMidYMid meet" version="1.0"><defs><clipPath id="4511c195d0"><path d="M 150 192.414062 L 1328.25 192.414062 L 1328.25 1307.664062 L 150 1307.664062 Z M 150 192.414062 " clip-rule="nonzero"/></clipPath></defs><g clip-path="url(#4511c195d0)"><path fill="#a3a3a4" d="M 1311.808594 1273.4375 L 1219.472656 1273.4375 L 1219.472656 587.304688 L 1008.769531 587.304688 L 1008.769531 1273.191406 L 966.777344 1273.191406 L 966.777344 797.761719 L 756.074219 797.761719 L 756.074219 1273.4375 L 714.082031 1273.4375 L 714.082031 1037.6875 L 503.378906 1037.6875 L 503.378906 1273.4375 L 183.890625 1273.4375 L 183.890625 840.984375 C 183.890625 801.691406 203.78125 765.839844 237.179688 745.210938 C 270.578125 724.582031 311.585938 722.371094 346.703125 739.808594 C 390.664062 761.417969 438.058594 771.976562 484.960938 771.976562 C 565.265625 771.976562 644.832031 741.035156 704.75 682.097656 L 1139.417969 254.554688 L 1139.417969 364.816406 C 1139.417969 374.148438 1147.027344 381.761719 1156.359375 381.761719 C 1165.691406 381.761719 1173.304688 374.148438 1173.304688 364.816406 L 1173.304688 209.367188 C 1173.304688 200.035156 1165.691406 192.421875 1156.359375 192.421875 L 991.828125 192.421875 C 982.496094 192.421875 974.882812 200.035156 974.882812 209.367188 C 974.882812 218.699219 982.496094 226.3125 991.828125 226.3125 L 1119.769531 226.3125 L 680.929688 658.03125 C 596.453125 741.28125 468.261719 761.664062 361.683594 709.355469 C 315.761719 686.761719 262.71875 689.464844 219.25 716.476562 C 175.785156 743.492188 150 790.148438 150 841.230469 L 150 1290.628906 C 150 1299.960938 157.613281 1307.574219 166.945312 1307.574219 L 731.273438 1307.574219 C 732.746094 1307.574219 733.972656 1307.328125 735.203125 1307.082031 C 736.429688 1307.328125 737.902344 1307.574219 739.132812 1307.574219 L 983.722656 1307.574219 C 985.195312 1307.574219 986.421875 1307.328125 987.652344 1307.082031 C 988.878906 1307.328125 990.351562 1307.574219 991.582031 1307.574219 L 1311.5625 1307.574219 C 1320.894531 1307.574219 1328.507812 1299.960938 1328.507812 1290.628906 C 1328.753906 1281.050781 1321.140625 1273.4375 1311.808594 1273.4375 Z M 1311.808594 1273.4375 " fill-opacity="1" fill-rule="nonzero"/></g><path fill="#a3a3a4" d="M 300.78125 926.933594 L 300.78125 1167.105469 C 300.78125 1176.4375 308.394531 1184.050781 317.726562 1184.050781 C 327.058594 1184.050781 334.671875 1176.4375 334.671875 1167.105469 L 334.671875 926.933594 C 334.671875 917.601562 327.058594 909.988281 317.726562 909.988281 C 308.394531 909.988281 300.78125 917.601562 300.78125 926.933594 Z M 300.78125 926.933594 " fill-opacity="1" fill-rule="nonzero"/><path fill="#a3a3a4" d="M 564.105469 453.140625 C 564.828125 454.886719 565.511719 456.652344 566.148438 458.4375 C 566.785156 460.21875 567.378906 462.015625 567.929688 463.828125 C 568.476562 465.636719 568.984375 467.460938 569.441406 469.296875 C 569.902344 471.132812 570.316406 472.980469 570.6875 474.835938 C 571.054688 476.695312 571.378906 478.558594 571.65625 480.429688 C 571.933594 482.304688 572.167969 484.179688 572.351562 486.066406 C 572.539062 487.949219 572.675781 489.835938 572.769531 491.726562 C 572.863281 493.617188 572.910156 495.511719 572.910156 497.402344 C 572.910156 499.296875 572.863281 501.1875 572.769531 503.078125 C 572.675781 504.96875 572.539062 506.855469 572.351562 508.742188 C 572.167969 510.625 571.9375 512.503906 571.65625 514.375 C 571.378906 516.246094 571.058594 518.113281 570.6875 519.96875 C 570.316406 521.824219 569.902344 523.671875 569.445312 525.507812 C 568.984375 527.34375 568.480469 529.167969 567.929688 530.980469 C 567.378906 532.792969 566.785156 534.589844 566.148438 536.371094 C 565.511719 538.152344 564.828125 539.917969 564.105469 541.667969 C 563.382812 543.417969 562.613281 545.144531 561.804688 546.859375 C 560.996094 548.570312 560.144531 550.257812 559.253906 551.929688 C 558.359375 553.597656 557.425781 555.246094 556.453125 556.867188 C 555.480469 558.492188 554.46875 560.089844 553.417969 561.664062 C 552.363281 563.238281 551.273438 564.785156 550.148438 566.304688 C 549.019531 567.828125 547.855469 569.320312 546.65625 570.78125 C 545.453125 572.246094 544.21875 573.679688 542.945312 575.082031 C 541.675781 576.484375 540.371094 577.855469 539.03125 579.191406 C 537.691406 580.53125 536.324219 581.835938 534.921875 583.109375 C 533.519531 584.378906 532.085938 585.613281 530.621094 586.816406 C 529.15625 588.015625 527.667969 589.179688 526.144531 590.308594 C 524.625 591.4375 523.078125 592.527344 521.503906 593.578125 C 519.929688 594.628906 518.332031 595.640625 516.707031 596.613281 C 515.085938 597.589844 513.4375 598.519531 511.769531 599.414062 C 510.097656 600.304688 508.40625 601.15625 506.695312 601.964844 C 504.984375 602.777344 503.253906 603.542969 501.507812 604.265625 C 499.757812 604.992188 497.992188 605.671875 496.210938 606.308594 C 494.425781 606.949219 492.628906 607.542969 490.820312 608.089844 C 489.007812 608.640625 487.183594 609.144531 485.347656 609.605469 C 483.511719 610.066406 481.664062 610.480469 479.808594 610.847656 C 477.953125 611.21875 476.085938 611.542969 474.214844 611.820312 C 472.34375 612.097656 470.464844 612.328125 468.578125 612.515625 C 466.695312 612.699219 464.808594 612.839844 462.917969 612.933594 C 461.027344 613.023438 459.136719 613.070312 457.242188 613.070312 C 455.347656 613.070312 453.457031 613.027344 451.566406 612.933594 C 449.675781 612.839844 447.789062 612.699219 445.90625 612.515625 C 444.019531 612.328125 442.144531 612.097656 440.269531 611.820312 C 438.398438 611.542969 436.535156 611.21875 434.675781 610.847656 C 432.820312 610.480469 430.972656 610.066406 429.136719 609.605469 C 427.300781 609.144531 425.476562 608.640625 423.664062 608.089844 C 421.855469 607.542969 420.058594 606.949219 418.273438 606.3125 C 416.492188 605.671875 414.726562 604.992188 412.976562 604.265625 C 411.230469 603.542969 409.5 602.777344 407.789062 601.96875 C 406.078125 601.15625 404.386719 600.304688 402.71875 599.414062 C 401.046875 598.523438 399.402344 597.589844 397.777344 596.617188 C 396.152344 595.644531 394.554688 594.628906 392.980469 593.578125 C 391.40625 592.527344 389.859375 591.4375 388.339844 590.308594 C 386.820312 589.183594 385.328125 588.019531 383.863281 586.816406 C 382.398438 585.617188 380.96875 584.378906 379.5625 583.109375 C 378.160156 581.835938 376.792969 580.53125 375.453125 579.195312 C 374.113281 577.855469 372.808594 576.484375 371.539062 575.082031 C 370.265625 573.679688 369.03125 572.246094 367.828125 570.785156 C 366.628906 569.320312 365.464844 567.828125 364.335938 566.308594 C 363.210938 564.789062 362.121094 563.238281 361.066406 561.667969 C 360.015625 560.09375 359.003906 558.492188 358.03125 556.871094 C 357.058594 555.246094 356.125 553.597656 355.230469 551.929688 C 354.339844 550.261719 353.488281 548.570312 352.679688 546.859375 C 351.871094 545.148438 351.101562 543.417969 350.378906 541.667969 C 349.652344 539.921875 348.972656 538.15625 348.335938 536.371094 C 347.699219 534.589844 347.105469 532.792969 346.554688 530.980469 C 346.003906 529.167969 345.5 527.347656 345.039062 525.507812 C 344.582031 523.671875 344.164062 521.828125 343.796875 519.96875 C 343.425781 518.113281 343.101562 516.25 342.824219 514.375 C 342.546875 512.503906 342.316406 510.625 342.128906 508.742188 C 341.945312 506.859375 341.804688 504.972656 341.714844 503.082031 C 341.621094 501.191406 341.574219 499.296875 341.574219 497.40625 C 341.574219 495.511719 341.621094 493.621094 341.710938 491.730469 C 341.804688 489.839844 341.945312 487.949219 342.128906 486.066406 C 342.316406 484.183594 342.546875 482.304688 342.824219 480.433594 C 343.101562 478.558594 343.425781 476.695312 343.796875 474.839844 C 344.164062 472.980469 344.578125 471.136719 345.039062 469.300781 C 345.5 467.464844 346.003906 465.640625 346.554688 463.828125 C 347.101562 462.015625 347.695312 460.21875 348.335938 458.4375 C 348.972656 456.65625 349.652344 454.890625 350.378906 453.140625 C 351.101562 451.390625 351.871094 449.660156 352.679688 447.949219 C 353.488281 446.238281 354.339844 444.546875 355.230469 442.878906 C 356.125 441.210938 357.054688 439.5625 358.03125 437.9375 C 359.003906 436.316406 360.015625 434.714844 361.066406 433.144531 C 362.117188 431.570312 363.207031 430.023438 364.335938 428.5 C 365.464844 426.980469 366.628906 425.488281 367.828125 424.027344 C 369.03125 422.5625 370.265625 421.128906 371.535156 419.726562 C 372.808594 418.324219 374.113281 416.953125 375.453125 415.613281 C 376.789062 414.277344 378.160156 412.972656 379.5625 411.699219 C 380.964844 410.429688 382.398438 409.191406 383.863281 407.992188 C 385.324219 406.789062 386.816406 405.625 388.335938 404.5 C 389.859375 403.371094 391.40625 402.28125 392.980469 401.230469 C 394.554688 400.179688 396.152344 399.164062 397.777344 398.191406 C 399.398438 397.21875 401.046875 396.285156 402.714844 395.394531 C 404.386719 394.5 406.074219 393.652344 407.785156 392.839844 C 409.496094 392.03125 411.226562 391.265625 412.976562 390.539062 C 414.726562 389.816406 416.492188 389.136719 418.273438 388.496094 C 420.054688 387.859375 421.851562 387.265625 423.664062 386.714844 C 425.476562 386.167969 427.300781 385.664062 429.136719 385.203125 C 430.972656 384.742188 432.820312 384.328125 434.675781 383.957031 C 436.53125 383.589844 438.394531 383.265625 440.269531 382.988281 C 442.140625 382.710938 444.019531 382.476562 445.902344 382.292969 C 447.789062 382.105469 449.675781 381.96875 451.566406 381.875 C 453.457031 381.78125 455.347656 381.734375 457.242188 381.734375 C 459.132812 381.734375 461.027344 381.78125 462.917969 381.875 C 464.808594 381.96875 466.695312 382.105469 468.578125 382.292969 C 470.460938 382.476562 472.339844 382.710938 474.210938 382.988281 C 476.085938 383.265625 477.949219 383.589844 479.804688 383.957031 C 481.664062 384.328125 483.507812 384.742188 485.347656 385.203125 C 487.183594 385.660156 489.007812 386.167969 490.816406 386.714844 C 492.628906 387.265625 494.425781 387.859375 496.207031 388.496094 C 497.992188 389.132812 499.757812 389.816406 501.503906 390.539062 C 503.253906 391.265625 504.984375 392.03125 506.695312 392.839844 C 508.40625 393.648438 510.097656 394.5 511.765625 395.394531 C 513.4375 396.285156 515.082031 397.21875 516.707031 398.191406 C 518.328125 399.164062 519.929688 400.175781 521.503906 401.230469 C 523.078125 402.28125 524.625 403.371094 526.144531 404.496094 C 527.664062 405.625 529.15625 406.789062 530.621094 407.992188 C 532.082031 409.191406 533.515625 410.425781 534.917969 411.699219 C 536.320312 412.96875 537.691406 414.273438 539.03125 415.613281 C 540.371094 416.953125 541.675781 418.324219 542.945312 419.726562 C 544.214844 421.128906 545.453125 422.5625 546.652344 424.023438 C 547.855469 425.488281 549.019531 426.980469 550.148438 428.5 C 551.273438 430.019531 552.363281 431.566406 553.414062 433.140625 C 554.46875 434.714844 555.480469 436.3125 556.453125 437.9375 C 557.425781 439.5625 558.359375 441.207031 559.25 442.878906 C 560.144531 444.546875 560.996094 446.238281 561.804688 447.949219 C 562.613281 449.660156 563.378906 451.390625 564.105469 453.140625 Z M 564.105469 453.140625 " fill-opacity="1" fill-rule="nonzero"/></svg>