<svg xmlns="http://www.w3.org/2000/svg" xmlns:xlink="http://www.w3.org/1999/xlink" width="2000" zoomAndPan="magnify" viewBox="0 0 1500 1499.999933" height="2000" preserveAspectRatio="xMidYMid meet" version="1.0"><defs><clipPath id="da56e7943f"><path d="M 252 199.5 L 806 199.5 L 806 1145 L 252 1145 Z M 252 199.5 " clip-rule="nonzero"/></clipPath><clipPath id="cf6a863aad"><path d="M 545 355 L 1229 355 L 1229 1300.5 L 545 1300.5 Z M 545 355 " clip-rule="nonzero"/></clipPath></defs><g clip-path="url(#da56e7943f)"><path fill="#a3a3a4" d="M 622.460938 199.5 C 636.394531 202.691406 650.617188 205.015625 664.550781 208.789062 C 723.183594 225.625 769.628906 259.296875 805.621094 309.511719 C 694.738281 344.636719 619.269531 415.753906 587.917969 528.085938 C 555.988281 643.035156 591.691406 739.984375 675 822.421875 C 558.601562 897.894531 482.839844 996.585938 489.808594 1143.464844 C 485.742188 1143.753906 482.550781 1144.332031 479.355469 1144.332031 C 441.910156 1144.332031 404.46875 1144.625 366.730469 1144.332031 C 308.097656 1144.042969 264.265625 1106.597656 254.105469 1048.835938 C 253.816406 1046.222656 252.945312 1043.898438 252.074219 1041.578125 L 252.074219 943.464844 C 252.65625 940.5625 253.816406 937.660156 254.105469 934.757812 C 257.300781 900.214844 268.328125 867.996094 285.746094 838.386719 C 329.578125 764.367188 394.597656 716.183594 473.261719 684.832031 C 478.484375 682.800781 483.710938 680.769531 486.613281 679.609375 C 461.648438 658.710938 434.945312 639.550781 412.015625 616.621094 C 368.761719 573.078125 341.1875 520.25 340.027344 456.972656 C 337.703125 341.441406 417.820312 236.945312 529.863281 208.207031 C 542.636719 205.015625 555.699219 202.402344 568.761719 199.5 Z M 622.460938 199.5 " fill-opacity="1" fill-rule="nonzero"/></g><g clip-path="url(#cf6a863aad)"><path fill="#a3a3a4" d="M 780.949219 834.613281 C 763.824219 822.132812 746.117188 810.8125 730.152344 797.167969 C 682.546875 756.820312 646.554688 708.054688 636.105469 645.066406 C 624.203125 573.371094 642.488281 508.058594 688.351562 452.328125 C 753.953125 372.210938 840.164062 339.703125 941.46875 361.761719 C 1048.289062 384.984375 1114.472656 454.359375 1138.273438 561.179688 C 1156.558594 642.746094 1129.566406 712.410156 1073.253906 771.042969 C 1052.0625 792.816406 1025.9375 809.941406 1001.847656 829.097656 C 999.523438 830.839844 997.203125 832.292969 993.429688 834.613281 C 1007.070312 840.417969 1019.84375 845.0625 1032.035156 850.871094 C 1106.34375 885.703125 1167.011719 935.339844 1205.035156 1009.648438 C 1221 1040.707031 1230 1073.796875 1228.839844 1109.210938 C 1227.96875 1137.367188 1228.546875 1165.523438 1228.546875 1193.96875 C 1228.546875 1244.1875 1191.394531 1289.179688 1142.046875 1298.46875 C 1134.5 1299.917969 1126.664062 1300.5 1118.824219 1300.5 L 656.421875 1300.5 C 597.789062 1300.5 548.152344 1255.507812 546.410156 1196.871094 C 545.25 1155.074219 544.378906 1112.695312 550.472656 1071.476562 C 560.050781 1007.324219 597.496094 957.109375 645.101562 914.4375 C 682.257812 881.058594 724.925781 856.675781 771.660156 839.257812 C 774.5625 838.097656 777.175781 837.226562 779.789062 836.066406 C 780.660156 835.773438 780.949219 834.90625 780.949219 834.613281 Z M 780.949219 834.613281 " fill-opacity="1" fill-rule="nonzero"/></g></svg>