<svg xmlns="http://www.w3.org/2000/svg" xmlns:xlink="http://www.w3.org/1999/xlink" width="2000" zoomAndPan="magnify" viewBox="0 0 1500 1499.999933" height="2000" preserveAspectRatio="xMidYMid meet" version="1.0"><defs><clipPath id="0df1e8464a"><path d="M 150 180.75 L 1350 180.75 L 1350 1319.25 L 150 1319.25 Z M 150 180.75 " clip-rule="nonzero"/></clipPath></defs><g clip-path="url(#0df1e8464a)"><path fill="#a3a3a4" d="M 1349.914062 749.984375 C 1349.914062 800.503906 1303.476562 843.851562 1289.996094 890.3125 C 1276.144531 938.027344 1291.851562 999.371094 1265.742188 1040.949219 C 1239.609375 1082.574219 1177.3125 1095.296875 1140.894531 1128.875 C 1104.992188 1161.972656 1087.5625 1223.085938 1043.601562 1246.535156 C 1000.765625 1269.386719 940.351562 1250.140625 891.65625 1262.132812 C 844.882812 1273.660156 800.601562 1319.242188 750.015625 1319.242188 C 699.433594 1319.242188 655.148438 1273.652344 608.375 1262.132812 C 559.679688 1250.132812 499.257812 1269.386719 456.433594 1246.535156 C 412.460938 1223.078125 395.039062 1161.972656 359.140625 1128.875 C 322.71875 1095.296875 260.421875 1082.574219 234.289062 1040.949219 C 208.1875 999.371094 223.886719 938.027344 210.039062 890.3125 C 196.523438 843.84375 150.085938 800.496094 150.085938 749.984375 C 150.085938 699.472656 196.523438 656.117188 210.003906 609.65625 C 223.855469 561.9375 208.148438 500.59375 234.257812 459.019531 C 260.390625 417.394531 322.6875 404.671875 359.105469 371.09375 C 395.007812 337.996094 412.4375 276.882812 456.398438 253.429688 C 499.234375 230.582031 559.648438 249.828125 608.34375 237.835938 C 655.117188 226.304688 699.398438 180.726562 749.984375 180.726562 C 800.566406 180.726562 844.851562 226.3125 891.625 237.835938 C 940.320312 249.835938 1000.742188 230.582031 1043.566406 253.429688 C 1087.539062 276.890625 1104.960938 337.996094 1140.859375 371.09375 C 1177.28125 404.671875 1239.578125 417.394531 1265.710938 459.019531 C 1291.8125 500.59375 1276.113281 561.9375 1289.964844 609.65625 C 1303.476562 656.117188 1349.914062 699.464844 1349.914062 749.984375 Z M 1349.914062 749.984375 " fill-opacity="1" fill-rule="nonzero"/></g><path fill="#353535" d="M 1124.304688 750.128906 C 1124.304688 756.234375 1124.152344 762.332031 1123.855469 768.429688 C 1123.554688 774.527344 1123.105469 780.613281 1122.503906 786.6875 C 1121.90625 792.765625 1121.15625 798.820312 1120.257812 804.859375 C 1119.363281 810.898438 1118.316406 816.910156 1117.121094 822.898438 C 1115.929688 828.886719 1114.589844 834.839844 1113.105469 840.761719 C 1111.617188 846.683594 1109.988281 852.566406 1108.210938 858.40625 C 1106.4375 864.246094 1104.519531 870.042969 1102.457031 875.789062 C 1100.398438 881.539062 1098.195312 887.230469 1095.855469 892.871094 C 1093.515625 898.511719 1091.039062 904.089844 1088.421875 909.609375 C 1085.808594 915.128906 1083.058594 920.578125 1080.175781 925.960938 C 1077.292969 931.347656 1074.277344 936.65625 1071.132812 941.890625 C 1067.988281 947.128906 1064.71875 952.285156 1061.320312 957.359375 C 1057.921875 962.433594 1054.402344 967.425781 1050.757812 972.328125 C 1047.117188 977.230469 1043.355469 982.042969 1039.472656 986.761719 C 1035.59375 991.480469 1031.601562 996.101562 1027.492188 1000.625 C 1023.386719 1005.148438 1019.167969 1009.566406 1014.84375 1013.882812 C 1010.519531 1018.199219 1006.089844 1022.410156 1001.558594 1026.507812 C 997.027344 1030.609375 992.398438 1034.59375 987.667969 1038.464844 C 982.941406 1042.339844 978.121094 1046.09375 973.207031 1049.730469 C 968.296875 1053.367188 963.296875 1056.878906 958.210938 1060.273438 C 953.125 1063.664062 947.960938 1066.929688 942.714844 1070.066406 C 937.46875 1073.203125 932.148438 1076.210938 926.753906 1079.089844 C 921.359375 1081.96875 915.898438 1084.710938 910.371094 1087.320312 C 904.839844 1089.933594 899.25 1092.40625 893.601562 1094.742188 C 887.949219 1097.078125 882.246094 1099.273438 876.488281 1101.332031 C 870.726562 1103.386719 864.921875 1105.300781 859.070312 1107.074219 C 853.214844 1108.84375 847.324219 1110.472656 841.390625 1111.957031 C 835.457031 1113.441406 829.492188 1114.777344 823.492188 1115.96875 C 817.496094 1117.160156 811.46875 1118.203125 805.421875 1119.097656 C 799.371094 1119.992188 793.300781 1120.742188 787.214844 1121.339844 C 781.128906 1121.9375 775.03125 1122.386719 768.921875 1122.683594 C 762.8125 1122.984375 756.699219 1123.136719 750.585938 1123.136719 C 744.46875 1123.136719 738.355469 1122.984375 732.246094 1122.683594 C 726.136719 1122.386719 720.039062 1121.9375 713.953125 1121.339844 C 707.867188 1120.742188 701.796875 1119.992188 695.75 1119.097656 C 689.699219 1118.203125 683.675781 1117.160156 677.675781 1115.96875 C 671.675781 1114.777344 665.710938 1113.441406 659.777344 1111.957031 C 653.84375 1110.472656 647.953125 1108.84375 642.097656 1107.074219 C 636.246094 1105.300781 630.441406 1103.386719 624.683594 1101.332031 C 618.921875 1099.273438 613.21875 1097.078125 607.566406 1094.742188 C 601.917969 1092.40625 596.328125 1089.933594 590.796875 1087.320312 C 585.269531 1084.710938 579.808594 1081.96875 574.414062 1079.089844 C 569.019531 1076.214844 563.699219 1073.203125 558.453125 1070.066406 C 553.207031 1066.929688 548.042969 1063.664062 542.957031 1060.273438 C 537.871094 1056.878906 532.871094 1053.367188 527.960938 1049.730469 C 523.046875 1046.09375 518.226562 1042.339844 513.5 1038.464844 C 508.773438 1034.59375 504.140625 1030.609375 499.609375 1026.507812 C 495.078125 1022.410156 490.648438 1018.199219 486.324219 1013.882812 C 482 1009.566406 477.785156 1005.148438 473.675781 1000.625 C 469.570312 996.101562 465.574219 991.480469 461.695312 986.761719 C 457.816406 982.042969 454.054688 977.230469 450.410156 972.328125 C 446.765625 967.425781 443.246094 962.433594 439.847656 957.359375 C 436.449219 952.285156 433.179688 947.128906 430.035156 941.890625 C 426.890625 936.65625 423.875 931.347656 420.992188 925.960938 C 418.109375 920.578125 415.359375 915.128906 412.746094 909.609375 C 410.132812 904.089844 407.652344 898.511719 405.3125 892.871094 C 402.972656 887.230469 400.773438 881.539062 398.710938 875.789062 C 396.652344 870.042969 394.734375 864.246094 392.957031 858.40625 C 391.183594 852.566406 389.550781 846.683594 388.066406 840.761719 C 386.578125 834.839844 385.238281 828.886719 384.046875 822.898438 C 382.851562 816.910156 381.808594 810.898438 380.910156 804.859375 C 380.011719 798.820312 379.265625 792.765625 378.664062 786.6875 C 378.066406 780.613281 377.617188 774.527344 377.316406 768.429688 C 377.015625 762.332031 376.863281 756.234375 376.863281 750.128906 C 376.863281 744.023438 377.015625 737.921875 377.316406 731.824219 C 377.617188 725.726562 378.066406 719.640625 378.664062 713.566406 C 379.265625 707.492188 380.011719 701.433594 380.910156 695.398438 C 381.808594 689.359375 382.851562 683.34375 384.046875 677.359375 C 385.238281 671.371094 386.578125 665.417969 388.066406 659.496094 C 389.550781 653.574219 391.183594 647.691406 392.957031 641.851562 C 394.734375 636.007812 396.652344 630.214844 398.710938 624.464844 C 400.773438 618.71875 402.972656 613.023438 405.3125 607.382812 C 407.652344 601.746094 410.132812 596.164062 412.746094 590.648438 C 415.359375 585.128906 418.109375 579.675781 420.992188 574.292969 C 423.875 568.910156 426.890625 563.601562 430.035156 558.363281 C 433.179688 553.128906 436.449219 547.972656 439.847656 542.894531 C 443.246094 537.820312 446.765625 532.832031 450.410156 527.929688 C 454.054688 523.023438 457.816406 518.214844 461.695312 513.496094 C 465.574219 508.777344 469.570312 504.15625 473.675781 499.632812 C 477.785156 495.109375 482 490.6875 486.324219 486.371094 C 490.648438 482.054688 495.078125 477.847656 499.609375 473.75 C 504.140625 469.648438 508.773438 465.664062 513.5 461.789062 C 518.226562 457.917969 523.046875 454.164062 527.960938 450.527344 C 532.871094 446.890625 537.871094 443.375 542.957031 439.984375 C 548.042969 436.59375 553.207031 433.328125 558.453125 430.1875 C 563.699219 427.050781 569.019531 424.042969 574.414062 421.164062 C 579.808594 418.289062 585.269531 415.542969 590.796875 412.933594 C 596.328125 410.324219 601.917969 407.851562 607.566406 405.515625 C 613.21875 403.179688 618.921875 400.980469 624.683594 398.925781 C 630.441406 396.867188 636.246094 394.953125 642.097656 393.183594 C 647.953125 391.410156 653.84375 389.78125 659.777344 388.300781 C 665.710938 386.816406 671.675781 385.480469 677.675781 384.289062 C 683.675781 383.097656 689.699219 382.054688 695.75 381.160156 C 701.796875 380.261719 707.867188 379.515625 713.953125 378.917969 C 720.039062 378.320312 726.136719 377.871094 732.246094 377.570312 C 738.355469 377.269531 744.46875 377.121094 750.585938 377.121094 C 756.699219 377.121094 762.8125 377.269531 768.921875 377.570312 C 775.03125 377.871094 781.128906 378.320312 787.214844 378.917969 C 793.300781 379.515625 799.371094 380.261719 805.421875 381.160156 C 811.46875 382.054688 817.496094 383.097656 823.492188 384.289062 C 829.492188 385.480469 835.457031 386.816406 841.390625 388.300781 C 847.324219 389.78125 853.214844 391.410156 859.070312 393.183594 C 864.921875 394.953125 870.726562 396.867188 876.488281 398.925781 C 882.246094 400.980469 887.949219 403.179688 893.601562 405.515625 C 899.25 407.851562 904.839844 410.324219 910.371094 412.933594 C 915.898438 415.542969 921.359375 418.289062 926.753906 421.164062 C 932.148438 424.042969 937.46875 427.050781 942.714844 430.1875 C 947.960938 433.328125 953.125 436.59375 958.210938 439.984375 C 963.296875 443.375 968.296875 446.890625 973.207031 450.527344 C 978.121094 454.164062 982.941406 457.917969 987.667969 461.789062 C 992.398438 465.664062 997.027344 469.648438 1001.558594 473.75 C 1006.089844 477.847656 1010.519531 482.054688 1014.84375 486.371094 C 1019.167969 490.6875 1023.386719 495.109375 1027.492188 499.632812 C 1031.601562 504.15625 1035.59375 508.777344 1039.472656 513.496094 C 1043.355469 518.214844 1047.113281 523.023438 1050.757812 527.929688 C 1054.402344 532.832031 1057.921875 537.820312 1061.320312 542.894531 C 1064.71875 547.972656 1067.988281 553.128906 1071.132812 558.363281 C 1074.277344 563.601562 1077.292969 568.910156 1080.175781 574.292969 C 1083.058594 579.675781 1085.808594 585.128906 1088.421875 590.648438 C 1091.039062 596.164062 1093.515625 601.746094 1095.855469 607.382812 C 1098.195312 613.023438 1100.398438 618.71875 1102.457031 624.464844 C 1104.519531 630.214844 1106.4375 636.007812 1108.210938 641.851562 C 1109.988281 647.691406 1111.617188 653.574219 1113.105469 659.496094 C 1114.589844 665.417969 1115.929688 671.371094 1117.121094 677.359375 C 1118.316406 683.34375 1119.363281 689.359375 1120.257812 695.398438 C 1121.15625 701.433594 1121.90625 707.492188 1122.503906 713.566406 C 1123.105469 719.640625 1123.554688 725.726562 1123.855469 731.824219 C 1124.152344 737.921875 1124.304688 744.023438 1124.304688 750.128906 Z M 1124.304688 750.128906 " fill-opacity="1" fill-rule="nonzero"/><path fill="#a3a3a4" d="M 872.191406 620.570312 L 983.007812 635.15625 C 1019.765625 639.992188 1035.015625 684.882812 1008.820312 711.113281 L 929.839844 790.191406 C 919.4375 800.609375 914.828125 815.476562 917.507812 829.949219 L 937.875 939.847656 C 944.632812 976.300781 906.660156 1004.671875 873.617188 987.867188 L 774.003906 937.1875 C 760.878906 930.511719 745.316406 930.71875 732.378906 937.75 L 634.15625 991.078125 C 601.578125 1008.773438 562.851562 981.421875 568.632812 944.800781 L 586.046875 834.402344 C 588.335938 819.863281 583.332031 805.125 572.652344 794.988281 L 491.578125 718.054688 C 464.6875 692.539062 478.730469 647.253906 515.34375 641.433594 L 625.726562 623.875 C 640.265625 621.5625 652.738281 612.242188 659.070312 598.960938 L 707.191406 498.082031 C 723.148438 464.621094 770.550781 463.980469 787.40625 497.007812 L 838.214844 596.558594 C 844.882812 609.664062 857.597656 618.648438 872.191406 620.570312 Z M 872.191406 620.570312 " fill-opacity="1" fill-rule="nonzero"/></svg>