<svg xmlns="http://www.w3.org/2000/svg" xmlns:xlink="http://www.w3.org/1999/xlink" width="2000" zoomAndPan="magnify" viewBox="0 0 1500 1499.999933" height="2000" preserveAspectRatio="xMidYMid meet" version="1.0"><defs><clipPath id="c536e4939b"><path d="M 439 946 L 710 946 L 710 1274.484375 L 439 1274.484375 Z M 439 946 " clip-rule="nonzero"/></clipPath></defs><path fill="#a3a3a4" d="M 1058.765625 385.222656 C 1067.316406 390.355469 1077.582031 386.933594 1081.003906 378.382812 L 1118.636719 304.824219 C 1123.769531 297.980469 1120.347656 287.71875 1111.792969 282.585938 C 1103.242188 277.453125 1092.976562 280.875 1087.84375 289.429688 L 1050.210938 362.984375 C 1046.789062 371.539062 1050.210938 381.804688 1058.765625 385.222656 Z M 1058.765625 385.222656 " fill-opacity="1" fill-rule="nonzero"/><path fill="#a3a3a4" d="M 1234.960938 388.644531 C 1229.828125 381.804688 1217.855469 380.09375 1211.011719 385.222656 L 1146.007812 433.121094 C 1139.164062 438.253906 1137.453125 450.230469 1142.585938 457.070312 C 1147.71875 463.914062 1159.691406 465.625 1166.535156 460.492188 L 1231.539062 412.59375 C 1238.382812 405.753906 1240.09375 395.488281 1234.960938 388.644531 Z M 1234.960938 388.644531 " fill-opacity="1" fill-rule="nonzero"/><path fill="#a3a3a4" d="M 1281.148438 534.050781 L 1200.746094 546.023438 C 1192.195312 547.734375 1185.351562 556.289062 1187.0625 564.839844 C 1188.773438 573.394531 1195.617188 580.238281 1204.167969 580.238281 C 1204.167969 580.238281 1205.878906 580.238281 1205.878906 580.238281 L 1286.277344 568.261719 C 1294.832031 566.550781 1301.675781 558 1299.964844 549.445312 C 1298.253906 539.179688 1289.699219 532.339844 1281.148438 534.050781 Z M 1281.148438 534.050781 " fill-opacity="1" fill-rule="nonzero"/><path fill="#a3a3a4" d="M 1274.304688 688.007812 L 1197.328125 662.347656 C 1188.773438 658.925781 1178.507812 664.058594 1175.089844 672.609375 C 1171.667969 681.164062 1176.796875 691.429688 1185.351562 694.847656 L 1262.332031 720.507812 C 1270.882812 723.929688 1281.148438 718.796875 1284.570312 710.246094 C 1287.988281 701.691406 1282.859375 691.429688 1274.304688 688.007812 Z M 1274.304688 688.007812 " fill-opacity="1" fill-rule="nonzero"/><path fill="#a3a3a4" d="M 643.082031 912.101562 L 511.363281 585.367188 L 309.507812 667.480469 C 271.871094 682.875 254.765625 725.640625 270.160156 763.273438 L 347.140625 953.15625 C 359.113281 980.527344 384.773438 999.34375 415.566406 999.34375 C 424.117188 999.34375 434.382812 997.632812 442.9375 994.210938 Z M 383.0625 766.695312 C 376.222656 766.695312 369.378906 763.273438 367.667969 756.433594 C 364.246094 747.878906 367.667969 737.617188 376.222656 734.195312 L 460.042969 699.980469 C 468.59375 696.558594 478.859375 699.980469 482.28125 708.535156 C 485.703125 717.085938 482.28125 727.351562 473.726562 730.773438 L 389.90625 764.984375 C 386.484375 766.695312 384.773438 766.695312 383.0625 766.695312 Z M 410.433594 833.410156 C 403.589844 833.410156 396.75 829.988281 395.039062 823.148438 C 391.617188 814.59375 395.039062 804.332031 403.589844 800.910156 L 487.414062 766.695312 C 495.964844 763.273438 506.230469 766.695312 509.652344 775.25 C 513.070312 783.800781 509.652344 794.066406 501.097656 797.488281 L 417.277344 831.699219 C 413.855469 833.410156 412.144531 833.410156 410.433594 833.410156 Z M 420.699219 889.863281 C 417.277344 881.308594 420.699219 871.042969 429.25 867.625 L 513.070312 833.410156 C 521.625 829.988281 531.890625 833.410156 535.308594 841.964844 C 538.730469 850.515625 535.308594 860.78125 526.757812 864.203125 L 442.9375 898.414062 C 441.226562 900.125 437.804688 900.125 436.09375 900.125 C 430.960938 900.125 424.117188 896.703125 420.699219 889.863281 Z M 420.699219 889.863281 " fill-opacity="1" fill-rule="nonzero"/><path fill="#a3a3a4" d="M 208.578125 828.277344 L 258.1875 948.023438 C 268.449219 973.683594 297.53125 987.367188 321.480469 980.527344 C 314.636719 970.261719 234.238281 771.828125 232.527344 759.855469 C 208.578125 773.539062 198.316406 802.621094 208.578125 828.277344 Z M 208.578125 828.277344 " fill-opacity="1" fill-rule="nonzero"/><g clip-path="url(#c536e4939b)"><path fill="#a3a3a4" d="M 634.527344 997.632812 L 651.632812 990.789062 C 660.1875 987.367188 665.320312 977.105469 660.1875 968.550781 L 651.632812 946.3125 C 442.9375 1030.132812 451.488281 1028.421875 439.515625 1031.84375 L 449.777344 1055.792969 C 453.199219 1064.347656 461.753906 1067.769531 472.015625 1064.347656 L 489.125 1057.503906 L 557.546875 1225.148438 C 569.523438 1255.9375 598.605469 1274.753906 631.105469 1274.753906 C 641.371094 1274.753906 651.632812 1273.042969 660.1875 1269.621094 C 701.242188 1252.515625 720.058594 1206.328125 702.953125 1166.984375 Z M 634.527344 997.632812 " fill-opacity="1" fill-rule="nonzero"/></g><path fill="#a3a3a4" d="M 896.253906 239.820312 C 892.832031 232.976562 887.703125 229.554688 880.859375 229.554688 C 874.015625 229.554688 867.171875 232.976562 865.460938 239.820312 C 802.167969 385.222656 685.847656 504.96875 542.152344 571.683594 L 675.582031 900.125 C 744.007812 876.175781 815.855469 864.203125 889.410156 864.203125 C 974.945312 864.203125 1058.765625 881.308594 1139.164062 913.8125 C 1146.007812 917.230469 1152.851562 915.519531 1157.980469 910.390625 C 1163.113281 905.257812 1164.824219 898.414062 1161.402344 891.574219 C 815.855469 12.304688 1190.484375 956.578125 896.253906 239.820312 Z M 896.253906 239.820312 " fill-opacity="1" fill-rule="nonzero"/><path fill="#a3a3a4" d="M 1140.875 520.363281 C 1118.636719 465.625 1065.605469 433.121094 1012.578125 433.121094 C 1017.710938 443.386719 1062.1875 547.734375 1110.082031 669.191406 C 1149.429688 631.554688 1163.113281 573.394531 1140.875 520.363281 Z M 1140.875 520.363281 " fill-opacity="1" fill-rule="nonzero"/></svg>