<svg xmlns="http://www.w3.org/2000/svg" xmlns:xlink="http://www.w3.org/1999/xlink" width="2000" zoomAndPan="magnify" viewBox="0 0 1500 1499.999933" height="2000" preserveAspectRatio="xMidYMid meet" version="1.0"><defs><clipPath id="867a367d6a"><path d="M 290 432 L 1210 432 L 1210 1300.5 L 290 1300.5 Z M 290 432 " clip-rule="nonzero"/></clipPath></defs><g clip-path="url(#867a367d6a)"><path fill="#a3a3a4" d="M 1204.03125 823.234375 L 769.597656 439.480469 C 758.332031 429.53125 741.433594 429.53125 730.164062 439.480469 L 295.734375 823.234375 C 292.535156 826.0625 290.703125 830.128906 290.703125 834.398438 L 290.703125 1285.75 C 290.703125 1293.976562 297.371094 1300.640625 305.589844 1300.640625 L 610.972656 1300.640625 C 619.191406 1300.640625 625.859375 1293.976562 625.859375 1285.75 L 625.859375 997.472656 C 625.859375 964.589844 652.515625 937.925781 685.40625 937.925781 L 814.355469 937.925781 C 847.246094 937.925781 873.902344 964.589844 873.902344 997.472656 L 873.902344 1285.75 C 873.902344 1293.976562 880.574219 1300.640625 888.789062 1300.640625 L 1194.171875 1300.640625 C 1202.390625 1300.640625 1209.0625 1293.976562 1209.0625 1285.75 L 1209.0625 834.398438 C 1209.0625 830.128906 1207.226562 826.0625 1204.03125 823.234375 " fill-opacity="1" fill-rule="nonzero"/></g><path fill="#a3a3a4" d="M 1323.714844 674.328125 L 828.503906 239.109375 C 783.53125 199.59375 716.222656 199.59375 671.257812 239.109375 L 176.046875 674.328125 C 151.636719 695.796875 150.429688 733.402344 173.40625 756.390625 C 194.410156 777.382812 228.109375 778.449219 250.382812 758.824219 L 710.523438 353.550781 C 733.019531 333.730469 766.742188 333.730469 789.238281 353.539062 L 1249.382812 758.824219 C 1271.664062 778.449219 1305.359375 777.382812 1326.355469 756.390625 C 1349.339844 733.402344 1348.128906 695.785156 1323.714844 674.328125 " fill-opacity="1" fill-rule="nonzero"/></svg>