<svg xmlns="http://www.w3.org/2000/svg" xmlns:xlink="http://www.w3.org/1999/xlink" width="2000" zoomAndPan="magnify" viewBox="0 0 1500 1499.999933" height="2000" preserveAspectRatio="xMidYMid meet" version="1.0"><defs><clipPath id="9175d1b1b7"><path d="M 150 1241 L 1350 1241 L 1350 1268.25 L 150 1268.25 Z M 150 1241 " clip-rule="nonzero"/></clipPath><clipPath id="4314662d18"><path d="M 594 231.75 L 1245 231.75 L 1245 1214 L 594 1214 Z M 594 231.75 " clip-rule="nonzero"/></clipPath></defs><g clip-path="url(#9175d1b1b7)"><path fill="#a3a3a4" d="M 163.957031 1241.378906 C 156.578125 1241.378906 150.582031 1247.347656 150.582031 1254.75 C 150.582031 1262.128906 156.578125 1268.097656 163.957031 1268.097656 L 310.90625 1268.097656 C 310.933594 1268.125 310.960938 1268.097656 310.988281 1268.097656 L 988.320312 1268.097656 L 988.320312 1268.125 C 988.347656 1268.125 988.347656 1268.097656 988.375 1268.097656 L 1335.800781 1268.097656 C 1343.179688 1268.097656 1349.175781 1262.128906 1349.175781 1254.75 C 1349.175781 1247.347656 1343.179688 1241.378906 1335.800781 1241.378906 Z M 163.957031 1241.378906 " fill-opacity="1" fill-rule="nonzero"/></g><path fill="#a3a3a4" d="M 889.726562 851.398438 C 875.691406 787.703125 815.449219 795.277344 812.878906 795.636719 C 812.273438 795.71875 811.664062 795.773438 811.03125 795.773438 L 311.875 795.773438 C 272.996094 795.773438 255.335938 828.601562 254.921875 861.539062 L 322.179688 1213.746094 L 971.601562 1213.746094 C 957.066406 1149.800781 904.125 916.804688 889.726562 851.398438 Z M 588.613281 1064.140625 C 551.199219 1064.140625 520.777344 1033.71875 520.777344 996.332031 C 520.777344 958.917969 551.199219 928.492188 588.613281 928.492188 C 626 928.492188 656.425781 958.917969 656.425781 996.332031 C 656.425781 1033.71875 626 1064.140625 588.613281 1064.140625 Z M 629.675781 996.332031 C 629.675781 1018.960938 611.246094 1037.394531 588.613281 1037.394531 C 565.957031 1037.394531 547.523438 1018.960938 547.523438 996.332031 C 547.523438 973.671875 565.957031 955.242188 588.613281 955.242188 C 611.246094 955.242188 629.675781 973.671875 629.675781 996.332031 Z M 629.675781 996.332031 " fill-opacity="1" fill-rule="nonzero"/><g clip-path="url(#4314662d18)"><path fill="#a3a3a4" d="M 1235.550781 1182.464844 C 1235.078125 1183.320312 1234.609375 1184.148438 1234.113281 1184.953125 C 1223.171875 1202.71875 1202.804688 1213.746094 1180.917969 1213.746094 L 1048.972656 1213.746094 C 1018.382812 1213.746094 992.492188 1191.363281 987.4375 1160.523438 C 981.773438 1125.84375 1004.816406 1092.933594 1038.832031 1087.1875 L 1078.265625 1080.5 L 1114.378906 1074.722656 C 1121.675781 1073.5625 1126.648438 1066.710938 1125.488281 1059.417969 C 1124.328125 1052.121094 1117.476562 1047.148438 1110.179688 1048.335938 L 1084.59375 1052.398438 L 1027.613281 906.386719 C 1024.933594 899.507812 1017.167969 896.105469 1010.289062 898.789062 C 1003.40625 901.46875 1000.007812 909.234375 1002.6875 916.113281 L 1057.621094 1056.875 L 1034.355469 1060.796875 C 1008.269531 1065.21875 986.71875 1080.777344 973.621094 1101.886719 C 952.507812 1008.792969 925.484375 889.476562 915.839844 845.621094 C 900.558594 776.320312 840.625 765.210938 810.171875 769.023438 L 616.605469 769.023438 C 723.378906 722.960938 884.3125 735.617188 886.164062 735.78125 C 886.523438 735.808594 886.882812 735.808594 887.269531 735.808594 C 981.382812 735.808594 1069.089844 782.425781 1121.894531 860.488281 C 1144.195312 895.195312 1163.898438 931.917969 1180.421875 969.691406 L 1239.445312 1104.566406 C 1248.757812 1126.011719 1245.109375 1165.304688 1235.550781 1182.464844 Z M 831.835938 231.679688 C 700.71875 231.679688 594.058594 338.371094 594.058594 469.460938 C 594.058594 598.421875 697.265625 703.730469 825.398438 707.15625 C 829.792969 707.128906 834.019531 707.128906 838.054688 707.183594 C 966.324219 703.867188 1069.617188 598.503906 1069.617188 469.460938 C 1069.617188 338.371094 962.953125 231.679688 831.835938 231.679688 Z M 831.835938 231.679688 " fill-opacity="1" fill-rule="nonzero"/></g></svg>